<svg id="Group_157" data-name="Group 157" xmlns="http://www.w3.org/2000/svg" xmlns:xlink="http://www.w3.org/1999/xlink" width="361.293" height="258.713" viewBox="0 0 361.293 258.713">
  <defs>
    <clipPath id="clip-path">
      <rect id="Rectangle_25" data-name="Rectangle 25" width="361.293" height="258.713" fill="none"/>
    </clipPath>
  </defs>
  <g id="Group_156" data-name="Group 156" clip-path="url(#clip-path)">
    <path id="Path_132" data-name="Path 132" d="M65.108,112.1a7.165,7.165,0,0,1-2.315-9.864v-.007a7.179,7.179,0,1,1,2.315,9.871" transform="translate(-17.475 -27.988)" fill="#c58511"/>
    <path id="Path_133" data-name="Path 133" d="M420.861,109.664a7.163,7.163,0,1,1,6.093,3.384,7.161,7.161,0,0,1-6.093-3.384" transform="translate(-118.859 -27.949)" fill="#d29d46"/>
    <path id="Path_134" data-name="Path 134" d="M87.495,80.317a7.173,7.173,0,1,1,4.824,1.871,7.172,7.172,0,0,1-4.824-1.871" transform="translate(-24.112 -19.212)" fill="#d29d46"/>
    <path id="Path_135" data-name="Path 135" d="M398.2,79.739a7.181,7.181,0,1,1,5.3,2.33,7.172,7.172,0,0,1-5.3-2.33" transform="translate(-112.218 -19.178)" fill="#efc981"/>
    <path id="Path_136" data-name="Path 136" d="M115.305,53.161a7.162,7.162,0,1,1,5.728,2.846,7.168,7.168,0,0,1-5.728-2.846" transform="translate(-32.238 -11.798)" fill="#efc981"/>
    <path id="Path_137" data-name="Path 137" d="M370.444,54.453h0a7.157,7.157,0,1,1,4.316,1.455,7.166,7.166,0,0,1-4.316-1.455" transform="translate(-104.085 -11.77)" fill="#d29d46"/>
    <path id="Path_138" data-name="Path 138" d="M147.619,31.546a7.168,7.168,0,1,1,6.423,3.971,7.165,7.165,0,0,1-6.423-3.971" transform="translate(-41.584 -5.996)" fill="#d29d46"/>
    <path id="Path_139" data-name="Path 139" d="M338.538,34.685h0a7.168,7.168,0,1,1,3.19.753,7.065,7.065,0,0,1-3.19-.753" transform="translate(-94.731 -5.975)" fill="#c58511"/>
    <path id="Path_140" data-name="Path 140" d="M183.36,16.255a7.176,7.176,0,1,1,6.9,5.212,7.17,7.17,0,0,1-6.9-5.212" transform="translate(-51.84 -2.018)" fill="#efc981"/>
    <path id="Path_141" data-name="Path 141" d="M303.547,21.145a7.169,7.169,0,1,1,1.957.272,7.169,7.169,0,0,1-1.957-.272" transform="translate(-84.471 -2.004)" fill="#d29d46"/>
    <path id="Path_142" data-name="Path 142" d="M221.316,7.842a7.166,7.166,0,1,1,7.792,6.48c-.222.022-.444.036-.66.036a7.17,7.17,0,0,1-7.133-6.516" transform="translate(-62.656 -0.005)" fill="#f2d78f"/>
    <path id="Path_143" data-name="Path 143" d="M266.653,14.309a7.174,7.174,0,1,1,.66.029c-.222,0-.437-.007-.66-.029" transform="translate(-73.657 0)" fill="#efc981"/>
    <path id="Path_144" data-name="Path 144" d="M430.726,243.132A7.165,7.165,0,0,1,433.042,253V253a7.179,7.179,0,1,1-2.315-9.871" transform="translate(-118.859 -68.536)" fill="#efc981"/>
    <path id="Path_145" data-name="Path 145" d="M74.975,245.575a7.163,7.163,0,1,1-6.093-3.384,7.161,7.161,0,0,1,6.093,3.384" transform="translate(-17.475 -68.576)" fill="#d29d46"/>
    <path id="Path_146" data-name="Path 146" d="M408.341,274.922a7.173,7.173,0,1,1-4.824-1.871,7.172,7.172,0,0,1,4.824,1.871" transform="translate(-112.223 -77.314)" fill="#d29d46"/>
    <path id="Path_147" data-name="Path 147" d="M97.747,275.5a7.181,7.181,0,1,1-5.3-2.33,7.172,7.172,0,0,1,5.3,2.33" transform="translate(-24.148 -77.348)" fill="#efc981"/>
    <path id="Path_148" data-name="Path 148" d="M382.263,302.077a7.162,7.162,0,1,1-5.728-2.846,7.168,7.168,0,0,1,5.728,2.846" transform="translate(-104.587 -84.727)" fill="#efc981"/>
    <path id="Path_149" data-name="Path 149" d="M125.392,300.785h0a7.157,7.157,0,1,1-4.316-1.455,7.166,7.166,0,0,1,4.316,1.455" transform="translate(-32.251 -84.755)" fill="#d29d46"/>
    <path id="Path_150" data-name="Path 150" d="M348.215,323.691a7.168,7.168,0,1,1-6.423-3.971,7.165,7.165,0,0,1,6.423,3.971" transform="translate(-94.75 -90.528)" fill="#d29d46"/>
    <path id="Path_151" data-name="Path 151" d="M157.3,320.554h0a7.168,7.168,0,1,1-3.19-.753,7.065,7.065,0,0,1,3.19.753" transform="translate(-41.603 -90.551)" fill="#c58511"/>
    <path id="Path_152" data-name="Path 152" d="M312.475,338.982a7.176,7.176,0,1,1-6.9-5.212,7.17,7.17,0,0,1,6.9,5.212" transform="translate(-84.493 -94.506)" fill="#efc981"/>
    <path id="Path_153" data-name="Path 153" d="M192.287,334.093a7.169,7.169,0,1,1-1.957-.272,7.169,7.169,0,0,1,1.957.272" transform="translate(-51.862 -94.521)" fill="#efc981"/>
    <path id="Path_154" data-name="Path 154" d="M274.521,347.4a7.166,7.166,0,1,1-7.792-6.48c.222-.021.444-.036.659-.036a7.17,7.17,0,0,1,7.133,6.516" transform="translate(-73.68 -96.52)" fill="#d29d46"/>
    <path id="Path_155" data-name="Path 155" d="M229.293,340.929a7.174,7.174,0,1,1-.66-.029c.222,0,.437.007.66.029" transform="translate(-62.711 -96.525)" fill="#efc981"/>
    <path id="Path_156" data-name="Path 156" d="M357.321,128.4v7.941H337.473V128.4H333.5v7.941h-19.85V128.4h-3.971v7.941H289.833V128.4h-3.971v7.941h-19.85V128.4h-3.971v7.941l-19.856,0V128.4h-3.971v7.941H220.35V108.545h-3.976v7.941H196.525v-7.941h-3.971v7.941H168.733v-7.941h-3.971v7.941h-19.85v-7.941h-3.968v27.792H123.076V128.4l-3.971,0v7.941H99.255V128.4H95.284v7.941H75.434V128.4H71.463v7.941H51.613V128.4H47.642v7.941H27.792V128.4H23.821v7.941l-19.85,0V128.4L0,128.4v63.522H172.7v-19.85a7.943,7.943,0,1,1,15.885,0v19.85h172.7V128.4ZM17.863,187.951H9.922v-13.9h7.941Zm0-17.868H9.922v-13.9h7.941Zm3.966-25.8H5.949v-3.971h15.88Zm19.856,43.672H33.744v-13.9h7.941Zm0-17.868H33.744v-13.9h7.941Zm3.971-25.8H29.776v-3.971h15.88Zm19.85,43.672H57.565v-13.9h7.941Zm0-17.868H57.565v-13.9h7.941Zm3.971-25.8H53.6v-3.971h15.88Zm19.85,43.672H81.386v-13.9h7.941Zm0-17.868H81.386v-13.9h7.941Zm3.971-25.8H77.418v-3.971H93.3Zm19.85,43.672h-7.941v-13.9h7.941Zm0-17.868h-7.941v-13.9h7.941Zm3.971-25.8H101.236v-3.971h15.88Zm19.85,43.672h-7.941v-13.9h7.941Zm0-17.868h-7.941v-13.9h7.941Zm3.971-25.8H125.06v-3.971h15.88Zm17.868,43.672h-7.941v-13.9h7.941Zm0-17.868h-7.941v-13.9h7.941Zm0-19.85h-7.941V136.337h7.941Zm3.965-25.81h-15.88v-3.971h15.88Zm21.833,25.81H176.67V136.337h7.936Zm25.812,37.719h-7.944v-13.9h7.944Zm0-17.868h-7.944v-13.9h7.944Zm0-19.85h-7.944V136.337h7.944Zm3.968-25.81H198.509v-3.971h15.877Zm17.868,63.528H224.31v-13.9h7.944Zm0-17.868H224.31v-13.9h7.944Zm3.971-25.8H220.348v-3.971h15.877Zm19.85,43.672h-7.941v-13.9h7.941Zm0-17.868h-7.941v-13.9h7.941Zm3.971-25.8h-15.88v-3.971h15.88ZM279.9,187.951h-7.944v-13.9H279.9Zm0-17.868h-7.944v-13.9H279.9Zm3.968-25.8h-15.88v-3.971h15.88Zm19.85,43.672h-7.941v-13.9h7.941Zm0-17.868h-7.941v-13.9h7.941Zm3.971-25.8h-15.88v-3.971h15.88Zm19.853,43.672H319.6v-13.9h7.944Zm0-17.868H319.6v-13.9h7.944Zm3.968-25.8H315.63v-3.971h15.88Zm19.85,43.672h-7.938v-13.9h7.941v13.9Zm0-17.868h-7.938v-13.9h7.941v13.9Zm3.974-25.8h-15.88v-3.971h15.88Z" transform="translate(0 -30.734)"/>
  </g>
</svg>
