<svg xmlns="http://www.w3.org/2000/svg" width="864.391" height="258.713"><defs><clipPath id="a"><path data-name="Rectangle 25" fill="none" d="M0 0h361.293v258.713H0z"/></clipPath></defs><g data-name="Group 165"><path data-name="Path 161" d="M301.779 157.357h-8.64v-3.855h-.109a9.688 9.688 0 0 1-8.669 4.539 10.616 10.616 0 0 1-8.449-3.705q-3.2-3.705-3.2-10.35 0-6.945 3.527-11.129a11.505 11.505 0 0 1 9.242-4.184q5.414 0 7.547 3.883h.109v-16.652h8.641Zm-8.476-13.617v-2.105a6.625 6.625 0 0 0-1.586-4.539 5.237 5.237 0 0 0-4.129-1.8 5.2 5.2 0 0 0-4.484 2.256 10.476 10.476 0 0 0-1.613 6.193 9.065 9.065 0 0 0 1.553 5.682 5.175 5.175 0 0 0 4.32 2 5.2 5.2 0 0 0 4.28-2.109 8.776 8.776 0 0 0 1.659-5.578Zm40.906 2.078h-18.265q.438 6.1 7.684 6.1a15 15 0 0 0 8.116-2.19v6.234a21.335 21.335 0 0 1-10.086 2.079q-6.781 0-10.527-3.76t-3.746-10.486q0-6.973 4.047-11.047a13.482 13.482 0 0 1 9.953-4.074q6.125 0 9.475 3.637t3.35 9.871Zm-8.012-5.3q0-6.016-4.867-6.016a4.647 4.647 0 0 0-3.6 1.723 7.819 7.819 0 0 0-1.846 4.293Zm29.447 16.839v-39.211h14.276q6.563 0 10.09 2.406a7.739 7.739 0 0 1 3.527 6.781 8.026 8.026 0 0 1-2.146 5.551 11.277 11.277 0 0 1-5.482 3.309v.109a10.866 10.866 0 0 1 6.686 3.09 8.641 8.641 0 0 1 2.5 6.262 10.466 10.466 0 0 1-3.851 8.545q-3.859 3.158-10.531 3.158Zm8.832-32.7v9.3h3.883a6.472 6.472 0 0 0 4.307-1.326 4.52 4.52 0 0 0 1.572-3.65q0-4.32-6.453-4.32Zm0 15.859v10.333h4.788a7.365 7.365 0 0 0 4.8-1.422 4.75 4.75 0 0 0 1.736-3.883 4.432 4.432 0 0 0-1.709-3.691 7.561 7.561 0 0 0-4.771-1.34Zm39.568 17.525q-7 0-11.006-3.924t-4.006-10.65q0-6.945 4.156-10.869t11.238-3.924q6.973 0 10.938 3.924a13.948 13.948 0 0 1 3.965 10.377q0 6.973-4.088 11.02t-11.197 4.046Zm.219-22.75a5.763 5.763 0 0 0-4.758 2.105 9.284 9.284 0 0 0-1.7 5.961q0 8.066 6.508 8.066 6.207 0 6.207-8.285.005-7.847-6.256-7.847Zm38.938 1.859a7.5 7.5 0 0 0-3.637-.848 5.239 5.239 0 0 0-4.4 2.064 9.006 9.006 0 0 0-1.586 5.619v13.372h-8.641v-28h8.641v5.2h.109q2.051-5.687 7.383-5.687a5.564 5.564 0 0 1 2.133.328Zm8.613-12.223a5.047 5.047 0 0 1-3.582-1.3 4.185 4.185 0 0 1-1.395-3.186 4.036 4.036 0 0 1 1.395-3.172 5.214 5.214 0 0 1 3.582-1.23 5.2 5.2 0 0 1 3.6 1.23 4.054 4.054 0 0 1 1.381 3.172 4.168 4.168 0 0 1-1.381 3.227 5.132 5.132 0 0 1-3.6 1.259Zm4.266 32.43h-8.636v-28h8.641Zm28.492-1.012q-2.926 1.7-8.449 1.7a14.289 14.289 0 0 1-10.445-3.91 13.5 13.5 0 0 1-3.992-10.09q0-7.137 4.279-11.252t11.443-4.115q4.949 0 7.164 1.313v7.328a9.85 9.85 0 0 0-6.043-2.023 7.962 7.962 0 0 0-5.893 2.174 8.111 8.111 0 0 0-2.174 6 7.979 7.979 0 0 0 2.082 5.834 7.638 7.638 0 0 0 5.715 2.119 11.4 11.4 0 0 0 6.316-2.023Z"/><path data-name="Path 162" d="M16.815 153.501v2.856H0v-25.994h16.453v2.856H3.257v8.265H13.73v2.647H3.257v9.369Zm23.8 0v2.856H25.267v-25.994H28.6v23.138Zm40.554-10.244v13.462h-1.99l-.9-3.256a8.153 8.153 0 0 1-7.135 3.427 9.377 9.377 0 0 1-8-3.868 15.37 15.37 0 0 1-2.858-9.395 15.7 15.7 0 0 1 3.028-9.852 9.818 9.818 0 0 1 8.227-3.945q7.179 0 9.369 7.541l-3.085.743a6.817 6.817 0 0 0-2.495-4.208 6.706 6.706 0 0 0-4-1.314 6.124 6.124 0 0 0-5.675 3.107 15.168 15.168 0 0 0-1.828 7.8q0 5.051 2.047 7.9a6.5 6.5 0 0 0 5.57 2.849 6.242 6.242 0 0 0 4.58-1.823 6.765 6.765 0 0 0 1.838-5.029q0-.592-.038-1.412h-6.443v-2.727Zm27.385 13.1h-3.325l-2.614-7.6h-9.646l-2.325 7.6h-2.723l8.447-25.994h3.684Zm-6.632-10.036-4.027-12.492-4.021 12.492Zm13.917 10.036v-25.994h10.283q3.885 0 5.76 1.9a6.1 6.1 0 0 1 1.876 4.414q0 4.415-4.608 5.861a7.007 7.007 0 0 1 4.075 2.515 6.736 6.736 0 0 1 1.333 4.1 6.975 6.975 0 0 1-2.066 5.136q-2.066 2.068-6.37 2.068Zm3.142-14.854h5.656q3.523 0 4.7-1.343a4.62 4.62 0 0 0 1.181-3.152 3.656 3.656 0 0 0-1.266-2.895 5.61 5.61 0 0 0-3.78-1.1h-6.494Zm0 12h6.97a5.732 5.732 0 0 0 3.942-1.238 4.107 4.107 0 0 0 1.39-3.218 5.442 5.442 0 0 0-.628-2.58 4.454 4.454 0 0 0-1.771-1.838 7.084 7.084 0 0 0-3.409-.647h-6.494Zm27.589 2.854h-3.256v-25.994h3.256Zm29.532 0h-3.158l-13.447-22.661.038 1.714q.057.971.057 1.638v19.309h-2.628v-25.994h4.08l12.563 21.184-.038-1.808q-.038-1.066-.038-1.884v-17.492h2.571Zm27.209-2.856v2.856h-16.815v-25.994h16.448v2.856h-13.2v8.265h10.474v2.647h-10.466v9.369Zm16.297 2.856h-3.256V133.22h-7.446v-2.856h18.167v2.856h-7.465Zm31.8-2.856v2.856h-16.817v-25.994h16.453v2.856h-13.2v8.265h10.474v2.647h-10.474v9.369Z"/><g data-name="Group 156" transform="translate(503.098)" clip-path="url(#a)"><path data-name="Path 132" d="M47.633 84.112a7.165 7.165 0 0 1-2.315-9.864v-.007a7.179 7.179 0 1 1 2.315 9.871" fill="#c58511"/><path data-name="Path 133" d="M302.002 81.715a7.163 7.163 0 1 1 6.093 3.384 7.161 7.161 0 0 1-6.093-3.384" fill="#d29d46"/><path data-name="Path 134" d="M63.383 61.105a7.173 7.173 0 1 1 4.824 1.871 7.172 7.172 0 0 1-4.824-1.871" fill="#d29d46"/><path data-name="Path 135" d="M285.982 60.561a7.181 7.181 0 1 1 5.3 2.33 7.172 7.172 0 0 1-5.3-2.33" fill="#efc981"/><path data-name="Path 136" d="M83.067 41.363a7.162 7.162 0 1 1 5.728 2.846 7.168 7.168 0 0 1-5.728-2.846" fill="#efc981"/><path data-name="Path 137" d="M266.359 42.683a7.157 7.157 0 1 1 4.316 1.455 7.166 7.166 0 0 1-4.316-1.455" fill="#d29d46"/><path data-name="Path 138" d="M106.035 25.55a7.168 7.168 0 1 1 6.423 3.971 7.165 7.165 0 0 1-6.423-3.971" fill="#d29d46"/><path data-name="Path 139" d="M243.807 28.71a7.168 7.168 0 1 1 3.19.753 7.065 7.065 0 0 1-3.19-.753" fill="#c58511"/><path data-name="Path 140" d="M131.52 14.237a7.176 7.176 0 1 1 6.9 5.212 7.17 7.17 0 0 1-6.9-5.212" fill="#efc981"/><path data-name="Path 141" d="M219.076 19.141a7.169 7.169 0 1 1 1.957.272 7.169 7.169 0 0 1-1.957-.272" fill="#d29d46"/><path data-name="Path 142" d="M158.66 7.837a7.166 7.166 0 1 1 7.792 6.48 6.733 6.733 0 0 1-.66.036 7.17 7.17 0 0 1-7.133-6.516" fill="#f2d78f"/><path data-name="Path 143" d="M192.996 14.309a7.174 7.174 0 1 1 .66.029c-.222 0-.437-.007-.66-.029" fill="#efc981"/><path data-name="Path 144" d="M311.867 174.596a7.165 7.165 0 0 1 2.316 9.868 7.179 7.179 0 1 1-2.315-9.871" fill="#efc981"/><path data-name="Path 145" d="M57.5 176.999a7.163 7.163 0 1 1-6.093-3.384 7.161 7.161 0 0 1 6.093 3.384" fill="#d29d46"/><path data-name="Path 146" d="M296.118 197.608a7.173 7.173 0 1 1-4.824-1.871 7.172 7.172 0 0 1 4.824 1.871" fill="#d29d46"/><path data-name="Path 147" d="M73.599 198.152a7.181 7.181 0 1 1-5.3-2.33 7.172 7.172 0 0 1 5.3 2.33" fill="#efc981"/><path data-name="Path 148" d="M277.676 217.35a7.162 7.162 0 1 1-5.728-2.846 7.168 7.168 0 0 1 5.728 2.846" fill="#efc981"/><path data-name="Path 149" d="M93.141 216.03a7.157 7.157 0 1 1-4.316-1.455 7.166 7.166 0 0 1 4.316 1.455" fill="#d29d46"/><path data-name="Path 150" d="M253.465 233.163a7.168 7.168 0 1 1-6.423-3.971 7.165 7.165 0 0 1 6.423 3.971" fill="#d29d46"/><path data-name="Path 151" d="M115.697 230.003a7.168 7.168 0 1 1-3.19-.753 7.065 7.065 0 0 1 3.19.753" fill="#c58511"/><path data-name="Path 152" d="M227.982 244.476a7.176 7.176 0 1 1-6.9-5.212 7.17 7.17 0 0 1 6.9 5.212" fill="#efc981"/><path data-name="Path 153" d="M140.425 239.572a7.169 7.169 0 1 1-1.957-.272 7.169 7.169 0 0 1 1.957.272" fill="#efc981"/><path data-name="Path 154" d="M200.841 250.88a7.166 7.166 0 1 1-7.792-6.48c.222-.021.444-.036.659-.036a7.17 7.17 0 0 1 7.133 6.516" fill="#d29d46"/><path data-name="Path 155" d="M166.582 244.404a7.174 7.174 0 1 1-.66-.029c.222 0 .437.007.66.029" fill="#efc981"/><path data-name="Path 156" d="M357.321 97.666v7.941h-19.848v-7.941H333.5v7.941h-19.85v-7.941h-3.971v7.941h-19.846v-7.941h-3.971v7.941h-19.85v-7.941h-3.971v7.941h-19.856v-7.941h-3.971v7.941H220.35V77.811h-3.976v7.941h-19.849v-7.941h-3.971v7.941h-23.821v-7.941h-3.971v7.941h-19.85v-7.941h-3.968v27.792h-17.868v-7.937h-3.971v7.941h-19.85v-7.941h-3.971v7.941h-19.85v-7.941h-3.971v7.941h-19.85v-7.941h-3.971v7.941h-19.85v-7.941h-3.971v7.941H3.971v-7.941H0v63.522h172.7v-19.85a7.943 7.943 0 1 1 15.885 0v19.85h172.7V97.666ZM17.863 157.217H9.922v-13.9h7.941Zm0-17.868H9.922v-13.9h7.941Zm3.966-25.8H5.949v-3.971h15.88Zm19.856 43.672h-7.941v-13.9h7.941Zm0-17.868h-7.941v-13.9h7.941Zm3.971-25.8h-15.88v-3.971h15.88Zm19.85 43.672h-7.941v-13.9h7.941Zm0-17.868h-7.941v-13.9h7.941Zm3.971-25.8H53.6v-3.971h15.88Zm19.85 43.672h-7.941v-13.9h7.941Zm0-17.868h-7.941v-13.9h7.941Zm3.971-25.8h-15.88v-3.971H93.3Zm19.85 43.672h-7.941v-13.9h7.941Zm0-17.868h-7.941v-13.9h7.941Zm3.971-25.8h-15.883v-3.971h15.88Zm19.85 43.672h-7.941v-13.9h7.941Zm0-17.868h-7.941v-13.9h7.941Zm3.971-25.8h-15.88v-3.971h15.88Zm17.868 43.672h-7.941v-13.9h7.941Zm0-17.868h-7.941v-13.9h7.941Zm0-19.85h-7.941v-13.92h7.941Zm3.965-25.81h-15.88v-3.971h15.88Zm21.833 25.81h-7.936v-13.92h7.936Zm25.812 37.719h-7.944v-13.9h7.944Zm0-17.868h-7.944v-13.9h7.944Zm0-19.85h-7.944v-13.921h7.944Zm3.968-25.81h-15.877v-3.971h15.877Zm17.868 63.528h-7.944v-13.9h7.944Zm0-17.868h-7.944v-13.9h7.944Zm3.971-25.8h-15.877v-3.971h15.877Zm19.85 43.672h-7.941v-13.9h7.941Zm0-17.868h-7.941v-13.9h7.941Zm3.971-25.8h-15.88v-3.971h15.88Zm19.854 43.639h-7.944v-13.9h7.944Zm0-17.868h-7.944v-13.9h7.944Zm3.968-25.8h-15.88v-3.971h15.88Zm19.85 43.672h-7.941v-13.9h7.941Zm0-17.868h-7.941v-13.9h7.941Zm3.971-25.8h-15.88v-3.971h15.88Zm19.853 43.672H319.6v-13.9h7.944Zm0-17.868H319.6v-13.9h7.944Zm3.968-25.8h-15.88v-3.971h15.88Zm19.85 43.672h-7.938v-13.9h7.941v13.9Zm0-17.868h-7.938v-13.9h7.941v13.9Zm3.974-25.8h-15.88v-3.971h15.88Z"/></g></g></svg>