<svg id="Group_58" data-name="Group 58" xmlns="http://www.w3.org/2000/svg" width="17.992" height="12.308" viewBox="0 0 17.992 12.308">
  <path id="Path_172" data-name="Path 172" d="M554.623,220.293l-1.254.724-.486.281-.928.535a.172.172,0,0,1-.235-.064.166.166,0,0,1-.023-.086,6.483,6.483,0,0,1,0-1.464,8.069,8.069,0,0,0,0-1.615.172.172,0,0,1,.172-.172.167.167,0,0,1,.086.023s.89.5,1.147.662,1.521.878,1.521.878a.172.172,0,0,1,0,.3" transform="translate(-543.597 -214.119)" fill="#fff"/>
  <path id="Path_173" data-name="Path 173" d="M544.679,212.468a3.41,3.41,0,0,1-.515.184,7.346,7.346,0,0,0-1.952.8,4.717,4.717,0,0,0-1.641,1.584,5.55,5.55,0,0,0-.738,3.576,4.926,4.926,0,0,0,3.282,4.478,7.26,7.26,0,0,0,2.382.346l.431.017c1.411.063,2.751.061,3.976,0a12.393,12.393,0,0,0,4.211-.815,4.538,4.538,0,0,0,1.818-2l.179-.295c.979-1.579.438-4.181-.679-5.62a7,7,0,0,0-2.813-2.017,6.164,6.164,0,0,0-2.246-.222l-.251.005v0l-.276-.014a26.919,26.919,0,0,0-4.047-.04c-.316.024-.631.047-1.12.054Zm3.259,11.619c-.659,0-1.339-.016-2.036-.047l-.426-.016a7.693,7.693,0,0,1-2.576-.386,5.506,5.506,0,0,1-3.66-5.009,6.052,6.052,0,0,1,.84-3.93,5.334,5.334,0,0,1,1.831-1.763,8.011,8.011,0,0,1,2.092-.854,2.22,2.22,0,0,0,.513-.2l.158.248,0-.245c.471-.007.777-.03,1.081-.052a28.569,28.569,0,0,1,4.342.05l.267,0a6.648,6.648,0,0,1,2.472.261,7.623,7.623,0,0,1,3.066,2.206c1.235,1.59,1.861,4.45.716,6.3l-.177.29a5.03,5.03,0,0,1-2.1,2.246,12.948,12.948,0,0,1-4.4.856c-.639.034-1.307.051-2,.051" transform="translate(-539.227 -211.779)" fill="#fff"/>
</svg>
