
    <svg xmlns="http://www.w3.org/2000/svg" viewBox="0 0 255.878 58.982">
      <g id="Group_60" data-name="Group 60" transform="translate(-412.122 -143.815)">
        <g id="Group_42" data-name="Group 42" transform="translate(416.276 188.906)">
          <g id="Group_40" data-name="Group 40" transform="translate(0 0)">
            <path id="Path_149" data-name="Path 149" d="M184.2,209.337h8.233v1.14H185.41v4.108h5.265v1.1H185.41v4.592h7.025v1.139H184.2Z" transform="translate(-184.202 -209.337)" fill="#fff" />
            <path id="Path_150" data-name="Path 150" d="M200.048,214.718h1.122v1.588a3.062,3.062,0,0,1,2.883-1.829c2.054,0,3.021,1.295,3.021,3.314v5.437h-1.14v-5.161c0-1.726-.777-2.555-2.14-2.555a2.053,2.053,0,0,0-2.089,1.174,6.854,6.854,0,0,0-.5,2.675v3.866h-1.157Z" transform="translate(-189.776 -211.145)" fill="#fff" />
            <path id="Path_151" data-name="Path 151" d="M222.633,209.337h1.157V221.42h-1.157Z" transform="translate(-197.72 -209.337)" fill="#fff" />
            <path id="Path_152" data-name="Path 152" d="M229.722,218.671a9.625,9.625,0,0,1,3.953-.984v-.362c0-1.122-.691-1.813-2.072-1.813a2.347,2.347,0,0,0-2.468,1.623l-1.122-.414a3.444,3.444,0,0,1,3.59-2.244c2.192,0,3.211,1.139,3.211,2.882v4.16c0,.5.19.673.656.673h.828v1.036h-.966c-1.122,0-1.485-.466-1.554-1.485a3.09,3.09,0,0,1-2.9,1.709c-1.64,0-2.693-.9-2.693-2.365A2.632,2.632,0,0,1,229.722,218.671Zm3.953-.1c-2.572.224-4.3,1-4.3,2.451,0,.9.622,1.45,1.726,1.45a2.608,2.608,0,0,0,2.572-2.9Z" transform="translate(-199.612 -211.145)" fill="#fff" />
            <path id="Path_153" data-name="Path 153" d="M250.277,214.718H251.4v1.416a3.205,3.205,0,0,1,.915-1.122,2.6,2.6,0,0,1,1.744-.535,2.743,2.743,0,0,1,2.744,1.985,2.871,2.871,0,0,1,2.9-1.985,2.825,2.825,0,0,1,3.038,3.141v5.61H261.6v-5.265c0-1.674-.812-2.451-2.141-2.451a2.029,2.029,0,0,0-1.588.6,4.165,4.165,0,0,0-.811,2.934v4.177h-1.122v-5.247c0-1.674-.811-2.469-2.123-2.469a2.029,2.029,0,0,0-1.588.6,4.477,4.477,0,0,0-.793,3.09v4.022h-1.157Z" transform="translate(-207.443 -211.145)" fill="#fff" />
            <path id="Path_154" data-name="Path 154" d="M276.769,214.477c2.158,0,3.643,1.691,3.643,4.073,0,.224-.018.449-.035.639h-6.162c.069,2.364,1.26,3.262,2.641,3.262a2.665,2.665,0,0,0,2.5-1.778l1.053.38a3.663,3.663,0,0,1-3.573,2.4c-2.3,0-3.763-1.571-3.763-4.54C273.076,216.168,274.681,214.477,276.769,214.477Zm2.452,3.728a2.5,2.5,0,0,0-2.452-2.762,2.7,2.7,0,0,0-2.537,2.762Z" transform="translate(-215.462 -211.145)" fill="#fff" />
            <path id="Path_155" data-name="Path 155" d="M288.176,214.718H289.3v1.588a3.062,3.062,0,0,1,2.883-1.829c2.054,0,3.021,1.295,3.021,3.314v5.437h-1.14v-5.161c0-1.726-.777-2.555-2.14-2.555a2.053,2.053,0,0,0-2.089,1.174,6.855,6.855,0,0,0-.5,2.675v3.866h-1.157Z" transform="translate(-220.773 -211.145)" fill="#fff" />
            <path id="Path_156" data-name="Path 156" d="M303.609,214.4H301.52v-.967h2.089v-2.606h1.139v2.606h2.417v.967h-2.417v5.351c0,.811.363,1.156,1.174,1.156h1.536v1.036h-1.623c-1.52,0-2.227-.708-2.227-2.141Z" transform="translate(-225.467 -209.862)" fill="#fff" />
            <path id="Path_157" data-name="Path 157" d="M316.106,214.477c2.158,0,3.643,1.691,3.643,4.073,0,.224-.018.449-.035.639h-6.162c.069,2.364,1.26,3.262,2.641,3.262a2.663,2.663,0,0,0,2.5-1.778l1.053.38a3.663,3.663,0,0,1-3.573,2.4c-2.3,0-3.763-1.571-3.763-4.54C312.413,216.168,314.018,214.477,316.106,214.477Zm2.452,3.728a2.5,2.5,0,0,0-2.452-2.762,2.7,2.7,0,0,0-2.537,2.762Z" transform="translate(-229.298 -211.145)" fill="#fff" />
            <path id="Path_158" data-name="Path 158" d="M337.206,212.669a3.024,3.024,0,0,1,2.813,1.726v-5.058h1.139V221.42h-1.139v-1.485a3.011,3.011,0,0,1-2.813,1.709c-1.916,0-3.487-1.623-3.487-4.47C333.719,214.309,335.272,212.669,337.206,212.669Zm.259,1.035c-1.536,0-2.572,1.1-2.572,3.47s1.035,3.452,2.572,3.452c1.5,0,2.607-1.157,2.607-3.452S338.966,213.7,337.465,213.7Z" transform="translate(-236.792 -209.337)" fill="#fff" />
            <path id="Path_159" data-name="Path 159" d="M352.647,214.477c2.157,0,3.642,1.691,3.642,4.073,0,.224-.017.449-.034.639h-6.162c.069,2.364,1.26,3.262,2.641,3.262a2.664,2.664,0,0,0,2.5-1.778l1.053.38a3.662,3.662,0,0,1-3.573,2.4c-2.3,0-3.763-1.571-3.763-4.54C348.953,216.168,350.558,214.477,352.647,214.477ZM355.1,218.2a2.5,2.5,0,0,0-2.451-2.762,2.7,2.7,0,0,0-2.537,2.762Z" transform="translate(-242.151 -211.145)" fill="#fff" />
            <path id="Path_160" data-name="Path 160" d="M371.244,209.337H372.4V221.42h-1.157Z" transform="translate(-249.991 -209.337)" fill="#fff" />
            <path id="Path_161" data-name="Path 161" d="M380.666,214.477c2.157,0,3.935,1.812,3.935,4.5s-1.812,4.47-3.935,4.47c-2.141,0-3.936-1.778-3.936-4.47S378.491,214.477,380.666,214.477Zm0,1.035c-1.554,0-2.745,1.225-2.745,3.487,0,2.244,1.191,3.435,2.745,3.435s2.744-1.191,2.744-3.435C383.41,216.738,382.22,215.512,380.666,215.512Z" transform="translate(-251.921 -211.145)" fill="#fff" />
            <path id="Path_162" data-name="Path 162" d="M392.4,220.656a2.257,2.257,0,0,0,2.451,1.813c1.381,0,2.141-.535,2.141-1.433,0-.76-.535-1.26-1.726-1.52l-1.088-.242c-1.519-.328-2.52-.915-2.52-2.347s1.33-2.45,3.022-2.45a3.075,3.075,0,0,1,3.279,2.122l-1.053.4a2.115,2.115,0,0,0-2.226-1.554c-1.26,0-1.934.656-1.934,1.346s.4,1.088,1.554,1.346l1.087.224c1.847.432,2.762,1.295,2.762,2.589,0,1.5-1.139,2.5-3.3,2.5-1.881,0-3.245-.949-3.556-2.416Z" transform="translate(-257.046 -211.145)" fill="#fff" />
            <path id="Path_163" data-name="Path 163" d="M415.575,214.477a3.457,3.457,0,0,1,3.434,2.434l-1.087.345a2.344,2.344,0,0,0-2.347-1.743c-1.485,0-2.693,1.191-2.693,3.434,0,2.3,1.157,3.487,2.71,3.487a2.483,2.483,0,0,0,2.485-2.054l1.1.38a3.634,3.634,0,0,1-3.59,2.693c-2.365,0-3.918-1.743-3.918-4.505C411.674,216.375,413.278,214.477,415.575,214.477Z" transform="translate(-264.212 -211.145)" fill="#fff" />
            <path id="Path_164" data-name="Path 164" d="M426.562,214.784H427.7v1.881a2.991,2.991,0,0,1,2.762-2,4.062,4.062,0,0,1,1.036.121v1.174a5,5,0,0,0-1.036-.1c-1.881,0-2.762,1.329-2.762,3.538v3.9h-1.138Z" transform="translate(-269.449 -211.21)" fill="#fff" />
            <path id="Path_165" data-name="Path 165" d="M439.071,214.477c2.157,0,3.642,1.691,3.642,4.073,0,.224-.018.449-.034.639h-6.162c.069,2.364,1.26,3.262,2.641,3.262a2.662,2.662,0,0,0,2.5-1.778l1.053.38a3.662,3.662,0,0,1-3.573,2.4c-2.3,0-3.763-1.571-3.763-4.54C435.377,216.168,436.983,214.477,439.071,214.477Zm2.45,3.728a2.5,2.5,0,0,0-2.45-2.762,2.7,2.7,0,0,0-2.537,2.762Z" transform="translate(-272.549 -211.145)" fill="#fff" />
            <path id="Path_166" data-name="Path 166" d="M451.041,218.671a9.621,9.621,0,0,1,3.952-.984v-.362c0-1.122-.69-1.813-2.071-1.813a2.349,2.349,0,0,0-2.469,1.623l-1.121-.414a3.445,3.445,0,0,1,3.59-2.244c2.192,0,3.211,1.139,3.211,2.882v4.16c0,.5.19.673.656.673h.828v1.036h-.967c-1.121,0-1.485-.466-1.553-1.485a3.092,3.092,0,0,1-2.9,1.709c-1.639,0-2.692-.9-2.692-2.365A2.631,2.631,0,0,1,451.041,218.671Zm3.952-.1c-2.571.224-4.3,1-4.3,2.451,0,.9.622,1.45,1.726,1.45a2.607,2.607,0,0,0,2.571-2.9Z" transform="translate(-277.458 -211.145)" fill="#fff" />
            <path id="Path_167" data-name="Path 167" d="M467.2,212.669a3.025,3.025,0,0,1,2.814,1.726v-5.058h1.138V221.42h-1.138v-1.485a3.011,3.011,0,0,1-2.814,1.709c-1.916,0-3.486-1.623-3.486-4.47C463.715,214.309,465.268,212.669,467.2,212.669Zm.259,1.035c-1.536,0-2.572,1.1-2.572,3.47s1.036,3.452,2.572,3.452c1.5,0,2.607-1.157,2.607-3.452S468.963,213.7,467.46,213.7Z" transform="translate(-282.517 -209.337)" fill="#fff" />
            <path id="Path_168" data-name="Path 168" d="M482.831,214.477c2.157,0,3.935,1.812,3.935,4.5s-1.812,4.47-3.935,4.47c-2.141,0-3.936-1.778-3.936-4.47S480.655,214.477,482.831,214.477Zm0,1.035c-1.554,0-2.745,1.225-2.745,3.487,0,2.244,1.191,3.435,2.745,3.435s2.744-1.191,2.744-3.435C485.575,216.738,484.384,215.512,482.831,215.512Z" transform="translate(-287.856 -211.145)" fill="#fff" />
            <path id="Path_169" data-name="Path 169" d="M494.742,214.784h1.139v1.881a2.991,2.991,0,0,1,2.762-2,4.057,4.057,0,0,1,1.035.121v1.174a4.994,4.994,0,0,0-1.035-.1c-1.882,0-2.762,1.329-2.762,3.538v3.9h-1.139Z" transform="translate(-293.43 -211.21)" fill="#fff" />
            <path id="Path_170" data-name="Path 170" d="M507.252,214.477c2.157,0,3.642,1.691,3.642,4.073,0,.224-.018.449-.035.639H504.7c.069,2.364,1.261,3.262,2.642,3.262a2.664,2.664,0,0,0,2.5-1.778l1.053.38a3.663,3.663,0,0,1-3.573,2.4c-2.3,0-3.762-1.571-3.762-4.54C503.558,216.168,505.163,214.477,507.252,214.477Zm2.45,3.728a2.5,2.5,0,0,0-2.45-2.762,2.7,2.7,0,0,0-2.537,2.762Z" transform="translate(-296.531 -211.145)" fill="#fff" />
            <path id="Path_171" data-name="Path 171" d="M518.485,220.656a2.257,2.257,0,0,0,2.451,1.813c1.381,0,2.141-.535,2.141-1.433,0-.76-.536-1.26-1.726-1.52l-1.088-.242c-1.519-.328-2.52-.915-2.52-2.347s1.33-2.45,3.022-2.45a3.075,3.075,0,0,1,3.279,2.122l-1.053.4a2.115,2.115,0,0,0-2.226-1.554c-1.26,0-1.934.656-1.934,1.346s.4,1.088,1.554,1.346l1.087.224c1.847.432,2.762,1.295,2.762,2.589,0,1.5-1.139,2.5-3.3,2.5-1.881,0-3.245-.949-3.556-2.416Z" transform="translate(-301.393 -211.145)" fill="#fff" />
          </g>
        </g>
        <path id="Path_175" data-name="Path 175" d="M719.258,157.262h8.826v-7.855h-8.826Zm0-13.4h8.826v-7.855h-8.826Zm-12.47,5.263c0,2.348-1.417,3.644-3.158,3.644-1.255,0-1.943-.648-1.943-1.741,0-1.822,1.822-2.753,5.1-3.077Zm-13.078,2.834c0,3.685,2.47,5.992,6.195,5.992,3.482,0,5.709-1.619,6.64-4.9h2.307c.081,2.672.85,4.211,4.292,4.211h4.008v-5.749h-1.417c-.85,0-1.053-.2-1.053-1.174v-5.952c0-5.344-3.6-8.178-10.081-8.178-6.4,0-10.689,2.632-11.174,6.518l7.814,1.093a2.779,2.779,0,0,1,3.077-2.591,2.16,2.16,0,0,1,2.47,2.308v.688c-8.219.486-13.078,3-13.078,7.733m-21.053,5.3h18.786v-6.073h-2.308c-4.13.122-5.709,1.458-8.1,3.6l-1.62-1.984L691,142.889V136.9H673.183v5.79h2.025c2.712,0,4.615-1.5,6.356-3.32l1.66,2.024-10.567,9.069ZM656.341,144.59c.162-2.146,1.215-3.279,3-3.279,1.741,0,2.875,1.214,2.915,3.279Zm-8.259,2.389c0,6.923,4.17,10.972,11.256,10.972,5.587,0,9.312-2.024,11.174-6.113l-7.652-2.105c-.769,1.781-1.781,2.794-3.522,2.794-1.943,0-3.077-1.255-3.118-3.887h14.009a15.183,15.183,0,0,0,.121-1.781c0-6.438-3.968-10.648-11.053-10.648-6.6,0-11.215,4.413-11.215,10.77m-11.336,10.284h8.462V136.9h-8.462Zm-.081-22.673h8.583v-6.478h-8.583Zm-11.5,12.47c0,3.684-1.255,5.385-3.239,5.385s-3.239-1.822-3.239-5.385c0-3.6,1.255-5.344,3.239-5.344s3.239,1.619,3.239,5.344m-14.535,18.1h8.219v-4.939a11.908,11.908,0,0,0-1.943-7.045h3.077c.972,2.875,2.794,4.737,6.154,4.737,4.454,0,7.693-4.373,7.693-10.81,0-6.478-3.077-10.851-7.693-10.851-3.279,0-5.1,1.822-6.194,4.7h-3.037a7.656,7.656,0,0,0,1.336-4.049h-7.612Zm-37.653-7.9h8.34v-11.5c0-1.9.648-3.4,2.389-3.4,1.3,0,2.186.931,2.186,2.712v12.187h8.1v-11.5c0-1.9.729-3.4,2.389-3.4,1.336,0,2.186.931,2.186,2.712v12.187h8.381V143.7c0-4.737-2.713-7.49-6.4-7.49-2.956,0-5.183,1.579-6.033,4.939h-2.389c-.324-3.239-2.348-4.939-4.98-4.939-2.753,0-4.494,1.66-5.182,4.939h-3.077a8.861,8.861,0,0,0,1.539-4.251h-7.45ZM555.932,144.59c.162-2.146,1.215-3.279,3-3.279,1.741,0,2.874,1.214,2.915,3.279Zm-8.259,2.389c0,6.923,4.17,10.972,11.256,10.972,5.587,0,9.312-2.024,11.174-6.113l-7.652-2.105c-.769,1.781-1.781,2.794-3.522,2.794-1.944,0-3.077-1.255-3.118-3.887H569.82a15.2,15.2,0,0,0,.122-1.781c0-6.438-3.968-10.648-11.053-10.648-6.6,0-11.215,4.413-11.215,10.77M529.94,134.346h5.344l5.021-6.235h-8.34ZM528.4,157.262h8.422V136.9H528.4Zm-24.17-5.708c.567,3.32,3.6,6.4,10.648,6.4,7.086,0,10.729-2.793,10.729-6.964,0-3.6-2.713-5.749-7.571-6.6l-2.956-.526c-1.9-.284-2.551-.729-2.551-1.539,0-.85.688-1.458,2.024-1.458a2.937,2.937,0,0,1,2.956,2.227l7.409-1.458c-.688-2.956-3.643-5.425-9.919-5.425-6.437,0-9.838,2.875-9.838,6.68,0,4.008,2.348,5.466,7.612,6.478l2.47.445c1.619.324,2.227.851,2.227,1.7,0,.972-.851,1.539-2.429,1.539-2.227,0-3.077-1.214-3.2-2.51ZM484.8,145.521l.729-2.429a27.961,27.961,0,0,0,.931-7.855c0-.445,0-1.133-.04-2.024h2.915c-.04,1.012-.081,2.065-.081,3.118a25.049,25.049,0,0,0,.729,6.761l.729,2.429Zm9.393,11.741h9.636l-9.8-28.341H481.923l-9.717,28.341h8.948l1.619-5.182h9.839Z" transform="translate(-60.084 15.704)" fill="#fff" />
        <g id="Group_58" data-name="Group 58" transform="translate(646.426 190.489)">
          <path id="Path_172" data-name="Path 172" d="M554.623,220.293l-1.254.724-.486.281-.928.535a.172.172,0,0,1-.235-.064.166.166,0,0,1-.023-.086,6.483,6.483,0,0,1,0-1.464,8.069,8.069,0,0,0,0-1.615.172.172,0,0,1,.172-.172.167.167,0,0,1,.086.023s.89.5,1.147.662,1.521.878,1.521.878a.172.172,0,0,1,0,.3" transform="translate(-543.597 -214.119)" fill="#fff" />
          <path id="Path_173" data-name="Path 173" d="M544.679,212.468a3.41,3.41,0,0,1-.515.184,7.346,7.346,0,0,0-1.952.8,4.717,4.717,0,0,0-1.641,1.584,5.55,5.55,0,0,0-.738,3.576,4.926,4.926,0,0,0,3.282,4.478,7.26,7.26,0,0,0,2.382.346l.431.017c1.411.063,2.751.061,3.976,0a12.393,12.393,0,0,0,4.211-.815,4.538,4.538,0,0,0,1.818-2l.179-.295c.979-1.579.438-4.181-.679-5.62a7,7,0,0,0-2.813-2.017,6.164,6.164,0,0,0-2.246-.222l-.251.005v0l-.276-.014a26.919,26.919,0,0,0-4.047-.04c-.316.024-.631.047-1.12.054Zm3.259,11.619c-.659,0-1.339-.016-2.036-.047l-.426-.016a7.693,7.693,0,0,1-2.576-.386,5.506,5.506,0,0,1-3.66-5.009,6.052,6.052,0,0,1,.84-3.93,5.334,5.334,0,0,1,1.831-1.763,8.011,8.011,0,0,1,2.092-.854,2.22,2.22,0,0,0,.513-.2l.158.248,0-.245c.471-.007.777-.03,1.081-.052a28.569,28.569,0,0,1,4.342.05l.267,0a6.648,6.648,0,0,1,2.472.261,7.623,7.623,0,0,1,3.066,2.206c1.235,1.59,1.861,4.45.716,6.3l-.177.29a5.03,5.03,0,0,1-2.1,2.246,12.948,12.948,0,0,1-4.4.856c-.639.034-1.307.051-2,.051" transform="translate(-539.227 -211.779)" fill="#fff" />
        </g>
      </g>
    </svg>