<svg xmlns="http://www.w3.org/2000/svg" width="166.129" height="53" viewBox="0 0 166.129 53">
  <g id="Group_4" data-name="Group 4" transform="translate(-101.871 -684)">
    <g id="Group_3" data-name="Group 3">
      <path id="Path_21" data-name="Path 21" d="M122.582,698.675V688.2h2.039v8.522h4.667v1.95Z" fill="#fff"/>
      <path id="Path_22" data-name="Path 22" d="M132.419,694.495l1.787-.266c.413-.059.546-.266.546-.517,0-.516-.4-.945-1.226-.945a1.29,1.29,0,0,0-1.388,1.182l-1.743-.37a2.889,2.889,0,0,1,3.117-2.392c2.3,0,3.16,1.3,3.16,2.762v3.574a8.175,8.175,0,0,0,.089,1.152h-1.8a4.949,4.949,0,0,1-.074-.871,2.429,2.429,0,0,1-2.141,1.078,2.3,2.3,0,0,1-2.5-2.186A2.239,2.239,0,0,1,132.419,694.495Zm2.333,1.241v-.325l-1.639.251a.917.917,0,0,0-.9.915.852.852,0,0,0,.945.842A1.475,1.475,0,0,0,134.752,695.736Z" fill="#fff"/>
      <path id="Path_23" data-name="Path 23" d="M138.463,698.675V687.981H140.4v4.225a2.586,2.586,0,0,1,2.2-.99c2.127,0,3.353,1.64,3.353,3.8,0,2.2-1.359,3.84-3.427,3.84a2.46,2.46,0,0,1-2.156-1.063v.886Zm3.722-5.7a1.84,1.84,0,0,0-1.816,2.053,1.861,1.861,0,0,0,1.816,2.068,2.079,2.079,0,0,0,0-4.121Z" fill="#fff"/>
      <path id="Path_24" data-name="Path 24" d="M154.527,695.041a3.811,3.811,0,1,1-3.811-3.854A3.731,3.731,0,0,1,154.527,695.041Zm-1.965,0a1.858,1.858,0,1,0-1.846,2.068A1.864,1.864,0,0,0,152.562,695.041Z" fill="#fff"/>
      <path id="Path_25" data-name="Path 25" d="M160.377,693.358a2.991,2.991,0,0,0-.591-.059c-1,0-1.876.487-1.876,2.053v3.323h-1.964v-7.267h1.9v1.079a2.16,2.16,0,0,1,2.068-1.138c.162,0,.31.015.458.029Z" fill="#fff"/>
      <path id="Path_26" data-name="Path 26" d="M163.36,694.495l1.787-.266c.413-.059.546-.266.546-.517,0-.516-.4-.945-1.225-.945a1.29,1.29,0,0,0-1.389,1.182l-1.743-.37a2.89,2.89,0,0,1,3.117-2.392c2.3,0,3.16,1.3,3.16,2.762v3.574a8.177,8.177,0,0,0,.089,1.152h-1.8a4.951,4.951,0,0,1-.074-.871,2.429,2.429,0,0,1-2.141,1.078,2.3,2.3,0,0,1-2.5-2.186A2.239,2.239,0,0,1,163.36,694.495Zm2.333,1.241v-.325l-1.639.251a.917.917,0,0,0-.9.915.852.852,0,0,0,.945.842A1.475,1.475,0,0,0,165.693,695.736Z" fill="#fff"/>
      <path id="Path_27" data-name="Path 27" d="M171.865,691.408h1.462v1.743h-1.462v3.043c0,.634.3.841.857.841a2.9,2.9,0,0,0,.6-.058V698.6a2.907,2.907,0,0,1-1.107.177,2.1,2.1,0,0,1-2.3-2.245v-3.382H168.6v-1.743h.369a1.047,1.047,0,0,0,1.123-1.152v-1.019h1.772Z" fill="#fff"/>
      <path id="Path_28" data-name="Path 28" d="M181.771,695.041a3.811,3.811,0,1,1-3.811-3.854A3.731,3.731,0,0,1,181.771,695.041Zm-1.964,0a1.858,1.858,0,1,0-1.847,2.068A1.865,1.865,0,0,0,179.807,695.041Z" fill="#fff"/>
      <path id="Path_29" data-name="Path 29" d="M187.621,693.358a2.991,2.991,0,0,0-.591-.059c-1,0-1.876.487-1.876,2.053v3.323H183.19v-7.267h1.9v1.079a2.161,2.161,0,0,1,2.068-1.138c.163,0,.31.015.458.029Z" fill="#fff"/>
      <path id="Path_30" data-name="Path 30" d="M189.7,687.8a1.211,1.211,0,1,1-1.211,1.226A1.21,1.21,0,0,1,189.7,687.8Zm-.975,10.871v-7.267h1.965v7.267Z" fill="#fff"/>
      <path id="Path_31" data-name="Path 31" d="M199.689,695.041a3.811,3.811,0,1,1-3.811-3.854A3.731,3.731,0,0,1,199.689,695.041Zm-1.965,0a1.858,1.858,0,1,0-1.846,2.068A1.864,1.864,0,0,0,197.724,695.041Z" fill="#fff"/>
      <path id="Path_32" data-name="Path 32" d="M109.345,715.084c0,.487.029,1.019.059,1.314h-1.876a5.075,5.075,0,0,1-.074-.842,2.278,2.278,0,0,1-2.038,1.02,3.824,3.824,0,0,1-.059-7.622,2.177,2.177,0,0,1,2.053.9v-4.15h1.935Zm-3.693-.266a1.846,1.846,0,0,0,1.788-2.083,1.8,1.8,0,0,0-1.788-2.023,2.07,2.07,0,0,0,0,4.106Z" fill="#fff"/>
      <path id="Path_33" data-name="Path 33" d="M117.816,714.315a3.272,3.272,0,0,1-3.308,2.3,3.861,3.861,0,0,1-.177-7.71c2.245,0,3.589,1.433,3.589,3.766,0,.281-.03.576-.03.606h-5.2a1.77,1.77,0,0,0,1.832,1.654,1.606,1.606,0,0,0,1.654-1.108Zm-1.831-2.378a1.462,1.462,0,0,0-1.625-1.432,1.571,1.571,0,0,0-1.624,1.432Z" fill="#fff"/>
      <path id="Path_34" data-name="Path 34" d="M122.645,711.17a5.286,5.286,0,0,1,5.332-5.465,4.609,4.609,0,0,1,4.8,3.471l-1.92.6a2.738,2.738,0,0,0-2.88-2.112,3.488,3.488,0,0,0,.03,6.957,2.91,2.91,0,0,0,2.939-2.142l1.9.576a4.762,4.762,0,0,1-4.844,3.56A5.229,5.229,0,0,1,122.645,711.17Z" fill="#fff"/>
      <path id="Path_35" data-name="Path 35" d="M141.462,712.765a3.811,3.811,0,1,1-3.811-3.855A3.731,3.731,0,0,1,141.462,712.765Zm-1.965,0a1.858,1.858,0,1,0-1.846,2.068A1.865,1.865,0,0,0,139.5,712.765Z" fill="#fff"/>
      <path id="Path_36" data-name="Path 36" d="M144.845,716.4h-1.964v-7.267h1.9v.9a2.415,2.415,0,0,1,2.1-1.093c1.8,0,2.629,1.285,2.629,2.88V716.4h-1.964v-4.239a1.277,1.277,0,0,0-1.344-1.447,1.368,1.368,0,0,0-1.359,1.506Z" fill="#fff"/>
      <path id="Path_37" data-name="Path 37" d="M153.764,709.131h1.463v1.743h-1.463v3.043c0,.635.3.842.857.842a2.9,2.9,0,0,0,.606-.059v1.624a2.917,2.917,0,0,1-1.108.177,2.1,2.1,0,0,1-2.3-2.245v-3.382H150.5v-1.743h.37a1.046,1.046,0,0,0,1.122-1.152V706.96h1.772Z" fill="#fff"/>
      <path id="Path_38" data-name="Path 38" d="M163.149,714.315a3.274,3.274,0,0,1-3.309,2.3,3.861,3.861,0,0,1-.177-7.71c2.245,0,3.589,1.433,3.589,3.766,0,.281-.03.576-.03.606h-5.2a1.77,1.77,0,0,0,1.832,1.654,1.6,1.6,0,0,0,1.654-1.108Zm-1.832-2.378a1.461,1.461,0,0,0-1.625-1.432,1.571,1.571,0,0,0-1.624,1.432Z" fill="#fff"/>
      <path id="Path_39" data-name="Path 39" d="M166.657,716.4h-1.964v-7.267H166.6v.9a2.417,2.417,0,0,1,2.1-1.093c1.8,0,2.629,1.285,2.629,2.88V716.4H169.36v-4.239a1.277,1.277,0,0,0-1.344-1.447,1.369,1.369,0,0,0-1.359,1.506Z" fill="#fff"/>
      <path id="Path_40" data-name="Path 40" d="M174.1,705.527a1.211,1.211,0,1,1-1.211,1.226A1.21,1.21,0,0,1,174.1,705.527Zm-.974,10.871v-7.267h1.964V716.4Z" fill="#fff"/>
      <path id="Path_41" data-name="Path 41" d="M183.942,715.084c0,.487.03,1.019.059,1.314h-1.876a5.1,5.1,0,0,1-.073-.842,2.28,2.28,0,0,1-2.039,1.02,3.824,3.824,0,0,1-.059-7.622,2.174,2.174,0,0,1,2.053.9v-4.15h1.935Zm-3.692-.266a1.846,1.846,0,0,0,1.787-2.083,1.8,1.8,0,0,0-1.787-2.023,2.07,2.07,0,0,0,0,4.106Z" fill="#fff"/>
      <path id="Path_42" data-name="Path 42" d="M192.975,712.765a3.811,3.811,0,1,1-3.811-3.855A3.731,3.731,0,0,1,192.975,712.765Zm-1.964,0a1.858,1.858,0,1,0-1.847,2.068A1.865,1.865,0,0,0,191.011,712.765Z" fill="#fff"/>
      <path id="Path_43" data-name="Path 43" d="M195.494,714.005a1.209,1.209,0,0,0,1.33,1.108c.65,0,.96-.34.96-.724,0-.325-.222-.59-.783-.709l-.96-.221c-1.4-.311-2.038-1.152-2.038-2.171a2.855,2.855,0,0,1,5.568-.281l-1.64.37a1.107,1.107,0,0,0-1.2-.976.835.835,0,0,0-.93.724c0,.354.265.576.664.65L197.5,712c1.433.295,2.157,1.167,2.157,2.23a2.51,2.51,0,0,1-2.822,2.393,2.73,2.73,0,0,1-3.027-2.245Z" fill="#fff"/>
      <path id="Path_44" data-name="Path 44" d="M144.006,732.807c0,.487.029,1.019.059,1.314h-1.876a4.955,4.955,0,0,1-.074-.842,2.277,2.277,0,0,1-2.038,1.019,3.823,3.823,0,0,1-.059-7.621,2.177,2.177,0,0,1,2.053.9v-4.15h1.935Zm-3.693-.266a1.846,1.846,0,0,0,1.787-2.083,1.8,1.8,0,0,0-1.787-2.023,2.07,2.07,0,0,0,0,4.106Z" fill="#fff"/>
      <path id="Path_45" data-name="Path 45" d="M152.477,732.038a3.272,3.272,0,0,1-3.308,2.3,3.861,3.861,0,0,1-.178-7.71c2.245,0,3.589,1.433,3.589,3.767,0,.28-.029.575-.029.6h-5.2a1.769,1.769,0,0,0,1.831,1.654,1.606,1.606,0,0,0,1.655-1.108Zm-1.831-2.377a1.462,1.462,0,0,0-1.625-1.433,1.573,1.573,0,0,0-1.625,1.433Z" fill="#fff"/>
      <path id="Path_46" data-name="Path 46" d="M167.6,734.121v-7.34l-3.013,7.34h-1.7l-3.013-7.282v7.282h-1.95V723.649h2.689l3.146,7.562,3.072-7.562h2.776v10.472Z" fill="#fff"/>
      <path id="Path_47" data-name="Path 47" d="M173.492,729.942l1.787-.267c.413-.059.546-.265.546-.516,0-.517-.4-.946-1.225-.946a1.291,1.291,0,0,0-1.389,1.182l-1.743-.369a2.889,2.889,0,0,1,3.117-2.393c2.3,0,3.16,1.3,3.16,2.762v3.574a8.174,8.174,0,0,0,.089,1.152h-1.8a4.95,4.95,0,0,1-.074-.871,2.427,2.427,0,0,1-2.141,1.078,2.3,2.3,0,0,1-2.5-2.186A2.238,2.238,0,0,1,173.492,729.942Zm2.333,1.24v-.325l-1.639.251a.917.917,0,0,0-.9.916.853.853,0,0,0,.945.842A1.476,1.476,0,0,0,175.825,731.182Z" fill="#fff"/>
      <path id="Path_48" data-name="Path 48" d="M183.967,728.8a2.97,2.97,0,0,0-.59-.059c-1.005,0-1.876.488-1.876,2.053v3.323h-1.965v-7.266h1.906v1.078a2.16,2.16,0,0,1,2.068-1.138,4.38,4.38,0,0,1,.457.03Z" fill="#fff"/>
      <path id="Path_49" data-name="Path 49" d="M186.633,730.488a1.872,1.872,0,0,0,1.861,2.053,1.663,1.663,0,0,0,1.669-1.226l1.728.576a3.374,3.374,0,0,1-3.4,2.452,3.76,3.76,0,0,1-3.825-3.855,3.72,3.72,0,0,1,3.766-3.855,3.327,3.327,0,0,1,3.412,2.451l-1.758.591a1.584,1.584,0,0,0-1.61-1.225A1.847,1.847,0,0,0,186.633,730.488Z" fill="#fff"/>
      <path id="Path_50" data-name="Path 50" d="M195.007,729.942l1.787-.267c.414-.059.547-.265.547-.516,0-.517-.4-.946-1.226-.946a1.291,1.291,0,0,0-1.389,1.182l-1.742-.369a2.888,2.888,0,0,1,3.116-2.393c2.3,0,3.161,1.3,3.161,2.762v3.574a8.19,8.19,0,0,0,.088,1.152h-1.8a4.958,4.958,0,0,1-.073-.871,2.43,2.43,0,0,1-2.142,1.078,2.3,2.3,0,0,1-2.5-2.186A2.238,2.238,0,0,1,195.007,729.942Zm2.334,1.24v-.325l-1.64.251a.917.917,0,0,0-.9.916.853.853,0,0,0,.946.842A1.476,1.476,0,0,0,197.341,731.182Z" fill="#fff"/>
    </g>
    <path id="Path_51" data-name="Path 51" d="M211,684v53h57V684Zm28,44H218V694h5v29h16Zm22-30H250v30h-5V698H235v-4h26Z" fill="#fff"/>
  </g>
</svg>
