<svg xmlns="http://www.w3.org/2000/svg" width="97" height="76.922" viewBox="0 0 97 76.922">
  <g id="Group_86" data-name="Group 86" transform="translate(-43.357 -66.45)">
    <g id="Group_84" data-name="Group 84" transform="translate(43.357 137.193)">
      <path id="Path_680" data-name="Path 680" d="M43.469,217.919a.523.523,0,0,0,.385-.16.555.555,0,0,0,.169-.385V212.58a.556.556,0,0,0-.169-.385.524.524,0,0,0-.385-.16h-.112v-.086h1.9v.086H45.14a.551.551,0,0,0-.554.546v5.158h1.238a1.475,1.475,0,0,0,.978-.286,2.11,2.11,0,0,0,.563-.848h.087l-.5,1.4H43.357v-.087Z" transform="translate(-43.357 -211.948)" fill="#fff"/>
      <path id="Path_681" data-name="Path 681" d="M58.4,218.705h.069v.087H56.7v-.087h.07a.3.3,0,0,0,.251-.112.356.356,0,0,0,.087-.212.563.563,0,0,0-.035-.195l-.476-1.151H54.4l-.476,1.125a.587.587,0,0,0-.043.212.368.368,0,0,0,.087.216.3.3,0,0,0,.26.117H54.3v.087H52.648v-.087h.07a.656.656,0,0,0,.368-.125.924.924,0,0,0,.307-.376q1.9-4.051,1.973-4.241a2.113,2.113,0,0,0,.156-.485H55.6l2.138,4.725A.752.752,0,0,0,58.4,218.705Zm-3.886-1.93h1.973l-.969-2.371Z" transform="translate(-48.131 -212.734)" fill="#fff"/>
      <path id="Path_682" data-name="Path 682" d="M71.059,217.919a.523.523,0,0,0,.385-.16.555.555,0,0,0,.169-.385V212.58a.556.556,0,0,0-.169-.385.524.524,0,0,0-.385-.16h-.112v-.086h1.9v.086H72.73a.551.551,0,0,0-.554.546v5.158h1.238a1.475,1.475,0,0,0,.978-.286,2.115,2.115,0,0,0,.563-.848h.087l-.5,1.4H70.947v-.087Z" transform="translate(-57.532 -211.948)" fill="#fff"/>
      <path id="Path_683" data-name="Path 683" d="M81.427,218.687a.49.49,0,0,0,.351-.134.456.456,0,0,0,.151-.324v-4.111a.408.408,0,0,0-.147-.32.516.516,0,0,0-.355-.13h-.121v-.087h2.527a3.317,3.317,0,0,0,.623-.052,2.054,2.054,0,0,0,.347-.087v.987l-.1-.009v-.13a.441.441,0,0,0-.121-.312.407.407,0,0,0-.311-.13h-1.8v2.2h1.48a.332.332,0,0,0,.264-.1.38.38,0,0,0,.091-.26v-.112H84.4v1.211h-.095v-.112a.33.33,0,0,0-.182-.329.609.609,0,0,0-.147-.035H82.474v2.2h1.358a1.471,1.471,0,0,0,.671-.139,1.17,1.17,0,0,0,.416-.329,2.986,2.986,0,0,0,.29-.5H85.3l-.476,1.238H81.306v-.087Z" transform="translate(-62.855 -212.716)" fill="#fff"/>
      <path id="Path_684" data-name="Path 684" d="M96.027,213.814h-.1a.868.868,0,0,0-.446.125,1.159,1.159,0,0,0-.35.316l-1.661,2.519v1.592a.437.437,0,0,0,.146.329.5.5,0,0,0,.355.138h.1v.087H92.3v-.087h.1a.5.5,0,0,0,.355-.138.438.438,0,0,0,.147-.329v-1.6l-1.6-2.518a.916.916,0,0,0-.8-.433h-.1v-.087H92.41v.087h-.1a.27.27,0,0,0-.238.1.325.325,0,0,0-.074.177.5.5,0,0,0,.017.134l1.264,2.241,1.341-2.233a.411.411,0,0,0,.026-.143.327.327,0,0,0-.073-.177.282.282,0,0,0-.247-.1h-.1v-.087h1.809Z" transform="translate(-67.528 -212.862)" fill="#fff"/>
      <path id="Path_685" data-name="Path 685" d="M103.428,218.687a.49.49,0,0,0,.351-.134.456.456,0,0,0,.151-.324v-4.111a.408.408,0,0,0-.147-.32.516.516,0,0,0-.355-.13h-.121v-.087h2.527a3.321,3.321,0,0,0,.623-.052,2.054,2.054,0,0,0,.347-.087v.987l-.1-.009v-.13a.441.441,0,0,0-.121-.312.407.407,0,0,0-.311-.13h-1.8v2.2h1.48a.332.332,0,0,0,.264-.1.38.38,0,0,0,.091-.26v-.112h.095v1.211h-.095v-.112a.33.33,0,0,0-.182-.329.609.609,0,0,0-.147-.035h-1.506v2.2h1.358a1.471,1.471,0,0,0,.671-.139,1.17,1.17,0,0,0,.416-.329,2.986,2.986,0,0,0,.29-.5h.086l-.476,1.238h-3.514v-.087Z" transform="translate(-74.159 -212.716)" fill="#fff"/>
      <path id="Path_686" data-name="Path 686" d="M119.1,213.677a.475.475,0,0,0-.329.125.427.427,0,0,0-.147.308V217.8a7.054,7.054,0,0,0,.061.952l.017.156h-.078l-4.5-4.267v3.609a.424.424,0,0,0,.138.32.478.478,0,0,0,.337.129h.147v.087h-1.636V218.7h.147a.479.479,0,0,0,.337-.129.424.424,0,0,0,.139-.32v-3.7a6.6,6.6,0,0,0-.061-.943l-.017-.138.095.008,4.492,4.232V214.11a.463.463,0,0,0-.156-.308.476.476,0,0,0-.329-.125h-.147v-.087h1.636v.087Z" transform="translate(-79.198 -212.725)" fill="#fff"/>
      <path id="Path_687" data-name="Path 687" d="M133.451,216.324a2.468,2.468,0,0,1-.749,1.9,2.859,2.859,0,0,1-2.029.7h-2.891v-.087h.112a.468.468,0,0,0,.346-.138.48.48,0,0,0,.147-.329v-4.085a.46.46,0,0,0-.152-.337.5.5,0,0,0-.35-.13h-.1v-.087h2.891a3.282,3.282,0,0,1,1.476.312,2.227,2.227,0,0,1,.965.9A2.734,2.734,0,0,1,133.451,216.324Zm-4.5-2.337v4.673h1.722a2.038,2.038,0,0,0,1.575-.627,2.807,2.807,0,0,0,0-3.419,2.04,2.04,0,0,0-1.575-.627Z" transform="translate(-86.734 -212.862)" fill="#fff"/>
      <path id="Path_688" data-name="Path 688" d="M146.174,218.705h.07v.087H144.47v-.087h.069a.3.3,0,0,0,.251-.112.355.355,0,0,0,.086-.212.563.563,0,0,0-.035-.195l-.476-1.151h-2.19l-.476,1.125a.6.6,0,0,0-.043.212.371.371,0,0,0,.087.216.3.3,0,0,0,.26.117h.07v.087h-1.654v-.087h.07a.658.658,0,0,0,.368-.125.924.924,0,0,0,.307-.376q1.895-4.051,1.973-4.241a2.123,2.123,0,0,0,.157-.485h.078l2.137,4.725A.752.752,0,0,0,146.174,218.705Zm-3.886-1.93h1.974l-.969-2.371Z" transform="translate(-93.226 -212.734)" fill="#fff"/>
      <path id="Path_689" data-name="Path 689" d="M164.3,216.324a2.468,2.468,0,0,1-.749,1.9,2.86,2.86,0,0,1-2.029.7h-2.891v-.087h.113a.471.471,0,0,0,.346-.138.487.487,0,0,0,.147-.329v-4.085a.465.465,0,0,0-.152-.337.5.5,0,0,0-.351-.13h-.1v-.087h2.891a3.281,3.281,0,0,1,1.475.312,2.23,2.23,0,0,1,.965.9A2.735,2.735,0,0,1,164.3,216.324Zm-4.5-2.337v4.673h1.723a2.038,2.038,0,0,0,1.575-.627,2.81,2.81,0,0,0,0-3.419,2.04,2.04,0,0,0-1.575-.627Z" transform="translate(-102.583 -212.862)" fill="#fff"/>
      <path id="Path_690" data-name="Path 690" d="M172.456,218.687a.491.491,0,0,0,.351-.134.46.46,0,0,0,.152-.324v-4.111a.41.41,0,0,0-.147-.32.516.516,0,0,0-.355-.13h-.121v-.087h2.527a3.319,3.319,0,0,0,.623-.052,2.044,2.044,0,0,0,.346-.087v.987l-.095-.009v-.13a.442.442,0,0,0-.122-.312.407.407,0,0,0-.312-.13h-1.8v2.2h1.48a.333.333,0,0,0,.264-.1.381.381,0,0,0,.09-.26v-.112h.1v1.211h-.1v-.112a.33.33,0,0,0-.182-.329.6.6,0,0,0-.147-.035H173.5v2.2h1.359a1.47,1.47,0,0,0,.67-.139,1.159,1.159,0,0,0,.415-.329,2.92,2.92,0,0,0,.29-.5h.087l-.476,1.238h-3.513v-.087Z" transform="translate(-109.625 -212.716)" fill="#fff"/>
      <path id="Path_691" data-name="Path 691" d="M182.442,218.833a.493.493,0,0,0,.351-.134.462.462,0,0,0,.151-.324v-4.093a.464.464,0,0,0-.16-.329.515.515,0,0,0-.359-.138h-.1v-.087h1.791v.087h-.1a.517.517,0,0,0-.36.138.431.431,0,0,0-.151.329v4.371h1.35a1.5,1.5,0,0,0,.675-.139,1.151,1.151,0,0,0,.42-.329,2.6,2.6,0,0,0,.282-.5h.087l-.476,1.238h-3.513v-.087Z" transform="translate(-114.755 -212.862)" fill="#fff"/>
      <path id="Path_692" data-name="Path 692" d="M202.639,212.034h-.078a.758.758,0,0,0-.536.234.826.826,0,0,0-.217.3l-2.086,4.665a3.174,3.174,0,0,0-.32.891h-.078l-2.432-5.548a.886.886,0,0,0-.334-.411.793.793,0,0,0-.428-.135h-.07v-.086h1.947v.086h-.078a.338.338,0,0,0-.346.243.379.379,0,0,0-.017.121.463.463,0,0,0,.043.173l1.808,4.535,1.887-4.535a.644.644,0,0,0,.035-.2.362.362,0,0,0-.091-.216.324.324,0,0,0-.273-.117H200.9v-.086h1.74Z" transform="translate(-121.815 -211.948)" fill="#fff"/>
      <path id="Path_693" data-name="Path 693" d="M210.406,218.833a.632.632,0,0,0,.407-.138.411.411,0,0,0,.173-.329v-4.085a.412.412,0,0,0-.173-.329.648.648,0,0,0-.416-.138h-.112v-.087h1.956v.087h-.112a.637.637,0,0,0-.4.13.441.441,0,0,0-.186.32v4.111a.422.422,0,0,0,.182.324.642.642,0,0,0,.407.134h.112l.009.087h-1.965v-.087Z" transform="translate(-129.123 -212.862)" fill="#fff"/>
      <path id="Path_694" data-name="Path 694" d="M222.344,213.677a.475.475,0,0,0-.329.125.429.429,0,0,0-.147.308V217.8a7.131,7.131,0,0,0,.061.952l.017.156h-.078l-4.5-4.267v3.609a.423.423,0,0,0,.139.32.477.477,0,0,0,.338.129h.147v.087h-1.636V218.7h.147a.476.476,0,0,0,.337-.129.421.421,0,0,0,.139-.32v-3.7a6.6,6.6,0,0,0-.061-.943l-.017-.138.1.008,4.492,4.232V214.11a.461.461,0,0,0-.156-.308.474.474,0,0,0-.328-.125h-.147v-.087h1.636v.087Z" transform="translate(-132.242 -212.725)" fill="#fff"/>
      <path id="Path_695" data-name="Path 695" d="M232.3,213.82a3.319,3.319,0,0,1,2.934,0,2.678,2.678,0,0,1,1.06.965,2.723,2.723,0,0,1,0,2.821,2.67,2.67,0,0,1-1.06.965,2.964,2.964,0,0,1-1.368.342,3.551,3.551,0,0,1-1.238-.2,2.858,2.858,0,0,1-.93-.554,2.543,2.543,0,0,1-.623-.865,2.907,2.907,0,0,1-.23-1.2,2.415,2.415,0,0,1,.394-1.311A2.673,2.673,0,0,1,232.3,213.82Zm-.16,4.146a2.263,2.263,0,0,0,3.25,0,2.71,2.71,0,0,0,0-3.54,2.263,2.263,0,0,0-3.25,0,2.723,2.723,0,0,0,0,3.54Z" transform="translate(-139.686 -212.734)" fill="#fff"/>
    </g>
    <path id="Path_696" data-name="Path 696" d="M74.531,80.81l.021-.094-.089.063c-4.309,3.041-7.643,1.739-9.65.383l4.369-3.125V68.659L71.345,70.9a4.273,4.273,0,0,0,3.242-.778,9.894,9.894,0,0,0,1.206-.993c.365-.341.686-.676.994-.961.053-.108-.019-.169-.141-.15a.575.575,0,0,0-.325.2c-.74.7-1.312.439-1.884-.061-.291-.253-.575-.558-.861-.831a2.582,2.582,0,0,0-.95-.613,4.5,4.5,0,0,0-3.984.945c-.6.409-1.18.885-1.753,1.332a10.471,10.471,0,0,1-1.728,1.166V80.12l-.832.768a8.874,8.874,0,0,1-2.845-5.463c-.691-4.247,3.586-7.168,7.234-8.912l.138-.064H68.7a11.152,11.152,0,0,0-9.339,4.623c-1.739,2.519-1.771,6.563-.628,9.15,1.8,4.1,6.917,6.058,11.339,4.689,2.045-.69,4.05-2.125,4.463-4.1" transform="translate(-7.497)" fill="#fff"/>
    <path id="Path_697" data-name="Path 697" d="M89.921,141.349c-1.336-.606-4.548-.708-7.536.259a5.8,5.8,0,0,1-4.142,0,1.122,1.122,0,0,0,.07.369s.388,2.134,3.451,2.079a10.248,10.248,0,0,0,1.375-.219c4.339-.753,6.36-.737,6.214,6.86-.131,6.45-1.9,7.617-1.9,7.617-.225-.334-.136-2.515-4.05-2.777a4.915,4.915,0,0,0-2.657.732c1.468-.957,2.768-2.069,2.753-2.991,0-.019,0-8.386-.007-8.375s-4.557,2.62-4.557,2.62l.018.6s.771-.429.739-.4l.033,7.081c-.056,1.168-1.15,2.268-1.992,2.948-.28.193-.633.433-1.079.751,7.5-1.549,9.986.831,10.279,1.118,0,.046,0,.077,0,.077s5.3-2.452,5.242-2.452c.394-.169,1.687-2.191,1.694-7.32,0-3.738-.353-6.955-3.947-8.577" transform="translate(-17.107 -38.245)" fill="#fff"/>
    <g id="Group_85" data-name="Group 85" transform="translate(67.911 68.135)">
      <path id="Path_698" data-name="Path 698" d="M149.9,73.377V84.571a2.931,2.931,0,0,0,1.953,2.566l1.981-2.01c-.931-.443-.842-.846-.842-1.2V72.875a2.64,2.64,0,0,0-1.641-2.3,11.452,11.452,0,0,1-2.236,1.775s.785.559.785,1.028" transform="translate(-122.246 -70.254)" fill="#fff"/>
      <path id="Path_699" data-name="Path 699" d="M163.827,73.6V84.8a2.931,2.931,0,0,0,1.95,2.566l1.984-2.012c-.937-.442-.839-.844-.839-1.2V73.1a2.643,2.643,0,0,0-1.652-2.3,11.361,11.361,0,0,1-2.232,1.772s.788.56.788,1.031" transform="translate(-129.402 -70.37)" fill="#fff"/>
      <path id="Path_700" data-name="Path 700" d="M122.976,89.282l.405-2.828a3.5,3.5,0,0,0-2.5-3.9l-1.9,1.772s-1.011-.027-.9-1.833l.147-2.217,2.274,1.29,1.291-1.9s-1.631-1.031-2.418-1.624a10.229,10.229,0,0,1-3.6,2.108l-.276,3.373a2.817,2.817,0,0,0,2.647,2.52l1.915-1.615s.672.238.828,1.79a7.325,7.325,0,0,1-.626,2.552c-1.711-1.116-2.452-2.485-4.147-1.46l-.522,2.211c2.062-.46,2.318.317,3.766,1.481.507-1.012,2.373-1.7,3.615-1.725" transform="translate(-104.977 -74.092)" fill="#fff"/>
      <path id="Path_701" data-name="Path 701" d="M182.579,90.291A7.878,7.878,0,0,1,180.593,89a2.2,2.2,0,0,1-.215-.964s5.807-2.253,3.9-4.825c.033-.042-2.192-3.12-2.192-3.12l-4.262,2.215-.029,6.42c.005,2.307,3.843,3.451,3.843,3.451L185,89.785c-1.078-1.331-1.9.821-2.418.507m-2.1-3.29.014-5.164s2.159,2.962,2.135,3.46c-.035.8-2.149,1.7-2.149,1.7" transform="translate(-136.982 -75.144)" fill="#fff"/>
      <path id="Path_702" data-name="Path 702" d="M199.357,81.534l-1.994-1.8-2.338,2.308s.971.338.971,1.135V89.23a2.85,2.85,0,0,0,1.921,2.573l1.734-1.736a1.3,1.3,0,0,1-.854-1.152V83.351a.9.9,0,0,1,.874-1.009l1.2,1.558,2.17-2.184L201.164,79.7Z" transform="translate(-145.836 -74.94)" fill="#fff"/>
      <path id="Path_703" data-name="Path 703" d="M136.456,82.992v6.434a2.943,2.943,0,0,0,1.926,2.568l1.957-2.009c-.923-.44-.851-.853-.851-1.211V82.495a2.63,2.63,0,0,0-1.6-2.3,11.45,11.45,0,0,1-2.206,1.772s.776.565.776,1.028" transform="translate(-115.345 -75.195)" fill="#fff"/>
      <path id="Path_704" data-name="Path 704" d="M216.514,79.928l-3.5,1.9v6.786c-.044,2.441,3.542,3.272,3.542,3.272l3.777-1.823V81.835a9.588,9.588,0,0,1-3.822-1.907M215.5,81.945a3.9,3.9,0,0,0,2.075.975v6.943s-2.085-.267-2.083-1.586Z" transform="translate(-155.08 -75.06)" fill="#fff"/>
      <path id="Path_705" data-name="Path 705" d="M156,115.851v7.829a2.092,2.092,0,0,0,1.4,1.794l1.425-1.406c-.671-.308-.623-.594-.623-.847V115.5a1.854,1.854,0,0,0-1.161-1.61,8.3,8.3,0,0,1-1.6,1.242s.564.393.564.719" transform="translate(-125.493 -92.509)" fill="#fff"/>
      <path id="Path_706" data-name="Path 706" d="M145.923,128.8l2.352-1.674c-.755-.93-1.33.571-1.692.355a5.544,5.544,0,0,1-1.384-.9,1.507,1.507,0,0,1-.155-.676s4.058-1.572,2.722-3.37c.023-.028-1.53-2.176-1.53-2.176l-2.975,1.547-.018,4.483c0,1.613,2.679,2.413,2.679,2.413m-.807-3.617.01-3.607A13.606,13.606,0,0,1,146.617,124c-.025.56-1.5,1.19-1.5,1.19" transform="translate(-119.232 -95.834)" fill="#fff"/>
      <path id="Path_707" data-name="Path 707" d="M130.665,124.422c0,.864,1.391,1.18,1.391,1.18l1.353-1.375c-.673-.048-.668-.51-.673-.76l0-7.722a1.851,1.851,0,0,0-1.116-1.61,8.176,8.176,0,0,1-1.54,1.241s.545.394.545.72v1.541l-.781-.347-2.612,1.37v4.647c0,2.18,2.334,2.294,2.334,2.294Zm-.04-.241a1.374,1.374,0,0,1-1.451-1.392v-4.076l1.451.615Z" transform="translate(-111.002 -92.635)" fill="#fff"/>
      <path id="Path_708" data-name="Path 708" d="M120.021,163.173v-6.281a2.634,2.634,0,0,0-1.6-2.3,11.288,11.288,0,0,1-2.206,1.775s.775.563.775,1.028v6.434a2.947,2.947,0,0,0,1.924,2.566l1.959-2.009c-.921-.445-.852-.852-.852-1.21" transform="translate(-105.344 -113.42)" fill="#fff"/>
      <path id="Path_709" data-name="Path 709" d="M179.183,158.029v-11.26a2.683,2.683,0,0,0-1.653-2.349,11.858,11.858,0,0,1-2.282,1.813s.8.567.8,1.046V158.7a2.983,2.983,0,0,0,1.991,2.619l2.025-2.048c-.955-.455-.884-.867-.884-1.237" transform="translate(-135.675 -108.195)" fill="#fff"/>
      <path id="Path_710" data-name="Path 710" d="M139.107,162.841V157.6c0-2.444-2.917-3.661-3.668-4.013l-3.6,1.94.4.871c.578-.359,2.192-1.328,2.5-1.1l1.325.9a1.153,1.153,0,0,1,.417,1.061l.053,1.109-1.653-.782-3.986,2.319.025,3.734c0,1.651,2.467,2.621,3.974,2.219a12.573,12.573,0,0,0,1.563-1.38c.2.893,1.505,1.542,1.505,1.542l1.681-2.005c-.762-.426-.532-.827-.532-1.17m-2.713,1.267s-3.221.588-2.99-2.042v-2.794l2.975,1.436Z" transform="translate(-112.885 -112.905)" fill="#fff"/>
      <path id="Path_711" data-name="Path 711" d="M159.062,148.266l-2.9,2.643v-4.862a2.656,2.656,0,0,0-1.587-2.335,10.37,10.37,0,0,1-1.932,1.8s.681.572.681,1.046v11.387a2.915,2.915,0,0,0,1.687,2.61,7.432,7.432,0,0,0,2.177.4,13.458,13.458,0,0,1,4.143-2.2v-7.327c0-1.312-1.216-2.448-2.269-3.169m-2.9,3.653,1.728-1.644a2.179,2.179,0,0,1,.71,1.339v7.148s-2.437-.057-2.437-1.413Z" transform="translate(-124.061 -107.831)" fill="#fff"/>
      <path id="Path_712" data-name="Path 712" d="M190.145,156.381v6.786c-.044,2.44,3.542,3.268,3.542,3.268l3.776-1.824v-8.226a9.488,9.488,0,0,1-3.824-1.911Zm2.476.113a3.947,3.947,0,0,0,2.071.98v6.939s-2.079-.268-2.078-1.586Z" transform="translate(-143.328 -113.361)" fill="#fff"/>
      <path id="Path_713" data-name="Path 713" d="M95.119,81.742c.574-.361,2.05-1.267,2.359-1.043l1.343.943a1.141,1.141,0,0,1,.421,1.059l.054,1.11-1.652-.782L93.857,85.22l.026,3.818c0,1.649,2.264,2.665,3.773,2.26a12.053,12.053,0,0,0,1.564-1.381c.2.9,1.5,1.547,1.5,1.547l1.683-2.007c-.761-.427-.533-.826-.533-1.167V83.047c0-2.443-2.918-3.662-3.671-4.012l-3.475,1.856Zm4.042,7.811s-3.223.591-2.99-2.039V84.721l2.976,1.436Z" transform="translate(-93.857 -74.601)" fill="#fff"/>
      <path id="Path_714" data-name="Path 714" d="M140.036,71.819a6.68,6.68,0,0,1-2.029-1.9,7.924,7.924,0,0,1-1.976,1.852l2.03,1.872Z" transform="translate(-115.525 -69.915)" fill="#fff"/>
      <path id="Path_715" data-name="Path 715" d="M120.525,146.318a6.691,6.691,0,0,1-2.029-1.9,7.941,7.941,0,0,1-1.975,1.853l2.03,1.872Z" transform="translate(-105.501 -108.192)" fill="#fff"/>
    </g>
  </g>
</svg>
