<svg xmlns="http://www.w3.org/2000/svg" xmlns:xlink="http://www.w3.org/1999/xlink" width="198.205" height="131.823" viewBox="0 0 198.205 131.823">
  <defs>
    <clipPath id="clip-path">
      <rect id="Rectangle_65" data-name="Rectangle 65" width="198.205" height="131.823" fill="#fff"/>
    </clipPath>
  </defs>
  <g id="Group_132" data-name="Group 132" transform="translate(0 0)">
    <g id="Group_131" data-name="Group 131" transform="translate(0 0)" clip-path="url(#clip-path)">
      <path id="Path_605" data-name="Path 605" d="M3.944.45c2.212,0,3.642,1.37,3.642,3.281S6.156,7.013,3.944,7.013H1.325v3.973H0V.45ZM3.883,5.839c1.6,0,2.378-.8,2.378-2.108S5.479,1.624,3.883,1.624H1.325V5.839Z" transform="translate(0 -0.33)" fill="#fff"/>
      <path id="Path_606" data-name="Path 606" d="M109.707,10.986l-2.755-4.095h-2.3v4.095h-1.325V.45h4.094a3.252,3.252,0,0,1,3.552,3.221,3.069,3.069,0,0,1-2.558,3.071l2.844,4.244ZM104.65,1.624V5.719h2.709c1.5,0,2.288-.8,2.288-2.048s-.783-2.047-2.288-2.047Z" transform="translate(-75.765 -0.33)" fill="#fff"/>
      <path id="Path_607" data-name="Path 607" d="M209.613,9.828h5.72v1.159h-7.045V.451h6.939V1.61h-5.614V5.027h4.7V6.185h-4.7Z" transform="translate(-152.731 -0.331)" fill="#fff"/>
      <path id="Path_608" data-name="Path 608" d="M319.839.451h1.64V10.987H320.2V2.528l-3.612,8.459h-1.129L311.876,2.6v8.384H310.6V.451h1.656l3.793,8.866Z" transform="translate(-227.751 -0.33)" fill="#fff"/>
      <rect id="Rectangle_64" data-name="Rectangle 64" width="1.325" height="10.536" transform="translate(114.412 0.12)" fill="#fff"/>
      <path id="Path_609" data-name="Path 609" d="M509.286,5.389a5.233,5.233,0,1,1,10.461,0,5.233,5.233,0,1,1-10.461,0m9.106,0a3.9,3.9,0,1,0-7.767,0,3.9,3.9,0,1,0,7.767,0" transform="translate(-373.443)" fill="#fff"/>
      <path id="Path_610" data-name="Path 610" d="M622.039,7.36h1.34a2.529,2.529,0,0,0,2.83,2.243c1.61,0,2.483-.842,2.483-1.882,0-.887-.587-1.474-2.318-1.791l-1.31-.256c-1.912-.347-2.844-1.249-2.844-2.65C622.22,1.309,623.7,0,625.982,0c2.243,0,3.733,1.249,3.9,3.115h-1.34c-.181-1.249-1.114-1.941-2.6-1.941s-2.378.738-2.378,1.776c0,.827.556,1.34,2.212,1.641l1.309.24c1.987.361,2.95,1.34,2.95,2.8,0,1.807-1.52,3.146-3.9,3.146-2.394,0-4-1.369-4.094-3.417" transform="translate(-456.121)" fill="#fff"/>
      <path id="Path_611" data-name="Path 611" d="M653.286,274.416c-3.934-.971-9.442-1.3-12.68-3.821l-7.391-5.752a10.03,10.03,0,0,0-9.036-2.114c-1.694-1.154-4.08,3.264-3.428,3.605-.674,3.771,1.329,7.08,4.143,9.272l7.383,5.688c3.442,2.622,4.833,7.661,6.819,11.353,0,0,2.075-5.28,1.285-9.058,4.06,1.972,6.9.791,6.9.791s.448-3.042-2.525-6.486c3.857-.163,8.529-3.479,8.529-3.479" transform="translate(-455.081 -192.388)" fill="#fff"/>
      <path id="Path_612" data-name="Path 612" d="M.034,105.026a15.963,15.963,0,0,1,16.18-16.4c9.417,0,13.573,6.056,14.59,10.566l-6.587,2.077c-.487-2.166-2.477-5.835-8-5.835-4.2,0-8.931,3.006-8.931,9.593A8.87,8.87,0,0,0,16.3,114.31c5.438,0,7.6-3.625,8.224-5.88l6.675,1.9c-1.017,4.333-5.172,10.963-14.9,10.963-9.019,0-16.269-6.5-16.269-16.27" transform="translate(-0.025 -64.985)" fill="#fff"/>
      <path id="Path_613" data-name="Path 613" d="M147.837,135.39a11.671,11.671,0,1,1-11.672-11.627,11.363,11.363,0,0,1,11.672,11.627m-6.72,0c0-3.713-2.387-5.438-4.951-5.438-2.52,0-4.951,1.725-4.951,5.438,0,3.67,2.431,5.483,4.951,5.483,2.565,0,4.951-1.769,4.951-5.483" transform="translate(-91.288 -90.751)" fill="#fff"/>
      <path id="Path_614" data-name="Path 614" d="M228.235,155.162V124.79h6.5v2.254c.928-1.414,3.315-2.785,6.454-2.785,6.367,0,10.213,4.863,10.213,11.451,0,6.719-4.332,11.539-10.478,11.539-2.83,0-4.951-.973-5.967-2.21v10.124Zm11.583-24.847c-2.608,0-4.951,1.769-4.951,5.438,0,3.626,2.344,5.483,4.951,5.483,2.653,0,5-1.813,5-5.483s-2.342-5.438-5-5.438" transform="translate(-167.357 -91.115)" fill="#fff"/>
      <path id="Path_615" data-name="Path 615" d="M333.049,86.3a3.935,3.935,0,1,1-3.89,3.935,3.954,3.954,0,0,1,3.89-3.935m-3.316,10.655h6.721V118.93h-6.721Z" transform="translate(-241.362 -63.282)" fill="#fff"/>
      <path id="Path_616" data-name="Path 616" d="M385.261,120.632H378.54V88.624h6.721v11.45a8.246,8.246,0,0,1,5.614-1.989c5.747,0,8.312,3.934,8.312,8.754v13.793h-6.721V107.988c0-2.166-1.149-3.8-3.581-3.8a3.538,3.538,0,0,0-3.624,3.538Z" transform="translate(-277.571 -64.985)" fill="#fff"/>
      <path id="Path_617" data-name="Path 617" d="M490.387,146.01c-1.15,1.9-3.669,2.7-5.879,2.7-5.349,0-8.356-3.891-8.356-8.577V126.249h6.721v12.467c0,2.122,1.147,3.8,3.535,3.8a3.5,3.5,0,0,0,3.669-3.758V126.249H496.8v18.037a34.7,34.7,0,0,0,.221,3.935h-6.455a16.194,16.194,0,0,1-.177-2.211" transform="translate(-349.146 -92.574)" fill="#fff"/>
      <path id="Path_618" data-name="Path 618" d="M591.2,140.076c-1.063,3.8-4.555,6.985-10.125,6.985-6.057,0-11.451-4.332-11.451-11.715,0-7.073,5.261-11.583,10.964-11.583,6.808,0,11.01,4.2,11.01,11.273a14.153,14.153,0,0,1-.133,2.078h-15.3a4.755,4.755,0,0,0,5,4.243,4.242,4.242,0,0,0,4.421-2.873Zm-6.1-7.294c-.089-1.68-1.238-3.714-4.422-3.714a4.185,4.185,0,0,0-4.377,3.714Z" transform="translate(-417.686 -90.751)" fill="#fff"/>
      <path id="Path_619" data-name="Path 619" d="M125.473,277.044c0,1.486.1,2.575.132,2.939h-4.82a11.255,11.255,0,0,1-.132-1.586,5.294,5.294,0,0,1-4.391,1.949c-4.624,0-8.122-3.567-8.122-8.618,0-4.886,3.3-8.551,7.957-8.551,2.805,0,4.028,1.056,4.424,1.683V256.08h4.951Zm-8.583-1.188c1.948,0,3.7-1.386,3.7-4.095,0-2.74-1.75-4.06-3.7-4.06s-3.7,1.32-3.7,4.06c0,2.708,1.75,4.095,3.7,4.095" transform="translate(-79.296 -187.775)" fill="#fff"/>
      <path id="Path_620" data-name="Path 620" d="M201.725,294.5c-.792,2.839-3.4,5.217-7.56,5.217a8.708,8.708,0,0,1-.364-17.4c5.085,0,8.221,3.137,8.221,8.419a10.556,10.556,0,0,1-.1,1.552H190.5a3.55,3.55,0,0,0,3.731,3.169,3.167,3.167,0,0,0,3.3-2.146Zm-4.556-5.447c-.066-1.254-.924-2.773-3.3-2.773a3.125,3.125,0,0,0-3.269,2.773Z" transform="translate(-136.105 -207.014)" fill="#fff"/>
      <path id="Path_621" data-name="Path 621" d="M293.459,257.853c10.353,0,19.146,7.544,19.146,19.251,0,11.654-8.793,19.2-19.146,19.2-10.407,0-19.2-7.544-19.2-19.2,0-11.707,8.791-19.251,19.2-19.251m0,30.332c5.1,0,10.613-3.434,10.613-11.134s-5.514-11.185-10.613-11.185c-5.151,0-10.667,3.485-10.667,11.185s5.516,11.134,10.667,11.134" transform="translate(-201.107 -189.075)" fill="#fff"/>
      <path id="Path_622" data-name="Path 622" d="M454.523,309.221a10.728,10.728,0,0,0-2.5-.26c-3.175,0-6.035,1.872-6.035,7.024v11.29h-7.908V301.417h7.648V304.9c1.353-2.915,4.63-3.747,6.712-3.747a7.819,7.819,0,0,1,2.081.26Z" transform="translate(-321.232 -220.829)" fill="#fff"/>
      <path id="Path_623" data-name="Path 623" d="M536.931,312.892A13.735,13.735,0,1,1,523.2,299.209a13.372,13.372,0,0,1,13.735,13.683m-7.908,0c0-4.371-2.81-6.4-5.826-6.4-2.966,0-5.828,2.03-5.828,6.4,0,4.318,2.862,6.451,5.828,6.451,3.017,0,5.826-2.081,5.826-6.451" transform="translate(-373.571 -219.4)" fill="#fff"/>
      <path id="Path_624" data-name="Path 624" d="M416.92,254.028,415,250.57c9.584-5.334,18.178-7.871,27.866-8.232,18.128-.669,29.535,5.252,30.011,5.5l-1.85,3.5c-.106-.055-11.022-5.678-28.015-5.047-9.031.335-17.077,2.721-26.088,7.735" transform="translate(-304.303 -177.66)" fill="#fff"/>
      <path id="Path_625" data-name="Path 625" d="M95.132,360.829c-24.113,0-31.837-17.6-32.154-18.352l3.641-1.546c.28.651,7.1,15.942,28.513,15.942,7.012,0,14.323-2.339,22.351-7.151l2.034,3.394c-8.66,5.19-16.636,7.713-24.385,7.713" transform="translate(-46.18 -249.993)" fill="#fff"/>
      <path id="Path_626" data-name="Path 626" d="M375.074,438.025h5.919v7.943c0,5.167-2.641,7.037-7.5,7.037-4.82,0-7.384-1.87-7.384-7.037v-7.943h5.919v10.218c0,1.272.4,2.333,1.5,2.333s1.542-1.06,1.542-2.333Z" transform="translate(-268.456 -321.19)" fill="#fff"/>
      <path id="Path_627" data-name="Path 627" d="M432.141,452.484l-.636-2.6h-4.55l-.733,2.6h-3.74l4.9-14.459h6.844l4.531,14.459Zm-2.564-10.469h-.347l-1.735,6.034h3.567Z" transform="translate(-309.793 -321.19)" fill="#fff"/>
      <path id="Path_628" data-name="Path 628" d="M548.04,452.484V440.261h-3.278v-2.236h12.474v2.236h-3.278v12.223Z" transform="translate(-399.457 -321.19)" fill="#fff"/>
      <path id="Path_629" data-name="Path 629" d="M594.888,452.484l-.636-2.6H589.7l-.733,2.6h-3.74l4.9-14.459h6.844l4.531,14.459Zm-2.564-10.469h-.347l-1.735,6.034h3.567Z" transform="translate(-429.13 -321.19)" fill="#fff"/>
      <path id="Path_630" data-name="Path 630" d="M310.606,438.346c.887,0,1.581,1.735,1.677,4.222l5.688-.135v-6.322l-5.687.135v2.488h-.242a2.89,2.89,0,0,0-3.1-2.625c-3.369,0-6.429,2.8-6.429,7.731,0,4.974,3.123,7.75,7.885,7.75,4.665,0,7.48-2.989,7.577-6.247h-5.687c-.058,2.545-.752,3.991-1.677,3.991-1,0-1.87-1.311-1.87-5.495,0-4.261.867-5.495,1.87-5.495" transform="translate(-221.819 -319.785)" fill="#fff"/>
      <path id="Path_631" data-name="Path 631" d="M502.456,445.916c0,.559-.637,1.138-2.159,1.138H498.5a1.535,1.535,0,0,1-1.5-.759c3.981-.526,5.438-2.4,5.438-4.538,0-3.181-3.046-3.76-5.495-3.76H487.6v14.459h5.919v-6.015h1.06c.27,0,.531,0,.785-.014.086.723.213,1.59.4,2.554.541,2.767,1.061,4.01,3.51,4.01h.462c2.41,0,3.2-1.041,3.2-2.622v-4.454Zm-7.973-1.075h-.964v-4.588h.964c1.041,0,1.986.347,1.986,2.217,0,1.851-.945,2.371-1.986,2.371" transform="translate(-357.542 -321.169)" fill="#fff"/>
      <path id="Path_632" data-name="Path 632" d="M239.014,444.422c0-.551.583-.775,1.2-.775.275,0,.332-.132.376-.345.269-1.28.534-2.56.821-3.836a4.508,4.508,0,0,1,1.341-2.493,3.259,3.259,0,0,1,3.1-.736,2.1,2.1,0,0,1,1.512,2.654,3.531,3.531,0,0,1-1.672,2.2.585.585,0,0,1-.84-.1.6.6,0,0,1,.065-.854,3.031,3.031,0,0,0,.963-1.205,1.009,1.009,0,0,0-.308-1.187,1.5,1.5,0,0,0-1.56-.07,2.194,2.194,0,0,0-.891,1.114,31.349,31.349,0,0,0-1.178,4.847l3.166,0a.5.5,0,0,0,.527-.291.778.778,0,0,1,.772-.494c.516,0,.678.248.569.754a1.531,1.531,0,0,1-1.664,1.4c-1.907.042-3.694.017-5.6.02a.625.625,0,0,1-.7-.617" transform="translate(-175.261 -319.79)" fill="#fff"/>
      <path id="Path_633" data-name="Path 633" d="M276.023,448.111a.884.884,0,0,1,.673-.234.544.544,0,0,1,.51.678c-.236,1.232-.5,2.457-.768,3.71a3.075,3.075,0,0,1,.524-.122.468.468,0,0,1,.5.608,1.535,1.535,0,0,1-2.019.849,2.8,2.8,0,0,1-.486-.539l-.284.192a2.534,2.534,0,0,1-2.022.432,1.376,1.376,0,0,1-1.137-1.191c-.3-1.831,1.209-4.423,3.261-4.639a1.9,1.9,0,0,1,1.244.255m-.549,2.114c.018-.964-.548-1.322-1.254-.892a2.737,2.737,0,0,0-1.3,2.271c-.041.581.287.853.866.765a1.4,1.4,0,0,0,.548-.212,2.58,2.58,0,0,0,1.14-1.932" transform="translate(-199.067 -328.39)" fill="#fff"/>
    </g>
  </g>
</svg>
