<svg xmlns="http://www.w3.org/2000/svg" viewBox="0 0 870.65 175.7"><title>cambio-white</title><g id="b7da821b-d5ee-4f1c-968b-6130d28e014e" data-name="Layer 2"><g id="a06d8509-6012-4f25-8182-61860e3010cf" data-name="Capa 1"><path d="M55.15,154.54h2.92l-3.44,14.91a46.29,46.29,0,0,1-23,6.25C12.93,175.7,0,162.26,0,143.18a42.15,42.15,0,0,1,42.12-42.53,37.56,37.56,0,0,1,21.37,6.25l-1.15,14.91H59.42C58.59,112.84,54,105,41.49,105c-15.43,0-29,14.91-29,39.93,0,16.79,8.13,26.38,19.7,26.38C46,171.33,51.92,162.88,55.15,154.54Z" fill="#fff"/><path d="M111.55,166.11c-.42,2,.73,3,2.5,3a12.15,12.15,0,0,0,5.73-2l.11,2.6c-4.28,2.92-9.91,5.94-14.7,5.94-5,0-6.15-3.12-5.53-6.67l1.57-7.4h-.52c-5.22,10.53-12.1,14.07-18.35,14.07-11,0-17.2-8.75-17.2-21.68,0-20,14.17-32.53,29.29-32.53a33.22,33.22,0,0,1,17,4.28l4.38-3.75h1.88Zm-7.93-25.64,1.46-10.74a16.1,16.1,0,0,0-10-4.17c-11.16,0-17.62,11.78-17.62,27.84,0,10.94,4.38,15.63,10.11,15.63C93.1,169,100.81,161.63,103.62,140.47Z" fill="#fff"/><path d="M199.64,138c.73-5.11-.73-8.34-5.73-8.34-7.41,0-14.81,11.46-17.21,25.43L174,174.66H162.42L167.53,138c.73-5.11-.73-8.34-5.73-8.34-7.72,0-15.43,12.4-17.41,27.1l-2.5,17.93H130.31l6.26-44.41c.52-4.27-.21-4.48-7.4-5l.41-2.71,18.35-1.05h1.46l-3.23,18.87h.52c5.63-12.61,13.34-18.87,21.58-18.87,7.3,0,12.51,4.91,11.16,14.81l-.42,2.4h.52c5.42-11,12.3-17.21,20.54-17.21,7.29,0,12.92,4.17,11.36,15.64l-4.07,29c-.41,2,.73,3,2.51,3a12.19,12.19,0,0,0,5.73-2l.1,2.6c-4.27,2.92-9.9,5.94-14.7,5.94-5,0-6.25-3-5.73-6.67Z" fill="#fff"/><path d="M243,135.57c5.21-10.53,12.09-14.08,18.35-14.08,11.15,0,17.3,8.76,17.3,21.69,0,20-14.28,32.52-29.29,32.52-4.59,0-12.83-.73-22.31-7.5l8.55-60.88c.52-4.28-.32-4.49-7.4-5l.31-2.71,18.45-1h1.46l-5.94,37Zm-2.82,21.16-1.35,10.74a15.57,15.57,0,0,0,9.9,4.17c11.05,0,17.62-11.78,17.62-27.84,0-10.94-4.38-15.63-10.11-15.63S242.7,135.57,240.19,156.73Z" fill="#fff"/><path d="M295.24,130.25c.52-4.27-.21-4.48-7.4-5l.41-2.71,18.35-1.05h1.46l-6.25,44.62c-.42,2,.73,3,2.5,3a12.15,12.15,0,0,0,5.73-2l.11,2.6c-4.28,2.92-9.91,5.94-14.7,5.94-5,0-6.26-3-5.74-6.67Zm9.38-27.94c3.86,0,6.67,2.3,6.67,6,0,4.79-4,7.61-8.55,7.61-4,0-6.77-2.19-6.77-5.84C296,105.34,299.93,102.31,304.62,102.31Z" fill="#fff"/><path d="M316.51,152.35c0-16.78,12.51-30.86,29.6-30.86,13.76,0,22,10.22,22,23.36,0,16.78-12.51,30.85-29.61,30.85C324.64,175.7,316.51,165.49,316.51,152.35Zm12,3.34c0,10.42,3.86,15.95,10.53,15.95,9.39,0,17.1-9,17.1-30.13,0-10.42-3.86-15.95-10.63-15.95C336.1,125.56,328.49,134.53,328.49,155.69Z" fill="#fff"/><path d="M441.4,107.32c.52-4.28-.32-4.49-7.41-5l.42-2.71,18.35-1h1.46l-9.49,67.55c-.41,2,.73,3,2.5,3a12.19,12.19,0,0,0,5.74-2l.1,2.6c-4.27,2.92-9.9,5.94-14.7,5.94-5,0-6.15-3.12-5.52-6.67l1.56-7.4h-.52c-5.21,10.53-12.09,14.07-18.35,14.07-11.05,0-17.2-8.75-17.2-21.68,0-20,14.18-32.53,29.3-32.53a27.38,27.38,0,0,1,11.46,2.19Zm-4.59,33.15,1.46-10.74a16.13,16.13,0,0,0-10-4.17c-11.15,0-17.62,11.78-17.62,27.84,0,10.94,4.38,15.63,10.11,15.63C426.28,169,434,161.63,436.81,140.47Z" fill="#fff"/><path d="M506.55,133.59c0,4.06-1.46,15.95-35.34,18.14.52,10.94,7.2,16.36,16,16.36a27,27,0,0,0,13.56-3.64l.93,2.81c-2.19,1.88-9.27,8.44-20.53,8.44-14.7,0-21.79-10.52-21.79-22.72,0-20,15.95-31.49,31.59-31.49C500,121.49,506.55,125.66,506.55,133.59Zm-35.23,13.65c24.08-2.5,24.7-12.19,24.7-14.9,0-4.69-3.12-6.78-7.29-6.78C479.87,125.56,472.26,133.38,471.32,147.24Z" fill="#fff"/><path d="M608.82,138c.73-5.11-.73-8.34-5.73-8.34-7.4,0-14.8,11.46-17.2,25.43l-2.71,19.6H571.61l5.1-36.69c.73-5.11-.73-8.34-5.73-8.34-7.71,0-15.43,12.4-17.41,27.1l-2.5,17.93H539.5l6.25-44.41c.52-4.27-.21-4.48-7.4-5l.42-2.71,18.35-1.05h1.45l-3.23,18.87h.52c5.63-12.61,13.35-18.87,21.58-18.87,7.3,0,12.51,4.91,11.16,14.81l-.42,2.4h.52c5.42-11,12.3-17.21,20.54-17.21,7.3,0,12.93,4.17,11.36,15.64l-4.06,29c-.42,2,.73,3,2.5,3a12.15,12.15,0,0,0,5.73-2l.11,2.6c-4.28,2.92-9.91,5.94-14.7,5.94-5,0-6.26-3-5.74-6.67Z" fill="#fff"/><path d="M677.63,166.11c-.42,2,.73,3,2.5,3a12.15,12.15,0,0,0,5.73-2l.11,2.6c-4.28,2.92-9.91,5.94-14.7,5.94-5,0-6.15-3.12-5.53-6.67l1.57-7.4h-.52c-5.22,10.53-12.1,14.07-18.35,14.07-11.05,0-17.2-8.75-17.2-21.68,0-20,14.18-32.53,29.29-32.53a33.22,33.22,0,0,1,17,4.28L681.9,122h1.88Zm-7.92-25.64,1.46-10.74a16.13,16.13,0,0,0-10-4.17c-11.16,0-17.62,11.78-17.62,27.84,0,10.94,4.38,15.63,10.11,15.63C659.18,169,666.89,161.63,669.71,140.47Z" fill="#fff"/><path d="M734.65,138c.73-5.11-1.25-8.34-6.25-8.34-7.72,0-15.95,12.4-17.93,27.1L708,174.66H696.39l6.26-44.41c.62-4.27-.21-4.48-7.4-5l.42-2.71L714,121.49h1.46l-3.23,18.87h.52c5.63-12.61,14.07-18.87,22.31-18.87,7.3,0,12.93,4.17,11.36,15.64l-4.06,29c-.42,2,.73,3,2.5,3a12.15,12.15,0,0,0,5.73-2l.11,2.6c-4.28,2.92-9.91,5.94-14.7,5.94-5,0-6.26-3-5.73-6.67Z" fill="#fff"/><path d="M800.12,107.32c.52-4.28-.31-4.49-7.4-5l.42-2.71,18.35-1H813l-9.49,67.55c-.42,2,.73,3,2.5,3a12.15,12.15,0,0,0,5.73-2l.11,2.6c-4.28,2.92-9.91,5.94-14.7,5.94-5,0-6.15-3.12-5.53-6.67l1.57-7.4h-.52c-5.22,10.53-12.1,14.07-18.35,14.07-11,0-17.2-8.75-17.2-21.68,0-20,14.18-32.53,29.29-32.53a27.44,27.44,0,0,1,11.47,2.19Zm-4.58,33.15L797,129.73a16.13,16.13,0,0,0-10-4.17c-11.16,0-17.62,11.78-17.62,27.84,0,10.94,4.38,15.63,10.11,15.63C785,169,792.72,161.63,795.54,140.47Z" fill="#fff"/><path d="M818.16,152.35c0-16.78,12.51-30.86,29.61-30.86,13.76,0,22,10.22,22,23.36,0,16.78-12.51,30.85-29.6,30.85C826.29,175.7,818.16,165.49,818.16,152.35Zm12,3.34c0,10.42,3.85,15.95,10.53,15.95,9.38,0,17.09-9,17.09-30.13,0-10.42-3.85-15.95-10.63-15.95C837.76,125.56,830.15,134.53,830.15,155.69Z" fill="#fff"/><rect x="369.4" y="63.07" width="501.25" height="3.67" fill="#1f437c"/><rect x="369.4" y="59.41" width="501.25" height="3.67" fill="#fff"/><rect x="369.4" y="55.74" width="501.25" height="3.67" fill="#aa272f"/><path d="M2.37,20.18,6.11,20l.51,7.43H26l.35-7.17H30l.35,7.14h19.5c.16-2.23.33-4.47.52-7.08l3.3-.16.46,7.23H73.54L74,20.24h3.7l.47,7.12H97.23c.14-2.07.31-4.32.49-6.92l3.61-.58.36,7.54c6.47.45,12.84.08,19.48.23.12-2.58.22-4.86.34-7.36h3.67l.36,7.05h17.69V.22l4-.22V7.72h19.68c.16-2.25.33-4.65.53-7.4L171,0l.34,7.74h23.23c.11-2.39.22-4.66.35-7.35l3.8-.31.36,7.59h19.17c.14-2.32.29-4.73.45-7.45l3.8-.18V27.35h17.74c.13-2.08.27-4.33.44-6.94l3.63-.51c.12,2.47.23,4.72.37,7.62,6.48.19,12.85.08,19.46.05.12-2.55.23-4.83.36-7.32h3.65c.12,2.28.24,4.55.37,7.08H288c.11-2.36.21-4.48.32-6.94l3.55-.43c.22,2.59.42,5,.63,7.5h19.54V20.29H316c.13,2.29.27,4.55.41,7.06h19.17c.15-2.43.29-4.68.43-7.13h3.71c.16,2.43.3,4.69.45,7.15h19.11c.13-2.1.26-4.35.42-7l3.46-.45V83.12H190.8V68.67c0-1.66.06-3.33,0-5-.23-5-3.16-7.91-7.76-7.93s-7.66,3-7.78,7.9c-.12,5.49,0,11,0,16.49v2.77a21,21,0,0,1-2.91.42q-84.22,0-168.45,0a14.84,14.84,0,0,1-1.48-.15ZM212.63,41.52V27.88H205V41.52ZM322,47.78V61.16h7.68V47.78Zm-116.86.06V61.22h7.59V47.84Zm-18.56-6.3V27.92h-7.26V41.54ZM67.62,61.28V47.91H60V61.28Zm262.06,18V65.58h-7.62V79.27Zm-117.07.07V65.68h-7.45V79.34ZM60,79.27h7.66V65.59H60Zm93.23-51.4c.11,4.7-.48,9.2.39,13.63H161V27.87ZM91.19,61.25V47.94H84V61.25Zm254.89.08h7.19V47.87h-7.19Zm-95.21,4.21V79.12h7.26V65.54Zm23.59-.13c-.13,4.6-.12,9.22,0,13.76H282V65.41ZM306,79.09V65.6h-7.51V79.09Zm47.36,0V65.71H346V79.12ZM20,47.86h-7.3V61.1H20ZM36.4,61.1H44V47.87H36.4ZM107.65,61h7.6V47.93h-7.6Zm24-13.19V61h7.5V47.84Zm21.77,0V61.06H161V47.85Zm81,.07H226.8V61h7.59Zm23.81,0h-7.45V61.08h7.45Zm24,0H274.6V61.12h7.57Zm23.89,0h-7.57V61h7.57ZM20,65.54a22.21,22.21,0,0,0-7.31.14V79.13H20ZM43.85,79.17V65.7H36.54V79.17ZM91.36,65.62H84.14V79.06h7.22Zm16.57-.05V79.1h7.37V65.57Zm31,13.58V65.56h-7.61c0,4.72-.07,9.22.06,13.59ZM153.34,79h7.54V65.66h-7.54Zm81.17.14c-.13-4.65.41-9.13-.46-14-2.61.68-5.07-.51-7.15.69V79.15ZM48,31.92H32.38c-.72,2.31-.69,3.83,2.09,3.82,4.42,0,8.83,0,13.48,0Zm246.35-.08v3.68H310V31.84Zm-71.63,3.62h15.59c.79-2,1.07-3.7-1.45-3.79-4.69-.17-9.39-.05-14.14-.05ZM24,31.89H8.42l.17,3.57H24.14Zm222.56-.07c.17,1.47.31,2.64.43,3.7h15.22v-3.7Zm39.62,3.7c-.12-1.4-.21-2.57-.31-3.7H270.42l.27,3.7Zm-166.86,0-.21-3.73H103.63l.24,3.73Zm8.1-3.79.23,3.68h15.74c-.09-1.4-.16-2.48-.24-3.68Zm73.47-19.49.21,3.5h15.77c-.07-1.32-.12-2.39-.17-3.5Zm-51.34,3.54h15.43V12.28H149.51Z" fill="#fff"/></g></g></svg>