<svg xmlns="http://www.w3.org/2000/svg" width="255.878" height="37.046" viewBox="0 0 255.878 37.046">
  <path id="Path_175" data-name="Path 175" d="M719.258,157.262h8.826v-7.855h-8.826Zm0-13.4h8.826v-7.855h-8.826Zm-12.47,5.263c0,2.348-1.417,3.644-3.158,3.644-1.255,0-1.943-.648-1.943-1.741,0-1.822,1.822-2.753,5.1-3.077Zm-13.078,2.834c0,3.685,2.47,5.992,6.195,5.992,3.482,0,5.709-1.619,6.64-4.9h2.307c.081,2.672.85,4.211,4.292,4.211h4.008v-5.749h-1.417c-.85,0-1.053-.2-1.053-1.174v-5.952c0-5.344-3.6-8.178-10.081-8.178-6.4,0-10.689,2.632-11.174,6.518l7.814,1.093a2.779,2.779,0,0,1,3.077-2.591,2.16,2.16,0,0,1,2.47,2.308v.688c-8.219.486-13.078,3-13.078,7.733m-21.053,5.3h18.786v-6.073h-2.308c-4.13.122-5.709,1.458-8.1,3.6l-1.62-1.984L691,142.889V136.9H673.183v5.79h2.025c2.712,0,4.615-1.5,6.356-3.32l1.66,2.024-10.567,9.069ZM656.341,144.59c.162-2.146,1.215-3.279,3-3.279,1.741,0,2.875,1.214,2.915,3.279Zm-8.259,2.389c0,6.923,4.17,10.972,11.256,10.972,5.587,0,9.312-2.024,11.174-6.113l-7.652-2.105c-.769,1.781-1.781,2.794-3.522,2.794-1.943,0-3.077-1.255-3.118-3.887h14.009a15.183,15.183,0,0,0,.121-1.781c0-6.438-3.968-10.648-11.053-10.648-6.6,0-11.215,4.413-11.215,10.77m-11.336,10.284h8.462V136.9h-8.462Zm-.081-22.673h8.583v-6.478h-8.583Zm-11.5,12.47c0,3.684-1.255,5.385-3.239,5.385s-3.239-1.822-3.239-5.385c0-3.6,1.255-5.344,3.239-5.344s3.239,1.619,3.239,5.344m-14.535,18.1h8.219v-4.939a11.908,11.908,0,0,0-1.943-7.045h3.077c.972,2.875,2.794,4.737,6.154,4.737,4.454,0,7.693-4.373,7.693-10.81,0-6.478-3.077-10.851-7.693-10.851-3.279,0-5.1,1.822-6.194,4.7h-3.037a7.656,7.656,0,0,0,1.336-4.049h-7.612Zm-37.653-7.9h8.34v-11.5c0-1.9.648-3.4,2.389-3.4,1.3,0,2.186.931,2.186,2.712v12.187h8.1v-11.5c0-1.9.729-3.4,2.389-3.4,1.336,0,2.186.931,2.186,2.712v12.187h8.381V143.7c0-4.737-2.713-7.49-6.4-7.49-2.956,0-5.183,1.579-6.033,4.939h-2.389c-.324-3.239-2.348-4.939-4.98-4.939-2.753,0-4.494,1.66-5.182,4.939h-3.077a8.861,8.861,0,0,0,1.539-4.251h-7.45ZM555.932,144.59c.162-2.146,1.215-3.279,3-3.279,1.741,0,2.874,1.214,2.915,3.279Zm-8.259,2.389c0,6.923,4.17,10.972,11.256,10.972,5.587,0,9.312-2.024,11.174-6.113l-7.652-2.105c-.769,1.781-1.781,2.794-3.522,2.794-1.944,0-3.077-1.255-3.118-3.887H569.82a15.2,15.2,0,0,0,.122-1.781c0-6.438-3.968-10.648-11.053-10.648-6.6,0-11.215,4.413-11.215,10.77M529.94,134.346h5.344l5.021-6.235h-8.34ZM528.4,157.262h8.422V136.9H528.4Zm-24.17-5.708c.567,3.32,3.6,6.4,10.648,6.4,7.086,0,10.729-2.793,10.729-6.964,0-3.6-2.713-5.749-7.571-6.6l-2.956-.526c-1.9-.284-2.551-.729-2.551-1.539,0-.85.688-1.458,2.024-1.458a2.937,2.937,0,0,1,2.956,2.227l7.409-1.458c-.688-2.956-3.643-5.425-9.919-5.425-6.437,0-9.838,2.875-9.838,6.68,0,4.008,2.348,5.466,7.612,6.478l2.47.445c1.619.324,2.227.851,2.227,1.7,0,.972-.851,1.539-2.429,1.539-2.227,0-3.077-1.214-3.2-2.51ZM484.8,145.521l.729-2.429a27.961,27.961,0,0,0,.931-7.855c0-.445,0-1.133-.04-2.024h2.915c-.04,1.012-.081,2.065-.081,3.118a25.049,25.049,0,0,0,.729,6.761l.729,2.429Zm9.393,11.741h9.636l-9.8-28.341H481.923l-9.717,28.341h8.948l1.619-5.182h9.839Z" transform="translate(-472.206 -128.111)" fill="#fff"/>
</svg>
