<svg xmlns="http://www.w3.org/2000/svg" viewBox="0 0 117.96 20.96"><title>text-camino-a</title><g id="f8571011-d68a-4aaf-a1ea-0a21e24782a3" data-name="Layer 2"><g id="b99a6157-2e79-4186-b187-6e4e023112d7" data-name="Layer 2"><path d="M8.41,0a12,12,0,0,1,6.08,1.68l-.84,4A10.75,10.75,0,0,0,9,4.37c-2.81,0-4.22,2.19-4.22,6.11S6.17,16.59,9,16.59a10.75,10.75,0,0,0,4.67-1.32l.84,4A12,12,0,0,1,8.41,21C2.25,21,0,16.32,0,10.48S2.25,0,8.41,0Z" fill="#fefefe"/><path d="M26.16,16.29H21.22l-1,4.37H15.56L21,.15H26.7l5.39,20.51H27.21ZM23.68,5.75l-.84,3.59L22,12.39h3.32l-.8-3.05-.81-3.59Z" fill="#fefefe"/><path d="M41.7,6l1.46,4.64h.06L44.54,6,46.37.3h6.1V20.66H47.71V12.27L47.8,8h0l-3.23,9.55H41.25L38,8H38l.12,4.28v8.39H33.73V.3h6Z" fill="#fefefe"/><path d="M55,20.66V.3h4.76V20.66Z" fill="#fefefe"/><path d="M62.23,20.66V.3h4.34L73,12h.06L73,7V.3h4.38V20.66H72.7L66.51,9.49h-.06L66.57,14v6.71Z" fill="#fefefe"/><path d="M79.56,10.45C79.56,4.64,82,0,87.76,0s8.17,4.64,8.17,10.45S93.54,21,87.76,21,79.56,16.29,79.56,10.45Zm11.61,0c0-3.86-1.08-6.08-3.41-6.08s-3.44,2.22-3.44,6.08,1.07,6.14,3.44,6.14S91.17,14.31,91.17,10.45Z" fill="#fefefe"/><path d="M112,16.29h-4.94l-1,4.37h-4.67L106.82.15h5.75L118,20.66h-4.88ZM109.55,5.75l-.84,3.59-.81,3.05h3.33l-.81-3.05-.81-3.59Z" fill="#fefefe"/></g></g></svg>