<svg xmlns="http://www.w3.org/2000/svg" viewBox="0 0 174.88 62.05"><title>logo-lolla</title><g id="ba57edba-4f6f-49d4-ac68-4c7be6af1e12" data-name="Layer 2"><g id="b74b5ae7-0af4-4200-831e-75b735bde1c2" data-name="Layer 2"><path d="M174.81,22.08l0,0h-.05A1.76,1.76,0,0,0,173.26,21L172,20.81l-1-.14-2.22-.35c-2.91-.45-5.91-.92-8.86-1.41-.88-.14-1.77-.34-2.63-.53l-.58-.13-.09-.41c-.17-.71-.34-1.39-.44-2.06,0-.13-.05-.25-.08-.37h0a4.73,4.73,0,0,0-3.21-3.32,12.5,12.5,0,0,0-3.84-.66l-.55,0c-3.22-.24-6.46-.38-9.49-.5-1.92-.07-3.87-.09-5.75-.11h-.91c0-.23-.09-.45-.15-.67h.12l-.16-.17,0-.07-.06-.23.68.14L132,9a.5.5,0,0,0,0-.12,4,4,0,0,0-.17-.79l1.36-.56-1.77-.41a4.25,4.25,0,0,0-1.58-1.54l-.15-.09a8.49,8.49,0,0,0-2.26-1,38.43,38.43,0,0,0-4.46-.78c-1.16-.14-2.33-.21-3.46-.27l-.77,0-2.06-.12c-3.09-.18-6.28-.37-9.42-.51-.55,0-1.14,0-1.86,0H103.9a1.23,1.23,0,0,0,0-.27l.09-.07-.13-.11a.75.75,0,0,0,0-.16,3,3,0,0,0-2-2,2.24,2.24,0,0,0-.68-.1,2.36,2.36,0,0,0-2,1.06,2.14,2.14,0,0,0,.47,2.75,3.63,3.63,0,0,0,.63.48l3.64,19a4,4,0,0,0-2.54-.76H97.41a6.33,6.33,0,0,0-1.63.25,2.92,2.92,0,0,0-2.17,3,12.41,12.41,0,0,0,.11,1.4s.06.59.07.64A8.75,8.75,0,0,0,91,27.37h-.46l-1.39.05c-1.06,0-2.15.08-3.22.08H84.78a8.17,8.17,0,0,0-4.54,1.24,7.25,7.25,0,0,0-5.87-3.18c-2.35-.19-4.75-.31-7.06-.42-1-.05-2-.09-2.92-.15h-.76l-9-.53h-.21a2.68,2.68,0,0,0-2.65,1.93,5.89,5.89,0,0,0-.28,1.94c0,.85,0,1.71.06,2.54a1.93,1.93,0,0,1,0,.24h0c-1.06.11-2.16.22-3.23.28a11.7,11.7,0,0,0-3.51.69v-.78c0-.7,0-1.42,0-2.13a3.09,3.09,0,0,0-2.71-3.26,5.39,5.39,0,0,0-.93-.09h-.33l-3.12-.22v-.09c0-.79,0-1.55,0-2.32a2.92,2.92,0,0,0-2.76-3l-.61,0a5,5,0,0,0-1,.09c-1.37.3-2.71.64-3.83.93-2,.51-2.76,1.63-2.56,3.73,0,.46,0,.94,0,1.43a11.88,11.88,0,0,0-3.65-.57c-1,0-2-.12-3.14-.23l-.92-.1h-.11c-1-.09-2.05-.19-3.09-.19a10.93,10.93,0,0,0-3.84.62v-.06c.16-1.65.31-3.21.49-4.78a3,3,0,0,0-.45-2.16,3.5,3.5,0,0,0-2.83-1.38,3.78,3.78,0,0,0-1.11.17l-.22.06c-1.9.59-3.87,1.2-5.8,1.83C.89,20-.08,20.51,0,23c0,.59,0,1.19.08,1.77s.07,1.34.09,2c.08,2.91.15,5.87.22,8.73l0,1.64c0,1,0,2,.07,2.93.07,2.64.14,5.38.17,8.07a4.53,4.53,0,0,0,2.48,4.15,8.35,8.35,0,0,0,4,1.06c3.41.1,6.55.18,9.63.25l1.28,0c3.4.08,6.91.16,10.37.21h.07a3.22,3.22,0,0,0,3.25-2.12h2.72a3.23,3.23,0,0,0,3.14,2h.23c.42,0,.87,0,1.43,0h2.45a3.21,3.21,0,0,0,3-1.59l.48.27a6.24,6.24,0,0,0,2.93.7h.4l2.45-.17c1.13-.09,2.3-.18,3.44-.21a11.74,11.74,0,0,0,3.94-.65v.13c0,.33,0,.66,0,1a2.9,2.9,0,0,0,2.91,3c.69,0,1.36,0,2,0s1.37,0,2,0a3,3,0,0,0,3-3.32c0-.32,0-.59-.07-.85L68,51c-.09-.59-.18-1.2-.25-1.79,0-.19,0-.39,0-.59l.66,0c1.29.09,2.5.18,3.72.31.79.08,1.76.17,2.71.17a8.74,8.74,0,0,0,3.92-.81,4.64,4.64,0,0,0,2.7,2.52,11,11,0,0,0,2.44.51c1.76.2,3.53.34,5.18.47l.71.06c.82.07,1.67.15,2.52.15l.54,0a7.81,7.81,0,0,0,3.81-1.19,3,3,0,0,0,2,.82H99l1,0,1.07,0a10.76,10.76,0,0,0,2.14-.19,6.8,6.8,0,0,0,3.27,1.59,10.2,10.2,0,0,0,2.4.26h.1c2.27,0,4.57-.06,6.8-.09l2.58,0a8.32,8.32,0,0,0,4.83-1.54.22.22,0,0,1,.1,0c.3,0,.61.08.93.13v1.35c0,.41,0,.82,0,1.23,0,.94,0,1.91,0,2.87a3.93,3.93,0,0,0,3.89,3.86l1,.06c.38,0,.76.06,1.15.07l7.09.26,5.13.17,4.48.15,2.58.09c1.73.06,3.51.13,5.27.17h.21a3.15,3.15,0,0,0,3.45-2.62c.46-1.49.9-3,1.33-4.49l.45-1.56c.19-.64.37-1.27.55-1.92l0-.09h1.42a3.22,3.22,0,0,0,2.36-.93,3.15,3.15,0,0,0,.76-2.35,21.46,21.46,0,0,0-.4-3.41c-.45-2.25-1.88-2.72-3-2.72a5.31,5.31,0,0,0-1.07.12l-.36.07c0-2.67,0-5.4.23-8.31a3.45,3.45,0,0,0,1.8-3.47l.2-.06a32.59,32.59,0,0,0,6.81-2.88,18.16,18.16,0,0,0,4.64-3.59A1.77,1.77,0,0,0,174.81,22.08Zm-55.89,4c-.12-.19-.23-.39-.36-.59A5,5,0,0,0,114.21,23h-5.4c-.24,0-.47,0-.7,0a55,55,0,0,1,15.51-2.14h1.49l0,.24c.16.78.31,1.52.4,2.26A3.3,3.3,0,0,0,127.2,26a7.22,7.22,0,0,0,1.53.74l-.33,0-3.24-.28c-1.37-.13-2.78-.25-4.17-.36-.31,0-.63,0-1,0h-1Zm20.2.9,1-.13c.68-.09,1.32-.18,2-.22,1.54-.09,3.11-.17,4.63-.24l2.55-.12,1.1-.08.47,0c.07.37.15.73.23,1.1l-2.3.11-3.93.21a6.34,6.34,0,0,0-3.18,1.18l-.1.06a3.62,3.62,0,0,0-2.85-1.3l-2.93-.18C136.9,27.22,138,27.09,139.12,27Z" fill="#fff"/><path d="M59.31,50.39a8.62,8.62,0,0,1-5,1.3c-2,.06-3.94.28-5.91.38a5.27,5.27,0,0,1-2.81-.57c-.48-.25-.94-.54-1.43-.82-.06.14-.14.28-.19.43a2.14,2.14,0,0,1-2.29,1.59c-1.32,0-2.63-.05-3.94,0a2.26,2.26,0,0,1-2.54-2H31c0,.11-.11.3-.17.49a2.3,2.3,0,0,1-2.43,1.64c-3.88-.06-7.76-.15-11.64-.24l-9.62-.25a7.37,7.37,0,0,1-3.49-.93,3.56,3.56,0,0,1-2-3.28c0-3.67-.15-7.34-.24-11Q1.33,32,1.2,26.78c0-1.26-.14-2.52-.18-3.78-.07-1.9.42-2.11,1.68-2.52,2-.65,4-1.26,6-1.88a2.54,2.54,0,0,1,2.81.84,1.89,1.89,0,0,1,.27,1.44c-.25,2.17-.44,4.34-.68,6.68,2.62-1.68,5.38-1.39,8.13-1.13,1.38.14,2.77.32,4.15.33A10.43,10.43,0,0,1,28,27.83c0-1,.07-2,0-3-.15-1.56.27-2.26,1.8-2.66,1.26-.32,2.52-.64,3.8-.91a3.74,3.74,0,0,1,1.25-.05,1.89,1.89,0,0,1,1.85,2c0,1.09,0,2.19,0,3.33l4.07.28a10.73,10.73,0,0,1,1.13.08,2.1,2.1,0,0,1,1.9,2.29c0,1,0,2,0,3v1.49a9.13,9.13,0,0,1,4.59-1.31c1.18-.07,2.35-.19,3.53-.31a4.77,4.77,0,0,0,.71-.21c0-1.22-.11-2.39-.11-3.56a5.1,5.1,0,0,1,.23-1.61,1.69,1.69,0,0,1,1.84-1.24l9,.53c.25,0,.51,0,.76,0,3.32.18,6.65.3,10,.56a6.18,6.18,0,0,1,5.54,3.53c.13,0,.24,0,.29,0a7,7,0,0,1,4.93-1.57c1.85,0,3.7-.07,5.56-.12a7,7,0,0,1,4.2,1,6.72,6.72,0,0,0,0-2c-.05-.54-.13-1.09-.14-1.63a1.92,1.92,0,0,1,1.45-2,5.26,5.26,0,0,1,1.36-.2c1.23,0,2.46,0,3.68,0a2.67,2.67,0,0,1,2.72,1.33l1.2-.62c-1.3-6.8-2.6-13.6-3.94-20.55a7,7,0,0,1-.86-.6A1.15,1.15,0,0,1,100,1.59a1.4,1.4,0,0,1,1.55-.52,2,2,0,0,1,1.34,1.4c.18.53-.15.85-.78,1.31,1.88,0,3.49-.06,5.08,0,3.83.18,7.65.41,11.47.63,1.39.08,2.79.14,4.16.31a37.69,37.69,0,0,1,4.35.76,8.41,8.41,0,0,1,2.15,1A3.23,3.23,0,0,1,130.93,9c.08.71.35,1.39.45,2.09s.39.65.87.66c2.24,0,4.48,0,6.72.12,3.15.12,6.31.26,9.46.49a13.92,13.92,0,0,1,4.09.64A3.65,3.65,0,0,1,155.17,16c.17,1,.45,2,.7,3.16,1.27.26,2.57.59,3.89.8,3.69.61,7.39,1.18,11.08,1.76.75.12,1.5.19,2.25.32s1,.52.42,1.17a17.45,17.45,0,0,1-4.39,3.38,31.44,31.44,0,0,1-6.6,2.79l-1,.35c.35,1.6,0,2.87-1.65,3.48a99.36,99.36,0,0,0-.23,10.23l1.55-.33c1.64-.34,2.54.18,2.87,1.81a20.74,20.74,0,0,1,.38,3.25,2,2,0,0,1-2.14,2.23c-.67,0-1.35,0-2.16,0l-.78,2.75c-.59,2-1.16,4-1.78,6-.46,1.52-1.05,1.94-2.67,1.9-2.61-.06-5.22-.17-7.84-.26l-9.61-.32-7.08-.25c-.71,0-1.42-.11-2.14-.14a2.91,2.91,0,0,1-2.91-2.88c-.06-1.35,0-2.7,0-4.06V50.93c-.65-.11-1.25-.25-1.86-.3a1.22,1.22,0,0,0-.78.21,7.15,7.15,0,0,1-4.26,1.35c-3.12.05-6.25.11-9.37.13a9.44,9.44,0,0,1-2.25-.22,5.28,5.28,0,0,1-3.16-1.75c-1.63.5-3.28.24-4.91.28a2.61,2.61,0,0,1-2-1.11,7.13,7.13,0,0,1-4,1.48,29.86,29.86,0,0,1-3.65-.19c-1.72-.13-3.44-.28-5.15-.47a9.68,9.68,0,0,1-2.2-.46,4.07,4.07,0,0,1-2.52-3.06c-2.19,1.59-4.61,1.37-7.06,1.13-1.79-.19-3.59-.29-5.55-.45,0,.67,0,1.24.11,1.81.11.95.26,1.91.39,2.87a6.32,6.32,0,0,1,.06.75,2,2,0,0,1-2,2.26c-1.31.06-2.62.06-3.93,0a1.9,1.9,0,0,1-1.94-2c0-.46,0-.93,0-1.39Zm69.78-42.6h0a.77.77,0,0,0,.07-.16c-.17-.73-.82-.9-1.38-1.13a15.54,15.54,0,0,0-5-1c-.71-.07-1.41-.17-2.11-.22l-4-.24c-4.72-.33-9.45-.59-14.15-.57-.15.55,0,.77.44.78a.67.67,0,0,1,0,.2c-.32,0-.58.11-.35.54a1.89,1.89,0,0,1,.11.47L103,7c0,1,0,1,.9,1L104,8a1.27,1.27,0,0,1,0,.2c-.27.16-.83-.21-.79.5s.44.5.8.51l1.77.06a.74.74,0,0,1,0,.21l-2.24.09c0,.76,0,.76.46,1l0,.36c-.33.75-.31.81.3.88l.73,0V12l-1.19.17c.31.85.31.86,1,.87l1.72,0v.22l-2.52.14.37,1h1.86v.16l-1.72.18v.89l.25.51c-.46.26,0,.51,0,.77l.06.57.19.7,0,.56c.26.7.26.7,1.25.7a.86.86,0,0,1,0,.23,3.93,3.93,0,0,0-.6.06c-.13,0-.35.16-.34.23a.79.79,0,0,0,.22.5c.09.09.3.07.46.11v.37c-.35,0-.59.17-.43.54,0,.13.3.21.47.25a.82.82,0,0,0,.37-.06l7.22-1.77.37-.15,1.9-.18,7.6-.43h.28l.51,0a30.12,30.12,0,0,1,5.77.27c.61.12,1.23.19,1.85.28l0,0,.19.2.08-.2,0-.32c.35-.09.18-.29.07-.44s-.42-.5-.62-.75l.51-.17-.2-.38-.29-.46.23-.55c-.24-.42-.64-.75-.49-1.34,0-.17-.22-.42-.34-.64l.29-.13-.17-.13-.28-.78,0-.46c0-.35.12-.77-.31-1v-.34c.09-.33-.08-.5-.37-.59l-.12-.39.25-.28c.1-.64-.63-.75-.79-1.23h.25l.27-.13L129.88,9l0,0c.18-.53-.46-.62-.55-1l.44-.19-.44-.1ZM155.76,23l0,0-.27-.62a.21.21,0,0,0,0-.19c.34-.1.31-.35.2-.58s-.4-.47-.35-.58c.36-.8-.33-1-.72-1.33l.69-.1-.57-1.17c.25-.06.36-.21.2-.43s-.46-.56-.69-.84a.35.35,0,0,0,.22-.58,3.56,3.56,0,0,0-.66-.62c.26-.11.65-.14.33-.55a2,2,0,0,0-.38-.32c.4-.47-.09-.52-.33-.69a4.81,4.81,0,0,0-3-1l-4.05-.27L144.11,13l-1.27-.16-.28,0-1.37,0-6-.2c-.58,0-1.16-.07-1.75-.06a4,4,0,0,0-1.91.21l.58.45,0,.35c-.47.27,0,.52,0,.77l.13.79.13.48.16.8c.06.32.19.53.58.49a3.78,3.78,0,0,1,.75.05v.31a1.54,1.54,0,0,1-.46.11c-.67,0-.62.33-.45.76a3,3,0,0,0,.49,1.83.61.61,0,0,0,.2.8v.45l.06.69,0,.6-1,.75c-.36.07-.86-.3-1,.33l-.76,0-.24,0h-.26c-.47,0-.95-.05-1.42,0-.11,0-.21.16-.32.25l-.31,0c-.31,0-.59-.57-1,0a3.5,3.5,0,0,0,2.54,1.47,14.73,14.73,0,0,0,4.82.3l2.23-.2c.13.2.23.17.32,0,.34,0,.67,0,1,0l5.72-.53a1.66,1.66,0,0,0,.35-.13l1.57,0,2.75-.11h.49l.28,0,2.65.05a10,10,0,0,1,3.17.29l.51,0h0l.49.25.1.17.1-.09-.18-.11-.23-.28.22-.48-.5-.77v-.28l.18-.07Zm4.05,7.13c-.47.07-1,.06-1.3.51-.06.13-.2.32-.17.36.29.33.61.64,1.07,1.1.34-.41.63-.75.88-1.11,0-.05-.12-.23-.18-.35l0-.29Zm-5.82-1-.88.05c.17.22.21.35.31.41,1.13.73,2.28.41,3.44.08a17.55,17.55,0,0,0,5.54-1.19,16.32,16.32,0,0,0,4.27-1.66,17.73,17.73,0,0,0,6-4L168.47,22l-.28,0L167,21.89a10.26,10.26,0,0,0-3.25-.46l-.58-.17-.51,0a4.83,4.83,0,0,0-.7-.24c-1.27-.2-2.54-.37-3.81-.59-.67-.11-1.32-.3-2.16-.5l.79,2.1,0,.46c.08.94.08.94.92,1l.36,0a.74.74,0,0,1,0,.21h-1.11l.35,1,0,.53.59,2.24h.66a.62.62,0,0,1,0,.23,10.89,10.89,0,0,1-3.89.56,2.2,2.2,0,0,0-.79.25l.14.25A2.18,2.18,0,0,1,154,29.08Zm-23.14-7.44-.45.06c-.09-.41-.17-.81-.26-1.22a.57.57,0,0,0-.75-.47c-.17,0-.27.4-.35.54-.26-.2-.56-.6-.81-.58-.52.06-1,0-1.62,0l.54,2.7h3.49a16.27,16.27,0,0,0,1.71-.2c.64-.13.76-.52.37-1.09a2.45,2.45,0,0,0-.53-.48c-.1-.09-.11-.08-.23.32h-.27c0-.68-.41-.84-1.05-1Zm23.88,3.87h-.46c-.68-.33-.68-.33-.89.44l-.77-1.05a4.17,4.17,0,0,0,.36,2.77c0,.07.32.12.41.06s.11-.27.17-.42h.13c.12.09.25.24.37.25a9.08,9.08,0,0,0,1.65,0,5.34,5.34,0,0,0,1.09-.45c-.15-.33-.3-.66-.46-1,0,0-.08,0-.19,0l-.25.77C155.61,26.17,155.67,25.36,154.73,25.51ZM65.49,53.39c-.07-.73-.13-1.38-.19-2-.14-1.46-.28-2.91-.4-4.37a.81.81,0,0,1,.64-.95,3.76,3.76,0,0,1,1.08-.21,39.94,39.94,0,0,1,4.77.32,25.33,25.33,0,0,0,4.52.18c1.88,0,2.76-1,2.72-2.83-.06-4-.17-8-.24-12a2.56,2.56,0,0,0-.86-1.87,4.52,4.52,0,0,0-2.79-1.29c-2.42-.22-4.84-.35-7.27-.51-1.38-.09-2.76-.18-4.14-.25-2-.11-4-.18-6-.29-.75,0-1.49-.13-2.24-.21-.47-.05-.76.12-.77.59,0,1.27,0,2.54,0,3.8,0,.47.26.69.73.65l.63,0c1.45-.16,2.9-.36,4.35-.47,1-.08,1.15.12,1.15,1.16L61.09,49a2.2,2.2,0,0,1,0,.63c-.4,1.24-.12,2.48-.18,3.78ZM2.75,22.29c0,.46,0,.83,0,1.21.09,2.9,0,5.8.2,8.71.25,4.24.23,8.5.31,12.76,0,1.05,0,2.11,0,3.17a1.82,1.82,0,0,0,.82,1.61,4.64,4.64,0,0,0,2.31.87c1.38.11,2.76.19,4.15.23s2.7,0,4,0c2.4.08,4.79,0,7.19.18,2.18.2,4.39.07,6.59.07.66,0,.78-.16.78-.85,0-1.4,0-2.79,0-4.19s.12-1.62-1.64-1.52h-.25c-1.84.15-3.67.33-5.5.45-2.14.13-4.29.2-6.43.3-.12,0-.26,0-.38,0a20.73,20.73,0,0,1-5.16.2,2,2,0,0,1-1.92-2.4c0-.28.17-.56.2-.85.11-1.25.19-2.51.29-3.76.08-1,.16-2.09.28-3.13.13-1.2.33-2.39.45-3.59s.19-2.51.3-3.77c.08-.95.17-1.91.27-2.87.14-1.32.31-2.64.46-4,0-.32,0-.64,0-1.14A48.78,48.78,0,0,0,2.75,22.29Zm136.93,22a10.87,10.87,0,0,0-1.49-.22c-2.57,0-5.15,0-7.73,0h-.89a1,1,0,0,1-.94-.73c-.15-.43.18-.73.49-.94a10.88,10.88,0,0,1,1.22-.64c2.67-1.27,5.34-2.55,8-3.81a1.84,1.84,0,0,0,1.19-1.87c0-1.65,0-3.3,0-4.95,0-.93-.08-1-1-1-1.92-.14-3.84-.32-5.76-.47q-3.57-.29-7.14-.53c-1.68-.11-3.36-.2-5-.29a2.74,2.74,0,0,1-.5-.07c-1.07-.33-1.37.11-1.54,1-.25,1.44-.4,2.89-.55,4.35-.09.88.25,1.25,1.14,1.24s1.58-.17,2.37-.17c4,0,8,0,12,0a6.43,6.43,0,0,1,.76,0,.67.67,0,0,1,.67.63c0,.37.09.76-.4.94-.31.11-.59.3-.9.43-3,1.23-6.08,2.49-9.15,3.67a1.6,1.6,0,0,0-1.22,1.78c.09,1.63.18,3.27.28,4.9a3,3,0,0,0,.17.47c.25,1.12.25,1.13,1.36,1.12l13.19,0a4.56,4.56,0,0,0,.64,0A1.1,1.1,0,0,0,140,47.68C139.89,46.64,139.8,45.6,139.68,44.28Zm18.3.65c0-1.62-.13-3.21-.14-4.8,0-.62.17-1.23.18-1.85,0-1.65,0-3.3,0-5a3.42,3.42,0,0,0-.94-2.25,1.17,1.17,0,0,0-1.34-.45,2.82,2.82,0,0,1-2.7-.48,1.94,1.94,0,0,0-1.31-.32c-1.29.1-2.59.18-3.88.24-.68,0-1.35,0-2,0a5.27,5.27,0,0,0-5,4.3,9,9,0,0,0,0,2.27c0,.73.2,1,1,1a12.32,12.32,0,0,0,1.47-.19c.53-.06,1.09.11,1.62-.21,0-.64,0-1.28,0-1.91a1.11,1.11,0,0,1,1-1.23,12.18,12.18,0,0,1,3.51-.19,3.26,3.26,0,0,1,1.18.38A2.18,2.18,0,0,1,152,36.47c0,.29,0,.59,0,.88,0,.86-.32,1.21-1.16,1.33a6.58,6.58,0,0,1-.89,0c-1.56,0-3.13,0-4.69,0a5.08,5.08,0,0,0-2.72.82,2.93,2.93,0,0,0-1.46,2.37c-.06,1.31,0,2.62,0,3.93a2.09,2.09,0,0,0,.17.59,3.77,3.77,0,0,0,3.48,2.45c1.47.11,3,0,4.44,0q6.38-.1,12.75-.25a2.38,2.38,0,0,0,.38,0,.57.57,0,0,0,.57-.68c-.17-1.06-.38-2.11-.57-3.18C160.84,44.77,159.54,45.36,158,44.93ZM79.41,37.21c.91,0,1.67,0,2.42,0,.51,0,.66-.3.78-.67a3.18,3.18,0,0,0,0-.62,1.72,1.72,0,0,1,1.85-1.78c1.27,0,2.54,0,3.8,0a2.11,2.11,0,0,1,2.14,1.45,2.78,2.78,0,0,1-.38,2.75,2.55,2.55,0,0,1-2,.93q-2.33.08-4.65.21a2.71,2.71,0,0,0-2.76,2.81c0,1.14,0,2.29,0,3.43a2.87,2.87,0,0,0,2.46,2.89c.83.1,1.67.18,2.5.24,1.51.11,3,.2,4.52.29a2.63,2.63,0,0,1,.5.06A6,6,0,0,0,94,49.1a3.29,3.29,0,0,0,2.64-3.47c-.07-1.84-.17-3.69-.31-5.53-.12-1.63-.37-3.24-.43-4.87a7.51,7.51,0,0,0-.56-2.55,3.92,3.92,0,0,0-3.92-2.58l-6.72,0a5.25,5.25,0,0,0-4.84,3C79.17,34.4,79.41,35.72,79.41,37.21Zm-51-2.61h0c0-1,0-2,0-3a2.28,2.28,0,0,0-1-2.06A4.8,4.8,0,0,0,25,28.57c-1.46-.12-2.93-.19-4.39-.28a4.35,4.35,0,0,1-.51,0,18.48,18.48,0,0,0-5.7-.2,5.64,5.64,0,0,0-2,.69,2.38,2.38,0,0,0-1.27,1.92c-.06,1.13-.17,2.26-.28,3.38-.09.83-.21,1.65-.3,2.48-.16,1.41-.38,2.82-.46,4.23A2.33,2.33,0,0,0,12,43.45a4,4,0,0,0,1.38.1c1.12-.06,2.25-.18,3.37-.27s2.43-.16,3.64-.28c1.41-.14,2.82-.3,4.22-.49A4.56,4.56,0,0,0,27.73,41a1.69,1.69,0,0,0,.4-.88c.11-1.38.17-2.76.24-4.14C28.39,35.53,28.37,35.06,28.37,34.6Zm19.3,4.3c0-.25,0-.46,0-.66.06-1.12.38-1.67,1.47-1.87a12.14,12.14,0,0,1,3.13-.12,2.26,2.26,0,0,1,1.24.75,2.47,2.47,0,0,1,.34,2.72A2.1,2.1,0,0,1,51.76,41c-1.51,0-3,.14-4.52.22s-3.07,1-3.24,2.31a12,12,0,0,0,.08,3.87,4,4,0,0,0,4,2.94c2.06-.06,4.12-.17,6.18-.28a11.89,11.89,0,0,0,2-.23,5.79,5.79,0,0,0,1.84-.72A3,3,0,0,0,59.59,47c.1-1,.2-2,.21-3,.05-2.49,0-5,.09-7.48a2.72,2.72,0,0,0-1.8-2.75,4.73,4.73,0,0,0-1.81-.41,25.67,25.67,0,0,0-2.75.22c-2.09.18-4.18.27-6.26.55-2.53.33-3.91,1.6-3.64,4.27.06.52.25.78.78.77.76,0,1.53,0,2.28,0A4.12,4.12,0,0,0,47.67,38.9Zm58.12-16.18c.09.31.15.46.19.61.23.84.23.86,1.08.83.59,0,1.17-.12,1.76-.12,1.77,0,3.54,0,5.32,0a4,4,0,0,1,3.57,2c.22.34.42.71.62,1.05.9,0,1.74-.05,2.58,0,2.47.19,4.94.44,7.41.64,3.43.28,6.87.59,10.31.78,1.31.07,2.18.49,2.5,1.83.39-.28.72-.54,1.07-.77a5.43,5.43,0,0,1,2.68-1c1.8-.11,3.61-.18,5.42-.27l2-.1c-.21-.9-.41-1.71-.56-2.52-.08-.5-.38-.6-.8-.57-.59,0-1.17.11-1.76.14-2.4.12-4.8.21-7.19.36-1,.06-2,.24-3,.36a34.75,34.75,0,0,1-7.69.31,8,8,0,0,1-3.57-1.13,2.37,2.37,0,0,1-1.18-1.82c-.13-1.12-.39-2.22-.61-3.37A56.75,56.75,0,0,0,105.79,22.72Zm6.91,27.92v.08c2.18-.11,4.36-.2,6.54-.35a4.73,4.73,0,0,0,1.55-.4,2.27,2.27,0,0,0,1.42-2.75c0-.24-.14-.47-.17-.72-.18-1.44-.37-2.89-.51-4.34a1.86,1.86,0,0,0-1.16-1.64,11,11,0,0,0-5-.76c-.71,0-1.41.16-2.11.18-1.44,0-2.87,0-4.3,0a6.06,6.06,0,0,0-2,.32c-.74.31-1.61.61-1.72,1.63-.09.87-.17,1.74-.27,2.61s-.17,2-.35,3c-.26,1.37.11,2.18,1.45,2.59a12.66,12.66,0,0,0,2.8.5C110.16,50.7,111.43,50.64,112.7,50.64Zm-2.35-24.89v0c-1.3,0-2.61,0-3.92,0a2.47,2.47,0,0,0-2.38,1.54,3.51,3.51,0,0,0-.3,1.58c0,2.07,0,4.13,0,6.2a6.27,6.27,0,0,0,.3,1.71,2.57,2.57,0,0,0,2.21,1.92q3.73,0,7.47,0A2.43,2.43,0,0,0,116,37.34a4.93,4.93,0,0,0,.68-2.37c0-.89,0-1.77.06-2.66a29.52,29.52,0,0,0,.18-3.75c-.16-1.71-1.25-3-3-2.83C112.72,25.84,111.53,25.75,110.35,25.75ZM34.86,22.66c-1.47.35-2.88.67-4.27,1-.94.24-1,.27-.93,1.15.06,1.42.16,2.84.24,4.27s.17,3,.24,4.52c.1,2.19.19,4.37.28,6.56q.15,4,.28,7.94c0,.13,0,.29,0,.38s.36.55.56.56c1.18,0,2.36,0,3.54,0,.22,0,.43-.23.72-.39-.1-1.86-.25-3.7-.27-5.55-.05-4.39,0-8.79-.06-13.19A36.19,36.19,0,0,0,34.86,22.66Zm67.33,2.61c-1,0-2,0-2.88,0a18.64,18.64,0,0,0-2.89.08c0,1-.06,1.85,0,2.72.11,1.37.33,2.73.45,4.1s.18,3,.29,4.53c.07,1,.16,2,.26,3,.15,1.62.33,3.24.48,4.86.11,1.21.19,2.42.27,3.63,0,.46.25.7.71.7h3.86c0-.39,0-.63,0-.87-.09-3,0-5.89-.2-8.84-.25-4.42-.22-8.85-.31-13.27C102.23,25.74,102.21,25.58,102.19,25.27ZM37,28.25V49.87c0,.17,0,.33,0,.5,0,.54.26.78.77.76l4.57-.23c0-.39,0-.68,0-1q-.11-8.79-.23-17.58c0-1,0-1.95,0-2.92,0-.28-.06-.56-.09-.82ZM138.87,57.38a3.3,3.3,0,0,0,1.88-.07V51.7H138.9l-.1,1.95h-1.6v-2a3.4,3.4,0,0,0-1.89.12v5.56a2.66,2.66,0,0,0,1.93-.11v-2h1.63ZM152.44,56c.35-.38.48-.62.66-.68a2.31,2.31,0,0,1,.87-.08c.46,0,.58-.3.6-.65s-.09-.66-.54-.7a5.41,5.41,0,0,1-1-.16c-.15,0-.26-.21-.58-.48l2.41-.14a1.32,1.32,0,0,0-.09-1.43h-3.24c-.73,0-.81.09-.82.79,0,1.05,0,2.11,0,3.16v1.26c0,.33.13.62.48.62,1.33,0,2.67,0,4,0A1.45,1.45,0,0,0,155,56Zm-18.9-.46a11,11,0,0,1-1.41.47.94.94,0,0,1-1.19-.67c-.24-.72,0-1.91.43-2.11a1.2,1.2,0,0,1,.5-.08,3.79,3.79,0,0,1,.73.15,1,1,0,0,0,1.34-.63c.1-.36-.25-.79-.84-.93a4.71,4.71,0,0,0-2.58,0c-1.08.38-1.63,1.36-1.62,2.85s.6,2.55,1.68,2.8a3.84,3.84,0,0,0,3.61-.66Zm12-3.84a23.41,23.41,0,0,0,.08,5.75h4V56h-2.24c0-1.49,0-2.87,0-4.28ZM144,57.44a26.32,26.32,0,0,0-.06-5.74l-.47-.08h-.51c-.75,0-.83.12-.84.92,0,1.22,0,2.43,0,3.65s0,1.34,1.32,1.3C143.58,57.49,143.74,57.46,144,57.44ZM102.35,2.37c-.34-.29-.57-.59-.86-.68s-.53.1-.8.16a2.26,2.26,0,0,0,.25.66C101.4,3.07,101.47,3.05,102.35,2.37Z" fill="#040504"/><path d="M65.49,53.39H60.9c.06-1.3-.22-2.54.18-3.78a2.2,2.2,0,0,0,0-.63l.06-16.22c0-1-.14-1.24-1.15-1.16-1.45.11-2.9.31-4.35.47l-.63,0c-.47,0-.73-.18-.73-.65,0-1.26,0-2.53,0-3.8,0-.47.3-.64.77-.59.75.08,1.49.17,2.24.21,2,.11,4,.18,6,.29,1.38.07,2.76.16,4.14.25,2.43.16,4.85.29,7.27.51a4.52,4.52,0,0,1,2.79,1.29,2.56,2.56,0,0,1,.86,1.87c.07,4,.18,8,.24,12,0,1.88-.84,2.79-2.72,2.83a25.33,25.33,0,0,1-4.52-.18,39.94,39.94,0,0,0-4.77-.32,3.76,3.76,0,0,0-1.08.21.81.81,0,0,0-.64.95c.12,1.46.26,2.91.4,4.37C65.36,52,65.42,52.66,65.49,53.39Zm6.09-10v-.07c.51,0,1,0,1.52,0a2.29,2.29,0,0,0,2.19-2.55,19.13,19.13,0,0,1-.19-2c0-1.39,0-2.79,0-4.18a1.89,1.89,0,0,0-1.48-1.93,7.59,7.59,0,0,0-4.57.12,2.21,2.21,0,0,0-.89.66,1.58,1.58,0,0,0-.38.89c0,2.15,0,4.31,0,6.46a2.25,2.25,0,0,0,1.95,2.38A12.74,12.74,0,0,0,71.58,43.34Z" fill="#00ae99"/><path d="M2.75,22.29a48.78,48.78,0,0,1,7.36-2.22c0,.5,0,.82,0,1.14-.15,1.33-.32,2.65-.46,4-.1,1-.19,1.92-.27,2.87-.11,1.26-.17,2.51-.3,3.77s-.32,2.39-.45,3.59c-.12,1-.2,2.09-.28,3.13-.1,1.25-.18,2.51-.29,3.76,0,.29-.16.57-.2.85a2,2,0,0,0,1.92,2.4,20.73,20.73,0,0,0,5.16-.2c.12,0,.26,0,.38,0,2.14-.1,4.29-.17,6.43-.3,1.83-.12,3.66-.3,5.5-.45h.25c1.76-.1,1.66.08,1.64,1.52s0,2.79,0,4.19c0,.69-.12.84-.78.85-2.2,0-4.41.13-6.59-.07-2.4-.23-4.79-.1-7.19-.18-1.35,0-2.7,0-4,0s-2.77-.12-4.15-.23a4.64,4.64,0,0,1-2.31-.87,1.82,1.82,0,0,1-.82-1.61c0-1.06,0-2.12,0-3.17C3.18,40.71,3.2,36.45,3,32.21c-.17-2.91-.11-5.81-.2-8.71C2.74,23.12,2.75,22.75,2.75,22.29Z" fill="#fb3f34"/><path d="M139.68,44.28c.12,1.32.21,2.36.32,3.4a1.1,1.1,0,0,1-1.06,1.39,4.56,4.56,0,0,1-.64,0l-13.19,0c-1.11,0-1.11,0-1.36-1.12a3,3,0,0,1-.17-.47c-.1-1.63-.19-3.27-.28-4.9a1.6,1.6,0,0,1,1.22-1.78c3.07-1.18,6.1-2.44,9.15-3.67.31-.13.59-.32.9-.43.49-.18.44-.57.4-.94a.67.67,0,0,0-.67-.63,6.43,6.43,0,0,0-.76,0c-4,0-8,0-12,0-.79,0-1.58.17-2.37.17S117.89,35,118,34.12c.15-1.46.3-2.91.55-4.35.17-.93.47-1.37,1.54-1a2.74,2.74,0,0,0,.5.07c1.67.09,3.35.18,5,.29q3.57.24,7.14.53c1.92.15,3.84.33,5.76.47.93.08,1,.11,1,1,0,1.65,0,3.3,0,4.95A1.84,1.84,0,0,1,138.36,38c-2.68,1.26-5.35,2.54-8,3.81a10.88,10.88,0,0,0-1.22.64c-.31.21-.64.51-.49.94a1,1,0,0,0,.94.73h.89c2.58,0,5.16,0,7.73,0A10.87,10.87,0,0,1,139.68,44.28Z" fill="#fa3e33"/><path d="M158,44.93c1.56.43,2.86-.16,4.29-.18.19,1.07.4,2.12.57,3.18a.57.57,0,0,1-.57.68,2.38,2.38,0,0,1-.38,0q-6.37.14-12.75.25c-1.48,0-3,.09-4.44,0a3.77,3.77,0,0,1-3.48-2.45,2.09,2.09,0,0,1-.17-.59c0-1.31-.06-2.62,0-3.93a2.93,2.93,0,0,1,1.46-2.37,5.08,5.08,0,0,1,2.72-.82c1.56,0,3.13,0,4.69,0a6.58,6.58,0,0,0,.89,0c.84-.12,1.15-.47,1.16-1.33,0-.29,0-.59,0-.88a2.18,2.18,0,0,0-1.43-2.15,3.26,3.26,0,0,0-1.18-.38,12.18,12.18,0,0,0-3.51.19,1.11,1.11,0,0,0-1,1.23c0,.63,0,1.27,0,1.91-.53.32-1.09.15-1.62.21a12.32,12.32,0,0,1-1.47.19c-.76,0-.95-.26-1-1a9,9,0,0,1,0-2.27,5.27,5.27,0,0,1,5-4.3c.68,0,1.35,0,2,0,1.29-.06,2.59-.14,3.88-.24a1.94,1.94,0,0,1,1.31.32,2.82,2.82,0,0,0,2.7.48,1.17,1.17,0,0,1,1.34.45,3.42,3.42,0,0,1,.94,2.25c0,1.65,0,3.3,0,5,0,.62-.19,1.23-.18,1.85C157.85,41.72,157.93,43.31,158,44.93Zm-7,1.4h0c.55,0,1.1,0,1.65,0a2.37,2.37,0,0,0,1.75-.84,2.63,2.63,0,0,0-1.26-4.24,7.84,7.84,0,0,0-3.82,0,2.54,2.54,0,0,0-2.15,2.64,2.72,2.72,0,0,0,2.57,2.45C150.14,46.35,150.56,46.33,151,46.33Z" fill="#00ae99"/><path d="M79.41,37.21c0-1.49-.24-2.81.46-4.08a5.25,5.25,0,0,1,4.84-3l6.72,0a3.92,3.92,0,0,1,3.92,2.58,7.51,7.51,0,0,1,.56,2.55c.06,1.63.31,3.24.43,4.87.14,1.84.24,3.69.31,5.53A3.29,3.29,0,0,1,94,49.1a6,6,0,0,1-3.35.09,2.63,2.63,0,0,0-.5-.06c-1.51-.09-3-.18-4.52-.29-.83-.06-1.67-.14-2.5-.24a2.87,2.87,0,0,1-2.46-2.89c-.05-1.14-.05-2.29,0-3.43a2.71,2.71,0,0,1,2.76-2.81q2.32-.13,4.65-.21a2.55,2.55,0,0,0,2-.93,2.78,2.78,0,0,0,.38-2.75,2.11,2.11,0,0,0-2.14-1.45c-1.26,0-2.53,0-3.8,0a1.72,1.72,0,0,0-1.85,1.78,3.18,3.18,0,0,1,0,.62c-.12.37-.27.69-.78.67C81.08,37.18,80.32,37.21,79.41,37.21Zm10.25,9.22,0-.11c.46,0,.93,0,1.39,0a1.52,1.52,0,0,0,1.51-1.54,11.36,11.36,0,0,0,0-1.65,1.32,1.32,0,0,0-1.13-1.42,7.68,7.68,0,0,0-4.2.17A2.24,2.24,0,0,0,85.76,44a2.18,2.18,0,0,0,1.57,2A14.91,14.91,0,0,0,89.66,46.43Z" fill="#fa3e33"/><path d="M28.37,34.6c0,.46,0,.93,0,1.39-.07,1.38-.13,2.76-.24,4.14a1.69,1.69,0,0,1-.4.88,4.56,4.56,0,0,1-3.08,1.5c-1.4.19-2.81.35-4.22.49-1.21.12-2.42.19-3.64.28s-2.25.21-3.37.27a4,4,0,0,1-1.38-.1,2.33,2.33,0,0,1-1.94-2.68c.08-1.41.3-2.82.46-4.23.09-.83.21-1.65.3-2.48.11-1.12.22-2.25.28-3.38a2.38,2.38,0,0,1,1.27-1.92,5.64,5.64,0,0,1,2-.69,18.48,18.48,0,0,1,5.7.2,4.35,4.35,0,0,0,.51,0c1.46.09,2.93.16,4.39.28a4.8,4.8,0,0,1,2.42.93,2.28,2.28,0,0,1,1,2.06c0,1,0,2,0,3ZM17.7,36h0v2A1.82,1.82,0,0,0,19.55,40a28.25,28.25,0,0,0,2.91,0,2.32,2.32,0,0,0,2.38-2.49,19,19,0,0,1,.31-3.11A1.67,1.67,0,0,0,25,33a1.93,1.93,0,0,0-1.17-.88A12,12,0,0,0,19.49,32a3,3,0,0,0-.71.21,1.51,1.51,0,0,0-1.09,1.64C17.74,34.56,17.7,35.28,17.7,36Z" fill="#00ad99"/><path d="M47.67,38.9a4.12,4.12,0,0,1-1,.29c-.75,0-1.52,0-2.28,0-.53,0-.72-.25-.78-.77-.27-2.67,1.11-3.94,3.64-4.27,2.08-.28,4.17-.37,6.26-.55a25.67,25.67,0,0,1,2.75-.22,4.73,4.73,0,0,1,1.81.41,2.72,2.72,0,0,1,1.8,2.75c-.08,2.49,0,5-.09,7.48,0,1-.11,2-.21,3a3,3,0,0,1-1.48,2.1,5.79,5.79,0,0,1-1.84.72,11.89,11.89,0,0,1-2,.23c-2.06.11-4.12.22-6.18.28a4,4,0,0,1-4-2.94A12,12,0,0,1,44,43.56c.17-1.26,1.73-2.23,3.24-2.31s3-.17,4.52-.22a2.1,2.1,0,0,0,2.09-1.31A2.47,2.47,0,0,0,53.51,37a2.26,2.26,0,0,0-1.24-.75,12.14,12.14,0,0,0-3.13.12c-1.09.2-1.41.75-1.47,1.87C47.66,38.44,47.67,38.65,47.67,38.9Zm5.48,8.78a19.6,19.6,0,0,0,2.31-.43,1.89,1.89,0,0,0,1.33-1.93,2,2,0,0,0-1.44-2,8.44,8.44,0,0,0-4.46,0,1.32,1.32,0,0,0-1,.87c-.47,1.55-.25,2.59,1.27,3.15A12.44,12.44,0,0,0,53.15,47.68Z" fill="#fa3e33"/><path d="M112.7,50.64c-1.27,0-2.54.06-3.8,0a12.66,12.66,0,0,1-2.8-.5c-1.34-.41-1.71-1.22-1.45-2.59.18-1,.24-2,.35-3s.18-1.74.27-2.61c.11-1,1-1.32,1.72-1.63a6.06,6.06,0,0,1,2-.32c1.43,0,2.86,0,4.3,0,.7,0,1.4-.17,2.11-.18a11,11,0,0,1,5,.76,1.86,1.86,0,0,1,1.16,1.64c.14,1.45.33,2.9.51,4.34,0,.25.12.48.17.72A2.27,2.27,0,0,1,120.79,50a4.73,4.73,0,0,1-1.55.4c-2.18.15-4.36.24-6.54.35Zm.89-2.78H116a1.55,1.55,0,0,0,1.7-1.7c0-.67,0-1.35,0-2a1.52,1.52,0,0,0-1.28-1.61,10.26,10.26,0,0,0-4.58,0,1.26,1.26,0,0,0-1.06.95c-.22,1-.52,2-.65,3s.28,1.3,1.22,1.33C112.07,47.88,112.83,47.86,113.59,47.86Z" fill="#00ac98"/><path d="M110.35,25.75c1.18,0,2.37.09,3.54,0,1.77-.17,2.86,1.12,3,2.83a29.52,29.52,0,0,1-.18,3.75c0,.89-.06,1.77-.06,2.66a4.93,4.93,0,0,1-.68,2.37,2.43,2.43,0,0,1-2.23,1.36q-3.74,0-7.47,0a2.57,2.57,0,0,1-2.21-1.92,6.27,6.27,0,0,1-.3-1.71c0-2.07-.06-4.13,0-6.2a3.51,3.51,0,0,1,.3-1.58,2.47,2.47,0,0,1,2.38-1.54c1.31,0,2.62,0,3.92,0Zm-.89,8.18v0c.42,0,.85,0,1.27,0a2,2,0,0,0,1.91-2c0-.5,0-1,0-1.52a1.84,1.84,0,0,0-1.95-1.84c-.67,0-1.35,0-2,0a1.74,1.74,0,0,0-1.82,1.7,12.84,12.84,0,0,0,.24,2.62c.14.73.58,1,1.38,1Z" fill="#fc3f34"/><path d="M34.86,22.66a36.19,36.19,0,0,1,.35,7.27c.06,4.4,0,8.8.06,13.19,0,1.85.17,3.69.27,5.55-.29.16-.5.38-.72.39-1.18,0-2.36,0-3.54,0-.2,0-.4-.35-.56-.56s0-.25,0-.38q-.14-4-.28-7.94c-.09-2.19-.18-4.37-.28-6.56-.07-1.5-.16-3-.24-4.52s-.18-2.85-.24-4.27c0-.88,0-.91.93-1.15C32,23.33,33.39,23,34.86,22.66Z" fill="#f93e33"/><path d="M106,20.55c-.16,0-.37,0-.46-.11a.79.79,0,0,1-.22-.5c0-.07.21-.19.34-.23a3.93,3.93,0,0,1,.6-.06l1.22-.26-.06-.27-1.14.3c-1,0-1,0-1.25-.7l2.23-.37,1-.24,0-.22-.95.12-2.25.15-.19-.7,1.47-.32.75,0,.72,0,0-.19-.7,0h-.74l-1.54,0c0-.26-.46-.51,0-.77.59-.06,1.23.21,1.79-.19l1.74-.1v-.18h-1.73l-2,0v-.89l1.72-.18v-.16h-1.86l-.37-1,2.52-.14v-.22l-1.72,0c-.67,0-.67,0-1-.87L105,12v-.12l-.73,0c-.61-.07-.63-.13-.3-.88l2.25-.16v-.2H104c-.47-.23-.47-.23-.46-1l2.24-.09H107V9.29h-1.19L104,9.23c-.36,0-.78.09-.8-.51s.52-.34.79-.5h1A3.58,3.58,0,0,0,107,8h-3l-.13,0C103,8,103,8,103,7c.71,0,1.43,0,2.14,0,.14,0,.28-.16.42-.24l-.06-.19-2.73-.07a1.89,1.89,0,0,0-.11-.47c-.23-.43,0-.49.35-.54h4V5.25h-4c-.44,0-.59-.23-.44-.78,4.7,0,9.43.24,14.15.57a2,2,0,0,1-.08.61,2.47,2.47,0,0,0,.11,2.14l-.33,1-.16.35V12l.15.33.16,1-.81,0c-.07-.33-.15-.65-.22-1-.3-1.59-.59-3.17-.89-4.76l-.15-.36c-.35-1.29-.61-1.5-1.9-1.52a8.37,8.37,0,0,1-2-.11.9.9,0,0,0-1.21.55,11.7,11.7,0,0,0-.5,1.28c-.47,1.28-.28,1.3.71,2.07a3.45,3.45,0,0,0,.66.35,1.47,1.47,0,0,1,.9,1.23c.39,2.22.83,4.43,1.27,6.63a1.07,1.07,0,0,0,1.24,1c.76,0,1.51-.1,2.27-.15l0,1-1.9.18-.37.15-7.22,1.77a.82.82,0,0,1-.37.06c-.17,0-.42-.12-.47-.25-.16-.37.08-.52.43-.54l1.71-.29,0-.24Zm3.08-3.9-.21.09a.91.91,0,0,0,.21.15c.06,0,.13-.08.19-.12Z" fill="#f5ca00"/><path d="M102.19,25.27c0,.31,0,.47,0,.64.09,4.42.06,8.85.31,13.27.18,3,.11,5.89.2,8.84,0,.24,0,.48,0,.87H98.89c-.46,0-.68-.24-.71-.7-.08-1.21-.16-2.42-.27-3.63-.15-1.62-.33-3.24-.48-4.86-.1-1-.19-2-.26-3-.11-1.51-.16-3-.29-4.53s-.34-2.73-.45-4.1c-.07-.87,0-1.76,0-2.72a18.64,18.64,0,0,1,2.89-.08C100.23,25.25,101.16,25.27,102.19,25.27Z" fill="#00ae99"/><path d="M37,28.25l5,.37c0,.26.08.54.09.82,0,1,0,1.94,0,2.92q.12,8.79.23,17.58c0,.28,0,.57,0,1l-4.57.23c-.51,0-.79-.22-.77-.76,0-.17,0-.33,0-.5V28.25Z" fill="#00ae99"/><path d="M144.34,24.58a1.66,1.66,0,0,1-.35.13l-5.72.53c-.34,0-.67,0-1,0l-.32,0-2.23.2V25a10.51,10.51,0,0,0,1.12-.06c.15,0,.27-.17.41-.26l-.06-.19h-1.47v-.77l.42-.11-.42-.22V22.5l.48-.24-.23-.32v-.28l1,.07a1.08,1.08,0,0,0,0,.36,2,2,0,0,0,.23.36c.09-.15.23-.29.24-.44s-.18-.21-.28-.31c.12-.24.24-.68.37-.69.54,0,1.16-.29,1.59.36s.88.31,1.34.26c.23-.48,0-.76-.24-1.08-.72-1.12-1.42-2.26-2.15-3.38-.24-.38-.55-.72-.82-1.08a.31.31,0,0,1,0-.19l1.43-.08v-.2h-5.26l-.13-.48.35-.29.3-.21h3.47v-.23l-1-.08v-.73a7.58,7.58,0,0,0,2-.13,1,1,0,0,0,0-.23l-2.22-.15v-.45l6,.2,1.37,0c.08.21.16.26.28,0l1.27.16c0,1,0,1.91,0,2.87a4.43,4.43,0,0,0,.27,1l-.08.45-.67.25a3.75,3.75,0,0,1-.24-.44c-.39-1.05-.39-1.05-1.56-1l0-.27c.44-.34.34-.72.05-1.08s-.49-.65-.92-.38-.62,0-.93-.06c-.62-.09-1.33-.3-1.76.5l.76,1-.24.43c-.05.18-.18.38-.14.52.42,1.32.86,2.62,1.32,3.92.38,1.1.78,1.21,1.82.52-.16-.5-.31-1-.56-1.78a15.65,15.65,0,0,1,1.26,1.2,2,2,0,0,0,1.87.79ZM136,23.18c-.12.12-.26.19-.26.27a.3.3,0,0,0,.18.25.31.31,0,0,0,.25-.18C136.2,23.44,136.09,23.33,136,23.18Z" fill="#fbd700"/><path d="M129.59,9.29c.16.48.89.59.79,1.23l-.25.28.12.39-.15.16-.72-.1a3,3,0,0,0-.35-.19s-.08.09-.12.14l.4.13,1.09.49h0l.23.31c.43.23.26.65.31,1l-.46-.1-.27-.14.16.24.55.46.28.78-.27.11.15.15c.12.22.38.47.34.64-.15.59.25.92.49,1.34h-.71a3.72,3.72,0,0,0-.38-.22s-.08.09-.13.13l.44.16.55.47.29.46-.28.29-1-.3-.49-.14a.45.45,0,0,0,0,.08l.44.15,1,.48h0c.2.25.42.49.62.75s.28.35-.07.44a2,2,0,0,0-1.54-.71l-.36-.2-.13.27.5.19,1.27.79c-.62-.09-1.24-.16-1.85-.28a30.12,30.12,0,0,0-5.77-.27l-.51,0-.26-.2v-.43a13.92,13.92,0,0,0,1.58-.36,2.52,2.52,0,0,0,1.72-2.28c.25-3.82-.71-7.15-4.06-9.43V5.51a15.54,15.54,0,0,1,5,1c.56.23,1.21.4,1.38,1.13l-.54-.21c-.33-.14-.65-.28-1-.39-.06,0-.24.11-.24.18a.33.33,0,0,0,.17.27c.34.12.7.19,1.05.28l.48,0h0l.27.24h0c.09.38.73.47.55,1l-.76,0-.5-.29-.79-.25-.21-.09.24.37.69,0,.54.25Zm-1.72,4-.11-.18-.1.11.17.11.11.18.11-.11Zm3,2.06.19.21.08-.07-.23-.18c-.12-.08-.23-.16-.36-.23s-.08.1-.12.15Zm-.53-1.22.26.13-.16-.23-.77-.26a1.07,1.07,0,0,0-1.08-.33c.27.55.69.33,1,.4Zm-.93,4.17-.38-.14c0,.06-.06.15,0,.18a3.08,3.08,0,0,0,.27.24ZM128.86,10V9.87h-.65V10Zm1,7.25a2.73,2.73,0,0,0-.34-.08s-.08.1-.11.14a1.18,1.18,0,0,0,.3.1S129.81,17.3,129.87,17.23Zm.32-1.1-.22.08c.07.06.14.14.22.15s.13-.07.19-.11Zm-1.53-3.81.19-.12c-.06,0-.13-.11-.19-.1s-.14.09-.2.14ZM130.13,15a.77.77,0,0,0-.16-.07s-.06.05-.09.07.07.08.09.07A.46.46,0,0,0,130.13,15Zm-.88-4.94s-.08,0-.08.07a.48.48,0,0,0,.08.16l.08-.07A.8.8,0,0,0,129.25,10.05Zm.63.37s-.06-.08-.08-.08a.65.65,0,0,0-.17.08s.06.08.08.08Z" fill="#f6ad00"/><path d="M156.74,22,156,19.9c.84.2,1.49.39,2.16.5,1.27.22,2.54.39,3.81.59a4.83,4.83,0,0,1,.7.24,6.21,6.21,0,0,0-.25,1.18c0,2,0,4,0,6a17.55,17.55,0,0,1-5.54,1.19l-.33-.28.76-.54c-1.15,0-2.21.57-3.31,0l-.14-.25a2.2,2.2,0,0,1,.79-.25,10.89,10.89,0,0,0,3.89-.56c.36.07.62,0,.78-.58l-.74.35h-.66l-.59-2.24,2.21-.35,0-.18h-2.22l-.35-1H158l1,0h.7v-.19H158l-.36,0c-.84-.09-.84-.09-.92-1l1,0A.85.85,0,0,0,156.74,22Zm1.4,4.06.05.23.79-.07,0-.2Zm.43,2.49a.91.91,0,0,0-.23-.21c-.05,0-.15,0-.22.07l.3.34Z" fill="#f6ad00"/><path d="M162.4,28.43c0-2,0-4,0-6a6.21,6.21,0,0,1,.25-1.18l.51,0,.58.17a10.26,10.26,0,0,1,3.25.46,22.53,22.53,0,0,0-.29,4,8.22,8.22,0,0,1,0,.86A16.32,16.32,0,0,1,162.4,28.43Z" fill="#fbbc00"/><path d="M149.15,24.43h-.49v-2.9a1.74,1.74,0,0,0,1.18-2.25c-.06-.28-.12-.56-.17-.84l.21-.26,1.51,1.2-1.19.16A4.25,4.25,0,0,0,154.51,22c.22,0,.45.16.67.24l-.67.33h-.45a3.88,3.88,0,0,0,.23.33.48.48,0,0,0,.22.05c.38.11.8.12,1,.54V24l-.44.05.23.43-.05.28a10,10,0,0,0-3.17-.29l-2.65-.05Zm3.94-.81c.49,0,.91.56,1.53.17A1.42,1.42,0,0,0,153.09,23.62Z" fill="#fbbc00"/><path d="M155.18,22.21c-.22-.08-.45-.26-.67-.24a4.25,4.25,0,0,1-4.31-2.44l1.19-.16-1.51-1.2-.39-.54c-.06-1.12,0-1.18.94-1.58a4.2,4.2,0,0,1,.62.06,7.7,7.7,0,0,1,3.19,1c.23.28.48.55.69.84s0,.37-.2.43a5,5,0,0,0-.93-.14,8,8,0,0,0-1.08.13l-.1-.2-.12.12.22.08,1,.74.41.51c.23.28.47.54.68.83.08.1.15.31.1.37-.37.45-.2.72.24,1,0,0,0,.25,0,.39Zm-3.33-2.83-.18.25a1.47,1.47,0,0,0,1.72.74Zm-.53-2-.15.37c.38,0,.55.6,1.26.16Z" fill="#150f00"/><path d="M136,21.73l-1-.07c-.25-.63-.78-.49-1.28-.45v-.45l1,.11V20l0-1.82,0-.89,0-.41v-.7l.55,0,1,0c.27.36.58.7.82,1.08.73,1.12,1.43,2.26,2.15,3.38.2.32.47.6.24,1.08-.46.05-1,.25-1.34-.26s-1-.39-1.59-.36c-.13,0-.25.45-.37.69A.34.34,0,0,0,136,21.73Zm.34-3c0,.07-.08.11-.07.14a3.58,3.58,0,0,0,.16.56s.15,0,.23,0a2.84,2.84,0,0,0-.06-.51C136.54,18.81,136.4,18.77,136.31,18.71Z" fill="#080600"/><path d="M166.67,26.77a8.22,8.22,0,0,0,0-.86,22.53,22.53,0,0,1,.29-4l1.23.11c.07.2.15.27.28,0l4.23.69A17.73,17.73,0,0,1,166.67,26.77Z" fill="#f8c600"/><path d="M123.54,18.49v.43a1.36,1.36,0,0,1,0,.2l-7.6.43,0-1c.36-.17.65-.38.6-.83s-.09-.91-.18-1.36c-.18-1-.39-2-.59-3l.81,0,.41,1c1,2.42,2.55,4,5.32,4.15l.28,0Z" fill="#f3c000"/><path d="M148.66,21.52v2.9l-2.75.11-1.57,0V21.5c.44-.18.29-.55.22-.84-.11-.5-.29-1-.44-1.49l.26-.32a4.83,4.83,0,0,1,.37.62,3.46,3.46,0,0,0,2.19,1.88A8.8,8.8,0,0,0,148.66,21.52Z" fill="#f8c600"/><path d="M150.43,16.05c-1,.4-1,.46-.94,1.58l-.26,0A3.47,3.47,0,0,0,146.12,16l.26-2.88,4.05.27Z" fill="#f8c600"/><path d="M130.64,22.65h-3.49l-.54-2.7c.57,0,1.1.08,1.62,0,.25,0,.55.38.81.58.08-.14.18-.49.35-.54a.57.57,0,0,1,.75.47c.09.41.17.81.26,1.22v.51Zm-1.39-.44c.13-.62.31-1-.12-1.22a.11.11,0,0,0-.11,0C128.64,21.43,129.23,21.61,129.25,22.21Zm-1.59-.8h.13v-.66h-.13Z" fill="#eba600"/><path d="M150.43,16.05V13.39a4.81,4.81,0,0,1,3,1h-1.19l0,.13,1.54.56a2,2,0,0,1,.38.32c.32.41-.07.44-.33.55a3.56,3.56,0,0,1,.66.62.35.35,0,0,1-.22.58,7.7,7.7,0,0,0-3.19-1A4.2,4.2,0,0,0,150.43,16.05Zm2.46-.41,0-.23h-.64v.13Z" fill="#f6ad00"/><path d="M153.55,27.31c-.06.15-.07.35-.17.42s-.39,0-.41-.06a4.17,4.17,0,0,1-.36-2.77l.77,1.05c.21-.77.21-.77.89-.44l.28,1,.18,0v-1c.94-.15.88.66,1.16,1.31l.25-.77c.11,0,.18,0,.19,0,.16.32.31.65.46,1a5.34,5.34,0,0,1-1.09.45,9.08,9.08,0,0,1-1.65,0c-.12,0-.25-.16-.37-.25v-.69l-.23,0Z" fill="#eba600"/><path d="M122.78,5.51v.91A6.11,6.11,0,0,0,120,5.93a4,4,0,0,0-3.3,1.87,2.47,2.47,0,0,1-.11-2.14,2,2,0,0,0,.08-.61l4,.24C121.37,5.34,122.07,5.44,122.78,5.51Z" fill="#f3c000"/><path d="M146.38,13.12,146.12,16a2.31,2.31,0,0,0-1.74.95,4.43,4.43,0,0,1-.27-1c0-1,0-1.92,0-2.87Z" fill="#f5ca00"/><path d="M134.71,25v.47a14.73,14.73,0,0,1-4.82-.3l.31-.49h.71l1,.07.33.13h1.14l0-.21-.73-.18-1-.07c-.19-.39-.52-.18-.8-.19l-.47-.07v-.69h.26c.06.21.14.26.24,0l.76,0a8.19,8.19,0,0,0,2.79.14l.27,0v.77a2.74,2.74,0,0,0-.36.23C134.17,24.9,134.22,24.94,134.71,25Z" fill="#f3c000"/><path d="M130.64,22.65l-.24-.44c.46.06.57-.16.45-.57l-.21-1.43c.64.14,1.08.3,1.05,1-.06.35,0,.62.53.66L132,21.2c.12-.4.13-.41.23-.32a2.45,2.45,0,0,1,.53.48c.39.57.27,1-.37,1.09A16.27,16.27,0,0,1,130.64,22.65Z" fill="#f6ad00"/><path d="M134.61,18.13l0,1.82h-1.16a3,3,0,0,1-.49-1.83Z" fill="#bc8300"/><path d="M135.46,13.58v.73l-3.3,0c0-.25-.48-.5,0-.77h1.51Z" fill="#f8c600"/><path d="M130.2,24.72l-.31.49a3.5,3.5,0,0,1-2.54-1.47c.4-.56.68,0,1,0,.18.36.49.31.8.25l0,0,.24.28Z" fill="#eba600"/><path d="M156.53,29.34l.33.28c-1.16.33-2.31.65-3.44-.08-.1-.06-.14-.19-.31-.41l.88-.05A3.77,3.77,0,0,0,156.53,29.34Z" fill="#eba600"/><path d="M153.75,19.15l-1-.74h0a8,8,0,0,1,1.08-.13,5,5,0,0,1,.93.14l.57,1.17-.69.1h-.08C154.57,19.1,154.11,19.18,153.75,19.15Z" fill="#bc8300"/><path d="M135.21,12.62v.45l-1.55.07-1.53.08-.58-.45a4,4,0,0,1,1.91-.21C134.05,12.55,134.63,12.6,135.21,12.62Z" fill="#f3c000"/><path d="M154.53,19.7h.08c.39.36,1.08.53.72,1.33-.05.11.25.37.35.58s.14.48-.2.58l-.32,0c0-.14.07-.37,0-.39-.44-.25-.61-.52-.24-1,.05-.06,0-.27-.1-.37-.21-.29-.45-.55-.68-.83Z" fill="#eba600"/><path d="M135.22,16.11l-.55,0c-.49,0-1,0-1.47,0a2.16,2.16,0,0,0-.61.26l-.16-.8h3.29v.26Z" fill="#5d4600"/><path d="M160.11,30.6c.06.12.22.3.18.35-.25.36-.54.7-.88,1.11-.46-.46-.78-.77-1.07-1.1,0,0,.11-.23.17-.36l1,.38C159.59,30.73,159.73,30.49,160.11,30.6Z" fill="#150f00"/><path d="M134.71,22.5v.93l-.26.05c-.46,0-.92,0-1.37,0-.13,0-.25-.14-.38-.21l1-.75Z" fill="#f3c000"/><path d="M132.59,16.41a2.16,2.16,0,0,1,.61-.26c.49,0,1,0,1.47,0v.7l-.75.12a3.78,3.78,0,0,0-.75-.05C132.78,16.94,132.65,16.73,132.59,16.41Z" fill="#f8c600"/><path d="M102.35,2.37c-.88.68-.95.7-1.41.14a2.26,2.26,0,0,1-.25-.66c.27-.06.58-.24.8-.16S102,2.08,102.35,2.37Z" fill="#eba600"/><path d="M156.53,29.34a3.77,3.77,0,0,1-2.54-.26,2.18,2.18,0,0,0,0-.25c1.1.54,2.16,0,3.31,0Z" fill="#422d00"/><path d="M102.74,6.47l2.73.07.06.19c-.14.08-.28.23-.42.24-.71,0-1.43,0-2.14,0Z" fill="#5d4600"/><path d="M134.61,18.13H133c-.17-.43-.22-.8.45-.76a1.54,1.54,0,0,0,.46-.11l.73,0Z" fill="#f8c600"/><path d="M132.17,14.34l3.3,0,1,.08v.23H133l-.3.21-.35.29Z" fill="#5d4600"/><path d="M133.49,20h1.16v.92l-1-.11A.61.61,0,0,1,133.49,20Z" fill="#f3c000"/><path d="M132.7,23.25c.13.07.25.2.38.21.45,0,.91,0,1.37,0a1.93,1.93,0,0,1,0,.24,8.19,8.19,0,0,1-2.79-.14C131.84,23,132.34,23.32,132.7,23.25Z" fill="#5d4600"/><path d="M130.39,23.52v.69l-.67,0-.61-.25,0,0-.49-.27c.11-.09.21-.25.32-.25C129.44,23.47,129.92,23.5,130.39,23.52Z" fill="#f6ad00"/><path d="M105,18.16l2.25-.15v.34l-2.23.37Z" fill="#150f00"/><path d="M104.51,15.61l2,0v.28c-.56.4-1.2.13-1.79.19Z" fill="#5d4600"/><path d="M155.16,22.22l.32,0a.21.21,0,0,1,0,.19c-.08.28-.13.54.27.62l0,0a.6.6,0,0,1,0,.23v.28a.7.7,0,0,1-.25,0c-.21-.42-.63-.43-1-.54v-.38l.67-.33Z" fill="#422d00"/><path d="M133.69,21.21c.5,0,1-.18,1.28.45v.28l-1.21,0Z" fill="#f3c000"/><path d="M157.28,24.77h2.22l0,.18-2.21.35Z" fill="#422d00"/><path d="M133.75,21.9l1.21,0,.23.32-.48.24h-1Z" fill="#5d4600"/><path d="M132.13,13.22l1.53-.08v.42h-1.51Z" fill="#422d00"/><path d="M104,10.58h2.22v.2l-2.25.16Z" fill="#5d4600"/><path d="M160.11,30.6c-.38-.11-.52.13-.62.38l-1-.38c.32-.45.83-.44,1.3-.51l.27.22Z" fill="#00ac98"/><path d="M130.65,18.64a2,2,0,0,1,1.54.71l0,.32h-.27l0,0-1.27-.79Z" fill="#150f00"/><path d="M153.75,15.08l-1.54-.56,0-.13h1.19C153.66,14.56,154.15,14.61,153.75,15.08Z" fill="#422d00"/><path d="M104.76,16.89l1.54,0a.41.41,0,0,0,0,.22l-1.47.32Z" fill="#5d4600"/><path d="M106,20.55l1.69-.16,0,.24-1.71.29Z" fill="#422d00"/><path d="M155.3,24.45l-.23-.43.44-.05.76.27-.22.48-.28.06h0Z" fill="#422d00"/><path d="M156.74,22a.85.85,0,0,1,1,.42l-1,0Z" fill="#876600"/><path d="M106.29,19.42l1.14-.3.06.27-1.22.26A.86.86,0,0,0,106.29,19.42Z" fill="#5d4600"/><path d="M103,5.26h1.52a.82.82,0,0,1,0,.22H103A.67.67,0,0,0,103,5.26Z" fill="#422d00"/><path d="M156.27,24.24l-.76-.27v-.51a.7.7,0,0,0,.25,0Z" fill="#eba600"/><path d="M154.73,25.51v1l-.18,0-.28-1Z" fill="#422d00"/><path d="M105.77,9.29H107V9.5h-1.19A.74.74,0,0,0,105.77,9.29Z" fill="#422d00"/><path d="M132,21.2l.26.65c-.53,0-.59-.31-.53-.66Z" fill="#5d4600"/><path d="M158.56,27.54l.74-.35c-.16.57-.42.65-.78.58A.62.62,0,0,0,158.56,27.54Z" fill="#876600"/><path d="M134.64,17.24l-.73,0V17l.75-.12Z" fill="#422d00"/><path d="M131.66,17.15l-.55-.47.07-.07h.71Z" fill="#422d00"/><path d="M105,8.23h-1a1.27,1.27,0,0,0,0-.2h1A.79.79,0,0,1,105,8.23Z" fill="#422d00"/><path d="M158,23.52h1a.61.61,0,0,1,0,.19l-1,0A.74.74,0,0,0,158,23.52Z" fill="#422d00"/><path d="M130.85,21.64c.12.41,0,.63-.45.57V21.7Z" fill="#bc8300"/><path d="M130.25,11.19c.29.09.46.26.37.59a.5.5,0,0,0-.24,0h0l-.3-.47Z" fill="#f6ad00"/><path d="M129.59,9.29,129.11,9l0,0,.76,0,0,0,0,.28h-.25Z" fill="#150f00"/><path d="M130.9,13.58l-.55-.46.11-.1.46.1Z" fill="#422d00"/><path d="M131.67,17.9l.28-.29.2.38-.51.17h0Z" fill="#bc8300"/><path d="M128.65,23.73l.49.27c-.31.06-.62.11-.8-.25Z" fill="#150f00"/><path d="M153.55,27.31l-.1-.67.23,0v.69h-.13Z" fill="#422d00"/><path d="M129.35,7.74l.44.1-.44.19h0Z" fill="#5d4600"/><path d="M155.3,24.45l.46.32-.51,0Z" fill="#bc8300"/><path d="M155.77,24.78l.28-.06.23.28,0,0Z" fill="#5d4600"/><path d="M155.78,23c-.4-.08-.35-.34-.27-.62Z" fill="#eba600"/><path d="M163.71,21.43l-.58-.17Z" fill="#f6ad00"/><path d="M131.06,14.62l-.15-.15.27-.11.17.13Z" fill="#422d00"/><path d="M128.62,7.42l.54.21a.77.77,0,0,1-.07.16l-.48,0Z" fill="#422d00"/><path d="M155.77,23.19a.6.6,0,0,0,0-.23l.19.16Z" fill="#eba600"/><path d="M130.89,23.55c-.1.24-.18.19-.24,0Z" fill="#f6ad00"/><path d="M131.9,19.67h.27l-.08.2Z" fill="#f6ad00"/><path d="M113.65,19.88l.37-.15Z" fill="#f3c000"/><path d="M149.15,24.43l.28,0Z" fill="#bc8300"/><path d="M129.35,7.74V8l-.27-.24Z" fill="#422d00"/><path d="M129.84,9.29l0-.28.23.15Z" fill="#f6ad00"/><path d="M123.52,19.12a1.36,1.36,0,0,0,0-.2l.26.2Z" fill="#bc8300"/><path d="M156.28,25l.18.11-.1.09-.1-.17Z" fill="#5d4600"/><path d="M142.84,12.88c-.12.24-.2.19-.28,0Z" fill="#bc8300"/><path d="M136.94,25.31l.32,0C137.17,25.48,137.07,25.51,136.94,25.31Z" fill="#bc8300"/><path d="M130.13,10.8l.25-.28Z" fill="#422d00"/><path d="M168.47,22c-.13.23-.21.16-.28,0Z" fill="#bc8300"/><path d="M130.38,11.81a.5.5,0,0,1,.24,0v.34Z" fill="#422d00"/><path d="M160.08,30.31l-.27-.22Z" fill="#150f00"/><path d="M71.58,43.34a12.74,12.74,0,0,1-1.87-.22,2.25,2.25,0,0,1-1.95-2.38c-.05-2.15-.05-4.31,0-6.46a1.58,1.58,0,0,1,.38-.89,2.21,2.21,0,0,1,.89-.66,7.59,7.59,0,0,1,4.57-.12,1.89,1.89,0,0,1,1.48,1.93c0,1.39,0,2.79,0,4.18a19.13,19.13,0,0,0,.19,2,2.29,2.29,0,0,1-2.19,2.55c-.5.05-1,0-1.52,0Z" fill="#000202"/><path d="M151,46.33c-.42,0-.84,0-1.26,0a2.72,2.72,0,0,1-2.57-2.45,2.54,2.54,0,0,1,2.15-2.64,7.84,7.84,0,0,1,3.82,0,2.63,2.63,0,0,1,1.26,4.24,2.37,2.37,0,0,1-1.75.84c-.55,0-1.1,0-1.65,0Z" fill="#000403"/><path d="M89.66,46.43A14.91,14.91,0,0,1,87.33,46a2.18,2.18,0,0,1-1.57-2,2.24,2.24,0,0,1,1.49-2.13,7.68,7.68,0,0,1,4.2-.17,1.32,1.32,0,0,1,1.13,1.42,11.36,11.36,0,0,1,0,1.65,1.52,1.52,0,0,1-1.51,1.54c-.46,0-.93,0-1.39,0Z" fill="#060100"/><path d="M17.7,36c0-.71,0-1.43,0-2.14a1.51,1.51,0,0,1,1.09-1.64,3,3,0,0,1,.71-.21,12,12,0,0,1,4.35.08A1.93,1.93,0,0,1,25,33a1.67,1.67,0,0,1,.14,1.41,19,19,0,0,0-.31,3.11A2.32,2.32,0,0,1,22.46,40a28.25,28.25,0,0,1-2.91,0A1.82,1.82,0,0,1,17.73,38V36Z" fill="#000202"/><path d="M53.15,47.68a12.44,12.44,0,0,1-2-.35c-1.52-.56-1.74-1.6-1.27-3.15a1.32,1.32,0,0,1,1-.87,8.44,8.44,0,0,1,4.46,0,2,2,0,0,1,1.44,2,1.89,1.89,0,0,1-1.33,1.93A19.6,19.6,0,0,1,53.15,47.68Z" fill="#060100"/><path d="M113.59,47.86c-.76,0-1.52,0-2.27,0-.94,0-1.34-.39-1.22-1.33s.43-2,.65-3a1.26,1.26,0,0,1,1.06-.95,10.26,10.26,0,0,1,4.58,0,1.52,1.52,0,0,1,1.28,1.61c0,.67,0,1.35,0,2a1.55,1.55,0,0,1-1.7,1.7h-2.4Z" fill="#000403"/><path d="M109.46,33.93h-1c-.8,0-1.24-.29-1.38-1a12.84,12.84,0,0,1-.24-2.62,1.74,1.74,0,0,1,1.82-1.7c.68,0,1.36,0,2,0a1.84,1.84,0,0,1,1.95,1.84c0,.51,0,1,0,1.52a2,2,0,0,1-1.91,2c-.42,0-.85,0-1.27,0Z" fill="#060100"/><path d="M116.71,7.8A4,4,0,0,1,120,5.93a6.11,6.11,0,0,1,2.77.49c3.35,2.28,4.31,5.61,4.06,9.43a2.52,2.52,0,0,1-1.72,2.28,13.92,13.92,0,0,1-1.58.36l-1,0-.28,0c-2.77-.11-4.36-1.73-5.32-4.15l-.41-1-.16-1-.15-.33V9.13l.16-.35Zm3.53,3a8.76,8.76,0,0,0,.75,3.32,2.08,2.08,0,0,0,.47.73.93.93,0,0,0,1.14.21,1.23,1.23,0,0,0,.41-.83,9,9,0,0,0-.85-3.86c-.32-.71-.9-1.14-1.28-1C120.2,9.62,120.18,10.22,120.24,10.76Z" fill="#030200"/><path d="M115.72,13.34c.2,1,.41,2,.59,3,.09.45.12.91.18,1.36s-.24.66-.6.83c-.76.05-1.51.13-2.27.15a1.07,1.07,0,0,1-1.24-1c-.44-2.2-.88-4.41-1.27-6.63a1.47,1.47,0,0,0-.9-1.23,3.45,3.45,0,0,1-.66-.35c-1-.77-1.18-.79-.71-2.07a11.7,11.7,0,0,1,.5-1.28.9.9,0,0,1,1.21-.55,8.37,8.37,0,0,0,2,.11c1.29,0,1.55.23,1.9,1.52l.15.36c.3,1.59.59,3.17.89,4.76C115.57,12.69,115.65,13,115.72,13.34Z" fill="#030200"/><path d="M104.51,5.47a.82.82,0,0,0,0-.22H107v.22Z" fill="#876600"/><path d="M105,8.23A.79.79,0,0,0,105,8H107A3.58,3.58,0,0,1,105,8.23Z" fill="#876600"/><path d="M106.55,15.93v-.28h1.73v.18Z" fill="#000202"/><path d="M107.27,18.35V18l.95-.12,0,.22Z" fill="#5d4600"/><path d="M106.29,17.14a.41.41,0,0,1,0-.22H107a.61.61,0,0,1,0,.19Z" fill="#000202"/><path d="M107,17.11a.61.61,0,0,0,0-.19l.7,0,0,.19Z" fill="#422d00"/><path d="M109.09,16.65l.19.12c-.06,0-.13.13-.19.12a.91.91,0,0,1-.21-.15Z" fill="#876600"/><path d="M114.61,7.61l-.15-.36Z" fill="#f3c000"/><path d="M116.38,8.78l-.16.35Z" fill="#f3c000"/><path d="M116.22,12l.15.33Z" fill="#f3c000"/><path d="M144.12,19.17c.15.5.33,1,.44,1.49.07.29.22.66-.22.84a2,2,0,0,1-1.87-.79,15.65,15.65,0,0,0-1.26-1.2c.25.78.4,1.28.56,1.78-1,.69-1.44.58-1.82-.52-.46-1.3-.9-2.6-1.32-3.92,0-.14.09-.34.14-.52a2.23,2.23,0,0,1,2,.76,7.86,7.86,0,0,0,1,.85l.2.16-.13-.24a3.49,3.49,0,0,0-.19-.93c-.17-.34,0-.52.17-.74,1.17,0,1.17,0,1.56,1a3.75,3.75,0,0,0,.24.44Z" fill="#080600"/><path d="M144.38,17a2.31,2.31,0,0,1,1.74-.95,3.47,3.47,0,0,1,3.11,1.65l.44.78c.05.28.11.56.17.84a1.74,1.74,0,0,1-1.18,2.25,8.8,8.8,0,0,1-1.72-.17,3.46,3.46,0,0,1-2.19-1.88,4.83,4.83,0,0,0-.37-.62l-.08-1.45Zm3.69,2.93a1.88,1.88,0,0,0-.92-2.3.78.78,0,0,0-1.18.68,2.42,2.42,0,0,0,.73,1.42A1.37,1.37,0,0,0,148.07,19.88Z" fill="#080600"/><path d="M139,15.9l-.76-1c.43-.8,1.14-.59,1.76-.5.31,0,.57.29.93.06s.69.08.92.38.39.74-.05,1.08a6.68,6.68,0,0,1-1.08.15C140.16,16.05,139.58,16,139,15.9Z" fill="#150f00"/><path d="M139,15.9c.57.06,1.15.15,1.72.17a6.68,6.68,0,0,0,1.08-.15l0,.27c-.15.22-.34.4-.17.74a3.49,3.49,0,0,1,.19.93l-.07.08a7.86,7.86,0,0,1-1-.85,2.23,2.23,0,0,0-2-.76Z" fill="#f3c000"/><path d="M133.67,13.56v-.42l1.55-.07,2.22.15a1,1,0,0,1,0,.23,7.58,7.58,0,0,1-2,.13Z" fill="#876600"/><path d="M144.3,17.4l.08,1.45-.26.32-.49-1.52Z" fill="#f5ca00"/><path d="M134.71,25c-.49-.1-.54-.14-.36-.28a2.74,2.74,0,0,1,.36-.23h1.47l.06.19c-.14.09-.26.24-.41.26A10.51,10.51,0,0,1,134.71,25Z" fill="#876600"/><path d="M135.71,15.88v-.26h2v.2l-1.43.08Z" fill="#422d00"/><path d="M136,21.73a.34.34,0,0,1,.2,0c.1.1.29.21.28.31s-.15.29-.24.44a2,2,0,0,1-.23-.36A1.08,1.08,0,0,1,136,21.73Z" fill="#bc8300"/><path d="M136,23.18c.08.15.19.26.17.34a.31.31,0,0,1-.25.18.3.3,0,0,1-.18-.25C135.75,23.37,135.89,23.3,136,23.18Z" fill="#876600"/><path d="M135.71,15.88l.55,0a.31.31,0,0,0,0,.19l-1,0Z" fill="#876600"/><path d="M134.44,23.72a1.93,1.93,0,0,0,0-.24l.26-.05.42.22-.42.11Z" fill="#876600"/><path d="M132.65,14.84l.3-.21Z" fill="#bc8300"/><path d="M128.62,7.42v.34c-.35-.09-.71-.16-1.05-.28a.33.33,0,0,1-.17-.27c0-.07.18-.2.24-.18C128,7.14,128.29,7.28,128.62,7.42Z" fill="#876600"/><path d="M129.59,13.87c-.32-.07-.74.15-1-.4a1.07,1.07,0,0,1,1.08.33Z" fill="#5d4600"/><path d="M130.1,11.35l.3.47-1.09-.49.07-.08Z" fill="#422d00"/><path d="M131.67,17.9l0,.27-1-.48.08-.09Z" fill="#422d00"/><path d="M130.65,18.64v.26l-.5-.19.13-.27Z" fill="#5d4600"/><path d="M129.66,13.8l.77.26-.1.1-.74-.29Z" fill="#422d00"/><path d="M129.4,18.33l-.15.28a3.08,3.08,0,0,1-.27-.24s0-.12,0-.18Z" fill="#bc8300"/><path d="M128.86,10h-.65V9.87h.65Z" fill="#150f00"/><path d="M128.57,8.79l-.69,0,0-.28.79.25Z" fill="#422d00"/><path d="M127.85,8.46l0,.28-.24-.37Z" fill="#876600"/><path d="M129.11,9l-.54-.25.07-.08.5.29Z" fill="#150f00"/><path d="M130.86,15.38l-.44-.12s.11-.16.12-.15.24.15.36.23Z" fill="#5d4600"/><path d="M129.87,17.23c-.06.07-.11.17-.15.16a1.18,1.18,0,0,1-.3-.1s.07-.14.11-.14A2.73,2.73,0,0,1,129.87,17.23Z" fill="#422d00"/><path d="M129.31,11.33l-.4-.13s.1-.14.12-.14a3,3,0,0,1,.35.19Z" fill="#876600"/><path d="M131.11,16.68l-.44-.16c.05,0,.11-.14.13-.13a3.72,3.72,0,0,1,.38.22Z" fill="#422d00"/><path d="M130.19,16.13l.19.12c-.06,0-.14.13-.19.11s-.15-.09-.22-.15Z" fill="#422d00"/><path d="M128.66,12.32l-.2-.08c.06-.05.13-.13.2-.14s.13.06.19.1Z" fill="#5d4600"/><path d="M130.61,17.69l-.44-.15a.45.45,0,0,1,0-.08l.49.14Z" fill="#422d00"/><path d="M130.13,15a.46.46,0,0,1-.16.07s-.06,0-.09-.07.07-.08.09-.07A.77.77,0,0,1,130.13,15Z" fill="#5d4600"/><path d="M130.43,14.06l.16.23-.26-.13Z" fill="#422d00"/><path d="M127.87,13.32l.18.11-.11.11-.11-.18Z" fill="#bc8300"/><path d="M129.25,10.05a.8.8,0,0,1,.08.16l-.08.07a.48.48,0,0,1-.08-.16S129.22,10.07,129.25,10.05Z" fill="#422d00"/><path d="M129.88,10.42l-.17.08s-.05-.05-.08-.08a.65.65,0,0,1,.17-.08S129.85,10.39,129.88,10.42Z" fill="#422d00"/><path d="M127.83,13.36l-.17-.11.1-.11.11.18Z" fill="#bc8300"/><path d="M130.9,15.34l.23.18-.08.07-.19-.21Z" fill="#040504"/><path d="M130.35,13.12l-.16-.24.27.14Z" fill="#422d00"/><path d="M158.14,26.06l.82,0,0,.2-.79.07Z" fill="#5d4600"/><path d="M158.57,28.55l-.15.2-.3-.34c.07,0,.17-.1.22-.07A.91.91,0,0,1,158.57,28.55Z" fill="#876600"/><path d="M159.05,23.71a.61.61,0,0,0,0-.19h.69v.19Z" fill="#876600"/><path d="M153.09,23.62a1.42,1.42,0,0,1,1.53.17C154,24.18,153.58,23.63,153.09,23.62Z" fill="#422d00"/><path d="M149.67,18.43l-.44-.78.26,0,.39.54Z" fill="#f6ad00"/><path d="M154.51,22.54v.38a.48.48,0,0,1-.22-.05,3.88,3.88,0,0,1-.23-.33Z" fill="#5d4600"/><path d="M151.85,19.38l1.54,1a1.47,1.47,0,0,1-1.72-.74Z" fill="#bc8300"/><path d="M151.32,17.38l1.11.53c-.71.44-.88-.15-1.26-.16Z" fill="#bc8300"/><path d="M154.53,19.7l-.37,0-.41-.51C154.11,19.18,154.57,19.1,154.53,19.7Z" fill="#422d00"/><path d="M152.72,18.41l-.22-.08.12-.12.1.2Z" fill="#bc8300"/><path d="M136.31,18.71c.09.06.23.1.26.18a2.84,2.84,0,0,1,.06.51c-.08,0-.22,0-.23,0a3.58,3.58,0,0,1-.16-.56S136.27,18.78,136.31,18.71Z" fill="#bc8300"/><path d="M122.26,18.48l.28,0Z" fill="#bc8300"/><path d="M129.25,22.21c0-.6-.61-.78-.23-1.21a.11.11,0,0,1,.11,0C129.56,21.24,129.38,21.59,129.25,22.21Z" fill="#876600"/><path d="M127.66,21.41v-.66h.13v.66Z" fill="#150f00"/><path d="M152.89,15.64l-.61-.1v-.13h.64Z" fill="#422d00"/><path d="M132.62,24.93h-.41l-.33-.13-1-.07a.89.89,0,0,1,0-.23l.76,0,1,.07Z" fill="#150f00"/><path d="M130.9,24.5a.89.89,0,0,0,0,.23h-.71l-.85-.46.37,0,.67,0,.47.07A.85.85,0,0,1,130.9,24.5Z" fill="#422d00"/><path d="M132.62,24.93l0-.39.73.18,0,.21Z" fill="#876600"/><path d="M130.9,24.5a.85.85,0,0,0,0-.22c.28,0,.61-.2.8.19Z" fill="#bc8300"/><path d="M131.88,24.8l.33.13Z" fill="#876600"/><path d="M129.72,24.23l-.37,0-.24-.28Z" fill="#150f00"/><path d="M120.24,10.76c-.06-.54,0-1.14.64-1.41.38-.16,1,.27,1.28,1a9,9,0,0,1,.85,3.86,1.23,1.23,0,0,1-.41.83.93.93,0,0,1-1.14-.21,2.08,2.08,0,0,1-.47-.73A8.76,8.76,0,0,1,120.24,10.76Z" fill="#fbbc00"/><path d="M141.85,17.86l.13.24-.2-.16Z" fill="#f3c000"/><path d="M148.07,19.88a1.37,1.37,0,0,1-1.37-.2,2.42,2.42,0,0,1-.73-1.42.78.78,0,0,1,1.18-.68A1.88,1.88,0,0,1,148.07,19.88Z" fill="#f3c000"/></g></g></svg>