<svg xmlns="http://www.w3.org/2000/svg" viewBox="0 0 189.22 92.77"><defs><style>.cls-1{fill:#fff;}</style></defs><title>logo-alto-las-condes</title><g id="Layer_2" data-name="Layer 2"><g id="Capa_1" data-name="Capa 1"><path d="M77.56,57.15c.82,0,2,1.13,4.2,1.13,3.2,0,4.79-2.13,4.79-5S85.23,49.45,82,48.88c-3.67-.65-4.42-1.09-4.42-3.05a3,3,0,0,1,3.21-3.22c2.95,0,4.32,2.24,4.53,4.72h.35V42.76h-.35c-.07.28-.14.83-.64.83-.76,0-1.62-1.33-3.89-1.33a4,4,0,0,0-4.13,4.29c0,3.66,1.63,4.22,5.1,4.77,2.53.39,3.73,1.06,3.73,3.33a3.33,3.33,0,0,1-3.64,3.29c-2.65,0-4.84-1.72-4.84-5.38h-.35v5.51H77c0-.37,0-.92.55-.92"/><path d="M65.11,52.62,67.28,46h0l2.28,6.6Zm3.3-10.36h-.25l-4.75,14c-.41,1.23-.7,1.29-1.39,1.29h-.7v.35h4.55v-.35H64.72c-.71,0-1-.24-1-.55a4.47,4.47,0,0,1,.33-1.32L65,53h4.72l1.59,4.62H69.14v.35h6.47v-.35H73.77Z"/><path d="M54.43,57.59H51.67V43h2.2v-.34H47.21V43h2.21V57.59H47.21v.35H60.34v-5H60c0,4.11-1.32,4.66-5.56,4.66"/><path d="M11.25,62.9c-.81,0-1.79-1.58-4-1.58-3.73,0-7,3.54-7,8s3.25,8,7,8c2.28,0,3.45-1.7,4.11-1.7s.75.65.75,1.09h.35V71.57h-.35C12.07,74.3,10,77,7.21,77c-3.92,0-4.46-4.81-4.46-7.66s.54-7.67,4.46-7.67a5.05,5.05,0,0,1,4.86,5h.35V62h-.35c0,.52-.2.93-.82.93"/><path d="M21.62,77c-3.94,0-4.47-4.81-4.47-7.66s.53-7.67,4.47-7.67,4.46,4.81,4.46,7.67S25.55,77,21.62,77m0-15.67c-3.74,0-7,3.54-7,8s3.24,8,7,8,7-3.55,7-8-3.24-8-7-8"/><path d="M40.16,62h1c1,0,1.15.27,1.15,1.17V73h0L34,61.67H29.31V62h2.13V75.4c0,1-.36,1.24-1.38,1.24h-.75V77H34v-.35h-.88c-1,0-1.37-.19-1.37-1.24V62.71h0L42.4,77.12h.29V63.19c0-.9.19-1.17,1.15-1.17h1v-.35H40.16Z"/><path d="M52.11,76.65h-1.9V62h1.08c5.42,0,6.49,3.59,6.49,7.3,0,6.58-3.68,7.33-5.67,7.33m.66-15H45.86V62H48V76.65h-2.1V77h6.93c4.53,0,7.51-2.92,7.51-7.67,0-2.89-1.66-7.65-7.53-7.65"/><path d="M82,67.94c-3.66-.66-4.41-1.09-4.41-3a3,3,0,0,1,3.2-3.22c3,0,4.33,2.24,4.53,4.72h.35V61.81h-.35c-.07.29-.14.83-.64.83-.75,0-1.62-1.32-3.89-1.32a4,4,0,0,0-4.13,4.29c0,3.65,1.63,4.22,5.1,4.76,2.54.4,3.74,1.07,3.74,3.33A3.34,3.34,0,0,1,81.87,77C79.22,77,77,75.27,77,71.61h-.35v5.52H77c0-.38,0-.92.56-.92.81,0,2,1.13,4.19,1.13,3.2,0,4.79-2.13,4.79-5S85.25,68.5,82,67.94"/><path d="M68.54,76.65h-3V69.37h1.64c2.32,0,2.53,1,2.53,2.66H70V66.24h-.36c0,1.41-.21,2.78-2.51,2.78H65.51V62H69c2.34,0,4,.85,4,3.36h.35l-.26-3.7H61.32V62h1.94V76.65H61.32V77H74.19V72.53h-.35c0,3.7-1.73,4.12-5.3,4.12"/><path d="M5.78,31,9.06,21h.07l3.46,10Zm13.15,7.53L10.78,15.29H10.4L3.19,36.63c-.63,1.85-1.07,1.94-2.11,1.94H0v.54H6.92v-.54H5.17c-1.07,0-1.48-.36-1.48-.81a7.32,7.32,0,0,1,.5-2l1.38-4.16h7.18l2.43,7h-3.3v.54h9.83v-.54Z"/><path d="M51.75,16.35h.71V38.57H49v.54H59.33v-.54H55.88V16.35h.73c5.94,0,7.29.89,7.29,6.32h.53V15.82H43.89v6.85h.55c0-5.43,1.34-6.32,7.31-6.32"/><path d="M44.15,31.5h-.54c0,6.26-2,7.08-8.46,7.08H31V16.35h3.36v-.53H24.18v.53h3.36V38.58H24.18v.53h20Z"/><path d="M77.07,39.1c-6,0-6.78-7.3-6.78-11.64s.8-11.64,6.78-11.64,6.77,7.31,6.77,11.64S83,39.1,77.07,39.1m0-23.81c-5.67,0-10.61,5.39-10.61,12.17S71.4,39.64,77.07,39.64s10.61-5.39,10.61-12.18S82.74,15.29,77.07,15.29"/><rect x="95.13" width="94.1" height="92.77"/><path class="cls-1" d="M138.15,16.48l1.13,3-1.13,3-1.14-3Zm2.48,6.62-1.14,3-1.14-3,1.14-3Zm.2-6.62,1.14,3-1.14,3-1.14-3Zm2.48,6.62-1.14,3-1.13-3,1.13-3Zm.21-6.62,1.14,3-1.14,3-1.14-3ZM146,23.1l-1.14,3-1.14-3,1.14-3Zm.2-6.62,1.14,3-1.14,3-1.14-3Zm-2.68,13.24-1.14-3,1.14-3,1.13,3Zm-1.35,3.59-1.13-3,1.13-3,1.14,3Zm-2.48-6.63,1.14-3,1.14,3-1.14,3ZM112.87,76.76l22.59-60.28,1.14,3L115.15,76.76h.41l21.24-56.7,1.14,3L117.83,76.76h.41l19.91-53.11,1.14,3L120.51,76.76h.41l18.57-49.53,1.14,3L123.2,76.76h.41l17.22-45.95,1.14,3L125.89,76.76h.41l15.87-42.37,15.89,42.37h.41L142.38,33.85l1.14-3,17.22,46h.41L143.72,30.27l1.14-3,18.57,49.53h.4L145.06,26.68l1.14-3,19.91,53.11h.41L146.41,23.1l1.14-3,21.25,56.7h.41L147.75,19.52l1.14-3,22.59,60.28h.41L149.07,15.87h-.36L147.55,19l-1.17-3.11H146L144.86,19l-1.17-3.11h-.35L142.17,19,141,15.87h-.36L139.49,19l-1.16-3.11H138L136.8,19l-1.16-3.11h-.36L112.46,76.76Z"/></g></g></svg>