<svg xmlns="http://www.w3.org/2000/svg" viewBox="0 0 91.13 75.58"><title>megaphone</title><g id="a321bddb-8eb2-4939-8489-b834af077e4c" data-name="Layer 2"><g id="e4c35d4c-b710-455d-8b8e-514e0283d41e" data-name="Layer 1"><path d="M20.54,73.8c-1.78-1.72-2.42-4-2.92-6.3-1-4.82-2.17-9.61-3.26-14.42-.07-.3-.15-.6-.26-1-.78.21-1.51.43-2.26.59A7.66,7.66,0,0,1,2.4,46.7C1.65,43.51.93,40.31.22,37.11a7.63,7.63,0,0,1,6-9.47c6.44-1.5,12.9-2.86,19.32-4.45A52.66,52.66,0,0,0,51.16,8.32a2,2,0,0,0,.4-1.14,7.71,7.71,0,0,1,12-5.85A7.49,7.49,0,0,1,66.74,6q4.55,20,9.06,39.91A7.29,7.29,0,0,1,73,53.75a7.38,7.38,0,0,1-8.2.75,7.83,7.83,0,0,1-3.17-3,2.45,2.45,0,0,0-1.08-.94,53,53,0,0,0-20.67-3.32l-.54,0c.1.47.19.9.29,1.33a7.69,7.69,0,0,1-6,9.61c-.71.17-1.45.25-2.33.39.67,2.78,1.39,5.33,1.88,7.93a7.65,7.65,0,0,1-8.84,9c-.64-.11-1.26-.32-1.89-.49L20.54,73.8M52.65,14.09a60.42,60.42,0,0,1-10.73,8,60,60,0,0,1-12.18,5.32c1.17,5.15,2.33,10.21,3.49,15.32a58.68,58.68,0,0,1,26.4,2.08C57.3,34.5,55,24.33,52.65,14.09M24.53,28.74l-.62.12L7.5,32.59c-1.95.44-2.69,1.62-2.24,3.58.68,3,1.37,6,2.06,9.08C7.79,47.33,8.92,48,11,47.56l16.15-3.67c.27-.06.54-.14.75-.2-1.13-5-2.25-9.94-3.38-14.95M70.27,49.36a3.1,3.1,0,0,0,.45-2.75q-4.44-19.5-8.87-39a4.5,4.5,0,0,0-.22-.82,2.44,2.44,0,0,0-2.11-1.64,2.41,2.41,0,0,0-2.36,1.07,2.86,2.86,0,0,0-.33,2.45q4.47,19.58,8.91,39.15a4.88,4.88,0,0,0,.2.75,2.47,2.47,0,0,0,2.11,1.63,2.36,2.36,0,0,0,2.22-.85M19.15,51.07c1.33,5.81,2.64,11.61,4,17.4a2.39,2.39,0,0,0,1.72,1.85,2.55,2.55,0,0,0,3.21-3.24q-1.87-8.32-3.78-16.64c-.05-.19-.12-.36-.17-.5l-5,1.13m11.17,2.57c4.68-.57,5.1-2.18,3.71-5.93l-4.82,1c.39,1.76.75,3.36,1.11,5" fill="#d89500"/><path d="M80.19,7.94A3.07,3.07,0,0,1,80,11.79c-.82,1.13-1.5,2.35-2.25,3.53a2.56,2.56,0,0,1-3.61.95,2.6,2.6,0,0,1-.72-3.68C74.2,11.38,75,10.2,75.72,9a2.94,2.94,0,0,1,3.46-1.66l1,.63" fill="#d89500"/><path d="M90.76,23.88A8.63,8.63,0,0,1,89,24.8c-2.26.58-4.54,1.08-6.83,1.57a2.56,2.56,0,1,1-1.15-5q3.45-.83,6.91-1.57a2.49,2.49,0,0,1,2.75,1.08,3,3,0,0,1,.07,3" fill="#d89500"/><path d="M83.9,34.51c.72.46,1.46.9,2.17,1.37a2.56,2.56,0,0,1-2.74,4.32Q81.14,38.88,79,37.47a2.56,2.56,0,1,1,2.74-4.32c.73.43,1.45.91,2.17,1.36" fill="#d89500"/></g></g></svg>